<svg xmlns="http://www.w3.org/2000/svg" viewBox="0 0 16 16" width="16px" height="16px">
<path fill="#808080" d="m 2,1 v 4 h 4 v 10 h 4 v -10 h 4 v -4 z m 1.121094,1 h 1.414062 l 2,2 H 5.115235 Z m 2.121094,0 h 1.414062 l 2.34375,2.34375 v 1.4140625 z m 2.121093,0 H 8.771485 L 10.769532,3.998 H 9.355469 Z m 2.121094,0 h 1.414063 L 12.890625,4 h -1.414062 z m 2.121094,0 H 13 L 13,3.3964375 Z M 3,2.59175 4.408203,4 H 3 Z M 7,4.4706562 9,6.4647969 V 7.8788594 L 7,5.8847188 Z M 7,6.59175 9,8.5858906 V 10 L 7,8 Z m 0,2.1210938 2,2 v 1.414063 L 7,10.126906 Z m 0,2.1210942 2,2 V 14 L 8.7611513,14 7,12.248 Z M 7,13 8,14 H 7 Z" />
<path fill="#62D361" d="M 3.5 10 A 2.5 2.5 0 0 0 1 12.5 A 2.5 2.5 0 0 0 3.5 15 A 2.5 2.5 0 0 0 6 12.5 A 2.5 2.5 0 0 0 3.5 10 z M 3.6445312 11 A 1.5 1.5 0 0 1 5 12.355469 L 3.6445312 11 z M 3.0117188 11 L 4.9179688 13 A 1.5 1.5 0 0 1 4.2890625 13.773438 L 2.2246094 11.708984 A 1.5 1.5 0 0 1 3 11 z M 2 12.21875 L 3.78125 14 A 1.5 1.5 0 0 1 3.5 14 A 1.5 1.5 0 0 1 2 12.5 A 1.5 1.5 0 0 1 2 12.21875 z " />
</svg>
