<svg xmlns="http://www.w3.org/2000/svg" viewBox="0 0 16 16" width="16px" height="16px">
<path fill="#808080" d="M 1,0 V 4.7128906 L 3.419922,7 H 7 v 7.257812 l -1,-1 V 7.5 H 5 v 6 L 7.53125,16 H 12 V 7 h 4 V 2.5 L 13.625,0 Z m 1.695312,1 h 10.580079 l 1,1 H 3.695312 Z M 2,1.703125 l 1,1 V 5.40625 l -1,-1 z M 4,3 h 11 v 3 h -4 v 9 H 8 V 6 H 4 Z" />
<path fill="#62D361" d="M 2.5,10 C 2,10 2,10.5 2,11 v 1 H 1 C 0.5,12 0,12 0,12.5 0,13 0.5,13 1,13 h 1 v 1 c 0,0.5 0,1 0.5,1 C 3,15 3,14.5 3,14 V 13 H 4 C 4.5,13 5,13 5,12.5 5,12 4.5,12 4,12 H 3 V 11 C 3,10.5 3,10 2.5,10 Z" />
</svg>
