<svg width="46" height="46" viewBox="0 0 46 46" fill="none" xmlns="http://www.w3.org/2000/svg">
<path fill-rule="evenodd" clip-rule="evenodd" d="M12.8125 13.1875H28.8879C29.1641 13.1875 29.3879 13.4114 29.3879 13.6875V14.7878C29.8996 14.872 30.4004 14.9887 30.8879 15.1358V13.6875C30.8879 12.5829 29.9925 11.6875 28.8879 11.6875H12.8125C11.7079 11.6875 10.8125 12.5829 10.8125 13.6875V29.7629C10.8125 30.8675 11.7079 31.7629 12.8125 31.7629H16.6885C16.4546 31.2802 16.2522 30.7793 16.0841 30.2629H12.8125C12.5364 30.2629 12.3125 30.0391 12.3125 29.7629V13.6875C12.3125 13.4114 12.5364 13.1875 12.8125 13.1875Z" fill="#62D361"/>
<path fill-rule="evenodd" clip-rule="evenodd" d="M27.5 36C32.7467 36 37 31.7467 37 26.5C37 21.2533 32.7467 17 27.5 17C22.2533 17 18 21.2533 18 26.5C18 31.7467 22.2533 36 27.5 36ZM25.9797 32.5533L25.9797 28.1074H21.532V25.1074H25.9797L25.9797 20.6646H28.9797L28.9797 25.1074H33.4208V28.1074H28.9797L28.9797 32.5533L25.9797 32.5533Z" fill="#62D361"/>
</svg>
