<svg width="256" height="256" viewBox="0 0 256 256" fill="none" xmlns="http://www.w3.org/2000/svg">
<rect width="256" height="256" rx="128" fill="#191E2B"/>
<path d="M120.354 109.216L69.8994 58.6667H56V197.333H87.6663V121.332L97.9731 131.658C98.994 132.681 100.624 132.681 101.644 131.658L120.354 112.914C121.355 111.871 121.355 110.239 120.354 109.216Z" fill="#88F387"/>
<path d="M129.836 118.716C128.816 117.693 127.186 117.693 126.165 118.716L107.456 137.46C106.435 138.483 106.435 140.115 107.456 141.138L126.165 159.883C127.186 160.906 128.816 160.906 129.836 159.883L148.546 141.138C149.567 140.115 149.567 138.483 148.546 137.46L129.836 118.716Z" fill="#88F387"/>
<path d="M186.101 58.6667H200V197.314H168.334V121.313L158.027 131.639C157.006 132.662 155.376 132.662 154.356 131.639L135.646 112.894C134.625 111.871 134.625 110.239 135.646 109.216L186.101 58.6667Z" fill="#88F387"/>
</svg>
