<svg width="154" height="154" viewBox="0 0 154 154" fill="none" xmlns="http://www.w3.org/2000/svg">
<rect width="154" height="154" rx="32" fill="#191E2B"/>
<path d="M72.4002 65.7003L42.0489 35.2917H33.6875V118.708H52.7368V72.9889L58.937 79.2008C59.5511 79.8161 60.5313 79.8161 61.1454 79.2008L72.4002 67.9248C73.0025 67.2977 73.0025 66.3156 72.4002 65.7003Z" fill="#88F387"/>
<path d="M78.1048 71.4148C77.4907 70.7996 76.5104 70.7996 75.8963 71.4148L64.6415 82.6909C64.0274 83.3061 64.0274 84.2882 64.6415 84.9035L75.8963 96.1795C76.5104 96.7948 77.4907 96.7948 78.1048 96.1795L89.3596 84.9035C89.9737 84.2882 89.9737 83.3061 89.3596 82.6909L78.1048 71.4148Z" fill="#88F387"/>
<path d="M111.951 35.2917H120.312V118.697H101.263V72.9771L95.063 79.189C94.4489 79.8042 93.4687 79.8042 92.8546 79.189L81.5998 67.9129C80.9856 67.2977 80.9856 66.3156 81.5998 65.7003L111.951 35.2917Z" fill="#88F387"/>
</svg>
