<svg width="256" height="256" viewBox="0 0 256 256" fill="none" xmlns="http://www.w3.org/2000/svg">
<g clip-path="url(#clip0_29584_44289)">
<rect width="256" height="256" rx="128" fill="black"/>
<path d="M75.1776 60.8768C73.9426 59.6074 72.3569 58.7352 70.6234 58.3719C68.89 58.0086 67.0876 58.1706 65.4467 58.8372C63.8059 59.5038 62.4011 60.6447 61.4122 62.114C60.4233 63.5833 59.8951 65.3142 59.8953 67.0853V186.841C59.8395 188.044 60.0282 189.245 60.4499 190.373C60.8717 191.5 61.5177 192.53 62.3489 193.401C63.1801 194.272 64.1793 194.965 65.2859 195.438C66.3926 195.912 67.5839 196.156 68.7876 196.156C69.9914 196.156 71.1826 195.912 72.2893 195.438C73.396 194.965 74.3951 194.272 75.2264 193.401C76.0576 192.53 76.7036 191.5 77.1253 190.373C77.5471 189.245 77.7359 188.044 77.6801 186.841V89.0536L109.295 121.529L121.884 108.959L75.1776 60.8768Z" fill="#62D361"/>
<path d="M190.771 58.8328C189.13 58.1684 187.329 58.008 185.597 58.372C183.865 58.7361 182.281 59.6082 181.047 60.8769L134.092 109.035L146.681 121.624L178.526 88.9582V186.841C178.47 188.044 178.659 189.245 179.08 190.373C179.502 191.5 180.148 192.53 180.979 193.401C181.811 194.272 182.81 194.965 183.917 195.438C185.023 195.912 186.214 196.156 187.418 196.156C188.622 196.156 189.813 195.912 190.92 195.438C192.027 194.965 193.026 194.272 193.857 193.401C194.688 192.53 195.334 191.5 195.756 190.373C196.178 189.245 196.366 188.044 196.311 186.841V67.0853C196.308 65.3159 195.779 63.5873 194.793 62.1182C193.807 60.6492 192.407 59.5058 190.771 58.8328Z" fill="#62D361"/>
<path d="M128.608 116.008L127.978 115.358L127.347 116.008L115.294 128.062L127.978 140.746L140.662 128.062L128.608 116.008Z" fill="#62D361"/>
</g>
<defs>
<clipPath id="clip0_29584_44289">
<rect width="256" height="256" fill="white"/>
</clipPath>
</defs>
</svg>
