<svg width="154" height="154" viewBox="0 0 154 154" fill="none" xmlns="http://www.w3.org/2000/svg">
<g clip-path="url(#clip0_29584_44284)">
<rect width="154" height="154" rx="32" fill="black"/>
<path d="M45.2244 36.6213C44.4814 35.8577 43.5275 35.333 42.4848 35.1145C41.442 34.8959 40.3578 34.9933 39.3707 35.3943C38.3836 35.7954 37.5385 36.4817 36.9436 37.3655C36.3487 38.2494 36.031 39.2907 36.0311 40.3561V112.397C35.9976 113.12 36.1111 113.843 36.3648 114.521C36.6185 115.199 37.0071 115.819 37.5071 116.343C38.0072 116.867 38.6082 117.283 39.274 117.568C39.9397 117.853 40.6563 118 41.3804 118C42.1046 118 42.8212 117.853 43.4869 117.568C44.1527 117.283 44.7537 116.867 45.2537 116.343C45.7538 115.819 46.1424 115.199 46.3961 114.521C46.6498 113.843 46.7633 113.12 46.7298 112.397V53.5714L65.7484 73.1072L73.3213 65.5457L45.2244 36.6213Z" fill="#62D361"/>
<path d="M114.761 35.3917C113.774 34.992 112.691 34.8955 111.649 35.1145C110.607 35.3336 109.654 35.8582 108.912 36.6213L80.6653 65.5917L88.2383 73.1646L107.395 53.514V112.397C107.361 113.12 107.475 113.843 107.728 114.521C107.982 115.199 108.371 115.819 108.871 116.343C109.371 116.867 109.972 117.283 110.638 117.568C111.303 117.853 112.02 118 112.744 118C113.468 118 114.185 117.853 114.851 117.568C115.516 117.283 116.117 116.867 116.617 116.343C117.117 115.819 117.506 115.199 117.76 114.521C118.014 113.843 118.127 113.12 118.094 112.397V40.3561C118.092 39.2917 117.774 38.2518 117.181 37.3681C116.587 36.4844 115.745 35.7966 114.761 35.3917Z" fill="#62D361"/>
<path d="M77.3663 69.7861L76.9871 69.3954L76.6078 69.7861L69.3566 77.0373L76.9871 84.6677L84.6175 77.0373L77.3663 69.7861Z" fill="#62D361"/>
</g>
<defs>
<clipPath id="clip0_29584_44284">
<rect width="154" height="154" fill="white"/>
</clipPath>
</defs>
</svg>
