<svg width="82" height="79" viewBox="0 0 82 79" fill="none" xmlns="http://www.w3.org/2000/svg">
<path d="M36.6458 28.491L7.91495 0H0V78.1562H18.0322V35.32L23.9014 41.1401C24.4827 41.7166 25.4106 41.7166 25.9919 41.1401L36.6458 30.5752C37.216 29.9876 37.216 29.0675 36.6458 28.491Z" fill="#62D361"/>
<path d="M42.0458 33.8451C41.4645 33.2687 40.5366 33.2687 39.9553 33.8451L29.3014 44.4101C28.72 44.9866 28.72 45.9067 29.3014 46.4832L39.9553 57.0481C40.5366 57.6246 41.4645 57.6246 42.0458 57.0481L52.6997 46.4832C53.281 45.9067 53.281 44.9866 52.6997 44.4101L42.0458 33.8451Z" fill="#62D361"/>
<path d="M74.0851 0H82V78.1452H63.9677V35.3089L58.0986 41.129C57.5173 41.7055 56.5894 41.7055 56.0081 41.129L45.3542 30.5641C44.7729 29.9876 44.7729 29.0675 45.3542 28.491L74.0851 0Z" fill="#62D361"/>
</svg>
