<svg width="82" height="79" viewBox="0 0 82 79" fill="none" xmlns="http://www.w3.org/2000/svg">
<g clip-path="url(#clip0_29584_44273)">
<path d="M9.19075 1.54319C8.44844 0.816359 7.49541 0.31698 6.45358 0.108942C5.41175 -0.0990954 4.32847 -0.00633385 3.34227 0.375344C2.35607 0.757022 1.5118 1.41026 0.917431 2.25154C0.323066 3.09282 0.00565409 4.08389 0.00574195 5.09797V73.667C-0.0277631 74.3554 0.0856207 75.0432 0.339094 75.6888C0.592566 76.3343 0.980838 76.9242 1.48042 77.4227C1.98001 77.9212 2.58049 78.318 3.24564 78.5891C3.91078 78.8602 4.62676 79 5.35023 79C6.0737 79 6.78968 78.8602 7.45482 78.5891C8.11997 78.318 8.72045 77.9212 9.22004 77.4227C9.71962 76.9242 10.1079 76.3343 10.3614 75.6888C10.6148 75.0432 10.7283 74.3554 10.6948 73.667V17.6764L29.6962 36.2707L37.2624 29.0736L9.19075 1.54319Z" fill="#62D361"/>
<path d="M78.6647 0.372853C77.6788 -0.00758382 76.5963 -0.0994402 75.5553 0.109021C74.5144 0.317483 73.5623 0.816808 72.8207 1.5432L44.5997 29.1174L52.1659 36.3254L71.3051 17.6218V73.667C71.2716 74.3554 71.385 75.0432 71.6385 75.6888C71.892 76.3343 72.2802 76.9242 72.7798 77.4227C73.2794 77.9212 73.88 78.318 74.5451 78.5891C75.2103 78.8602 75.9262 79 76.6497 79C77.3732 79 78.0891 78.8602 78.7542 78.5891C79.4194 78.318 80.0199 77.9212 80.5194 77.4227C81.019 76.9242 81.4074 76.3343 81.6608 75.6888C81.9143 75.0432 82.0278 74.3554 81.9943 73.667V5.09798C81.9924 4.0849 81.6749 3.09512 81.0822 2.25399C80.4894 1.41285 79.6482 0.75817 78.6647 0.372853Z" fill="#62D361"/>
<path d="M41.3037 33.1097L40.9248 32.7378L40.5459 33.1097L33.3012 40.0114L40.9248 47.2741L48.5483 40.0114L41.3037 33.1097Z" fill="#62D361"/>
</g>
<defs>
<clipPath id="clip0_29584_44273">
<rect width="82" height="79" fill="white"/>
</clipPath>
</defs>
</svg>
