<svg width="46" height="46" viewBox="0 0 46 46" fill="none" xmlns="http://www.w3.org/2000/svg">
<path fill-rule="evenodd" clip-rule="evenodd" d="M10.9397 18.2798L17.0416 11.8329L18.935 13.6249C19.6455 13.304 20.5099 13.4224 21.1112 13.9915C21.7125 14.5606 21.8781 15.4172 21.5968 16.1443L23.4886 17.9348L20.7647 20.8127L20.2198 20.2928L20.2183 20.2913C20.026 20.1093 19.7225 20.1176 19.5405 20.31C19.3585 20.5023 19.3668 20.8057 19.5591 20.9877L19.5607 20.9892L20.1098 21.5046L17.3866 24.3817L10.9397 18.2798ZM13.0602 18.2215L17.3283 22.2612L18.0867 21.46C17.7631 20.7485 17.8807 19.8815 18.4511 19.2788C19.0215 18.6762 19.8807 18.5111 20.6089 18.7952L21.368 17.9931L19.583 16.3036L20.0986 15.7589C20.2806 15.5666 20.2724 15.2629 20.0801 15.0809C19.8878 14.8989 19.5843 14.9072 19.4023 15.0995L18.8866 15.6444L17.0999 13.9534L13.0602 18.2215Z" fill="#62D361"/>
<path fill-rule="evenodd" clip-rule="evenodd" d="M18.5129 33.4131L18.5129 24.5363L21.1202 24.5363C21.4155 23.8146 22.1248 23.3061 22.9529 23.3061C23.781 23.3061 24.4904 23.8146 24.7857 24.5363L27.3897 24.5363L27.3897 28.4987L26.6346 28.4936L26.6311 28.4936C26.3663 28.4936 26.1516 28.7082 26.1516 28.973C26.1516 29.2378 26.3663 29.4525 26.6311 29.4525L26.6345 29.4525L27.3897 29.4473L27.3897 33.4131L18.5129 33.4131ZM23.4324 25.2855C23.4324 25.0207 23.2177 24.8061 22.9529 24.8061C22.6882 24.8061 22.4736 25.0206 22.4735 25.2853L22.4737 26.0363L20.0129 26.0363L20.0129 31.9131L25.8897 31.9131L25.8897 30.809C25.1638 30.5156 24.6516 29.8041 24.6516 28.973C24.6516 28.142 25.1638 27.4305 25.8897 27.1371L25.8897 26.0363L23.432 26.0363L23.4324 25.2855Z" fill="#62D361"/>
<path fill-rule="evenodd" clip-rule="evenodd" d="M34.7444 33.4131L25.8676 33.4131L25.8676 30.8091C25.1459 30.5137 24.6374 29.8044 24.6374 28.9763C24.6374 28.1482 25.1459 27.4389 25.8676 27.1436L25.8676 24.5363L29.8276 24.5363L29.8281 25.2858C29.8283 25.5504 30.0429 25.7649 30.3076 25.7649C30.5723 25.7649 30.7869 25.5504 30.787 25.2858L30.7876 24.5363L34.7444 24.5363L34.7444 33.4131ZM26.6168 28.4969C26.352 28.4969 26.1374 28.7115 26.1374 28.9763C26.1374 29.241 26.3519 29.4557 26.6166 29.4558L27.3676 29.4556L27.3676 31.9131L33.2444 31.9131L33.2444 26.0363L32.1397 26.0363C31.8439 26.7572 31.135 27.2649 30.3076 27.2649C29.4801 27.2649 28.7713 26.7572 28.4755 26.0363L27.3676 26.0363L27.3676 28.4973L26.6168 28.4969Z" fill="#62D361"/>
<path fill-rule="evenodd" clip-rule="evenodd" d="M34.7444 17.147L34.7444 26.0237L32.1372 26.0237C31.8418 26.7455 31.1325 27.254 30.3044 27.254C29.4763 27.254 28.767 26.7455 28.4716 26.0237L25.8676 26.0237L25.8676 22.0633L26.62 22.0646C26.8848 22.0646 27.0995 21.85 27.0995 21.5852C27.0995 21.3204 26.8848 21.1057 26.62 21.1057L25.8676 21.1071L25.8676 17.147L34.7444 17.147ZM29.8249 25.2745C29.8249 25.5393 30.0396 25.754 30.3044 25.754C30.5691 25.754 30.7837 25.5395 30.7839 25.2748L30.7836 24.5237L33.2444 24.5237L33.2444 18.647L27.3676 18.647L27.3676 19.7518C28.0902 20.0467 28.5995 20.7565 28.5995 21.5852C28.5995 22.4138 28.0902 23.1236 27.3676 23.4186L27.3676 24.5237L29.8254 24.5237L29.8249 25.2745Z" fill="#62D361"/>
</svg>
