<svg width="46" height="46" viewBox="0 0 46 46" fill="none" xmlns="http://www.w3.org/2000/svg">
<path d="M15.8465 32.1484C16.0342 32.3892 16.3983 32.3892 16.586 32.1484L19.6451 28.2229C19.885 27.915 19.6656 27.466 19.2754 27.466H16.9829C17.2371 25.1674 18.2454 22.9365 20.0078 21.1741C19.0134 20.1797 20.0078 21.1755 19.0134 20.1797C16.9763 22.2168 15.8282 24.8063 15.5691 27.466H13.1571C12.7668 27.466 12.5475 27.915 12.7874 28.2229L15.8465 32.1484Z" fill="white"/>
<path d="M23.4775 16.2002V16.4199C23.4775 16.7422 23.4346 17.0322 23.3486 17.29C23.2627 17.5459 23.1406 17.7637 22.9824 17.9434C22.8242 18.123 22.6357 18.2607 22.417 18.3564C22.1982 18.4521 21.9551 18.5 21.6875 18.5C21.4238 18.5 21.1816 18.4521 20.9609 18.3564C20.7422 18.2607 20.5527 18.123 20.3926 17.9434C20.2324 17.7637 20.1084 17.5459 20.0205 17.29C19.9326 17.0322 19.8887 16.7422 19.8887 16.4199V16.2002C19.8887 15.876 19.9326 15.5859 20.0205 15.3301C20.1084 15.0742 20.2314 14.8564 20.3896 14.6768C20.5479 14.4951 20.7363 14.3564 20.9551 14.2607C21.1758 14.165 21.418 14.1172 21.6816 14.1172C21.9492 14.1172 22.1924 14.165 22.4111 14.2607C22.6299 14.3564 22.8184 14.4951 22.9766 14.6768C23.1367 14.8564 23.2598 15.0742 23.3457 15.3301C23.4336 15.5859 23.4775 15.876 23.4775 16.2002ZM22.6631 16.4199V16.1943C22.6631 15.9619 22.6416 15.7578 22.5986 15.582C22.5557 15.4043 22.4922 15.2549 22.4082 15.1338C22.3242 15.0127 22.2207 14.9219 22.0977 14.8613C21.9746 14.7988 21.8359 14.7676 21.6816 14.7676C21.5254 14.7676 21.3867 14.7988 21.2656 14.8613C21.1465 14.9219 21.0449 15.0127 20.9609 15.1338C20.877 15.2549 20.8125 15.4043 20.7676 15.582C20.7246 15.7578 20.7031 15.9619 20.7031 16.1943V16.4199C20.7031 16.6504 20.7246 16.8545 20.7676 17.0322C20.8125 17.21 20.877 17.3604 20.9609 17.4834C21.0469 17.6045 21.1504 17.6963 21.2715 17.7588C21.3926 17.8213 21.5313 17.8525 21.6875 17.8525C21.8437 17.8525 21.9824 17.8213 22.1035 17.7588C22.2246 17.6963 22.3262 17.6045 22.4082 17.4834C22.4922 17.3604 22.5557 17.21 22.5986 17.0322C22.6416 16.8545 22.6631 16.6504 22.6631 16.4199Z" fill="white"/>
<path d="M15.0479 14.1172H15.8535V16.9502C15.8535 17.2764 15.7832 17.5508 15.6426 17.7734C15.502 17.9941 15.3105 18.1611 15.0684 18.2744C14.8262 18.3857 14.5508 18.4414 14.2422 18.4414C13.9297 18.4414 13.6514 18.3857 13.4072 18.2744C13.1631 18.1611 12.9717 17.9941 12.833 17.7734C12.6943 17.5508 12.625 17.2764 12.625 16.9502V14.1172H13.4307V16.9502C13.4307 17.1494 13.4639 17.3125 13.5303 17.4395C13.5967 17.5645 13.6904 17.6572 13.8115 17.7178C13.9326 17.7783 14.0762 17.8086 14.2422 17.8086C14.4102 17.8086 14.5537 17.7783 14.6729 17.7178C14.7939 17.6572 14.8867 17.5645 14.9512 17.4395C15.0156 17.3125 15.0479 17.1494 15.0479 16.9502V14.1172Z" fill="white"/>
<path d="M18.2646 14.1758V18.4414H17.4619V14.1758H18.2646ZM19.5889 14.1758V14.8115H16.1523V14.1758H19.5889Z" fill="white"/>
<path d="M10.4551 14.8232L9.23926 18.4414H8.38672L9.98047 14.1758H10.5254L10.4551 14.8232ZM11.4717 18.4414L10.25 14.8232L10.1768 14.1758H10.7246L12.3271 18.4414H11.4717ZM11.416 16.8564V17.4922H9.12793V16.8564H11.416Z" fill="white"/>
<path fill-rule="evenodd" clip-rule="evenodd" d="M11 34.25C11 33.8358 11.3358 33.5 11.75 33.5L34.25 33.5C34.6642 33.5 35 33.8358 35 34.25C35 34.6642 34.6642 35 34.25 35L11.75 35C11.3358 35 11 34.6642 11 34.25Z" fill="white"/>
<path fill-rule="evenodd" clip-rule="evenodd" d="M27.8144 12.1869C27.6883 11.9413 27.3869 11.8443 27.1413 11.9705L25 13.0697V19.5C25 19.7761 24.7761 20 24.5 20H21.2871L26.724 30.5912C26.8501 30.8369 27.1515 30.9338 27.3972 30.8077L34.8478 26.9829C35.0935 26.8568 35.1904 26.5554 35.0643 26.3098L27.8144 12.1869Z" fill="white"/>
</svg>
