<svg width="17" height="17" viewBox="0 0 17 17" fill="none" xmlns="http://www.w3.org/2000/svg">
<g opacity="0.6">
<path d="M7.75 1.01036C8.2141 0.742414 8.7859 0.742414 9.25 1.01036L14.6112 4.10566C15.0753 4.37361 15.3612 4.8688 15.3612 5.4047V11.5953C15.3612 12.1312 15.0753 12.6264 14.6112 12.8943L9.25 15.9896C8.7859 16.2576 8.2141 16.2576 7.75 15.9896L2.38878 12.8943C1.92468 12.6264 1.63878 12.1312 1.63878 11.5953V5.4047C1.63878 4.8688 1.92468 4.37361 2.38878 4.10566L7.75 1.01036Z" stroke="white"/>
</g>
<path d="M7.30421 6.60248L5.49308 11.3716H4.23047L6.65738 5.37158H7.49567L7.30421 6.60248ZM8.97562 11.3716L7.15414 6.59218L6.96268 5.37158H7.8165L10.2382 11.3716H8.97562ZM8.898 9.14669V10.0789H5.45168V9.14669H8.898Z" fill="#A9AAAB"/>
<path d="M12.2305 5.37158V11.3716H10.9782V5.37158H12.2305Z" fill="#A9AAAB"/>
</svg>
