<svg width="32" height="32" viewBox="0 0 32 32" fill="none" xmlns="http://www.w3.org/2000/svg">
<g clip-path="url(#clip0_29584_44354)">
<circle cx="16" cy="16" r="16" fill="black"/>
<path d="M8.62382 7.37639C8.45134 7.19911 8.22989 7.07731 7.98782 7.02657C7.74574 6.97583 7.49403 6.99846 7.26488 7.09155C7.03573 7.18464 6.83956 7.34397 6.70145 7.54916C6.56335 7.75435 6.4896 7.99607 6.48962 8.24341V24.9676C6.48183 25.1355 6.50818 25.3032 6.56707 25.4607C6.62597 25.6181 6.71619 25.762 6.83227 25.8836C6.94835 26.0052 7.08788 26.1019 7.24243 26.1681C7.39698 26.2342 7.56334 26.2683 7.73145 26.2683C7.89955 26.2683 8.06591 26.2342 8.22046 26.1681C8.37502 26.1019 8.51454 26.0052 8.63062 25.8836C8.74671 25.762 8.83692 25.6181 8.89582 25.4607C8.95472 25.3032 8.98108 25.1355 8.97329 24.9676V11.3113L13.3884 15.8465L15.1465 14.0911L8.62382 7.37639Z" fill="#88F387"/>
<path d="M24.7666 7.09094C24.5375 6.99815 24.286 6.97575 24.0441 7.02659C23.8022 7.07743 23.581 7.19922 23.4087 7.37639L16.8514 14.1018L18.6094 15.8598L23.0566 11.298V24.9676C23.0488 25.1355 23.0751 25.3032 23.134 25.4607C23.1929 25.6181 23.2831 25.762 23.3992 25.8836C23.5153 26.0052 23.6548 26.1019 23.8094 26.1681C23.9639 26.2342 24.1303 26.2683 24.2984 26.2683C24.4665 26.2683 24.6328 26.2342 24.7874 26.1681C24.942 26.1019 25.0815 26.0052 25.1976 25.8836C25.3136 25.762 25.4039 25.6181 25.4628 25.4607C25.5217 25.3032 25.548 25.1355 25.5402 24.9676V8.24341C25.5398 7.99632 25.466 7.75491 25.3283 7.54975C25.1906 7.3446 24.9951 7.18492 24.7666 7.09094Z" fill="#88F387"/>
<path d="M16.0855 15.0755L15.9975 14.9848L15.9094 15.0755L14.2261 16.7589L15.9975 18.5303L17.7688 16.7589L16.0855 15.0755Z" fill="#88F387"/>
</g>
<defs>
<clipPath id="clip0_29584_44354">
<rect width="32" height="32" fill="white"/>
</clipPath>
</defs>
</svg>
