<svg width="32" height="32" viewBox="0 0 32 32" fill="none" xmlns="http://www.w3.org/2000/svg">
<rect width="32" height="32" rx="16" fill="#191E2B"/>
<path d="M15.0442 13.652L8.73743 7.33337H7V24.6667H10.9583V15.1666L12.2466 16.4573C12.3742 16.5852 12.5779 16.5852 12.7055 16.4573L15.0442 14.1143C15.1694 13.984 15.1694 13.7799 15.0442 13.652Z" fill="#88F387"/>
<path d="M16.2296 14.8395C16.102 14.7116 15.8983 14.7116 15.7707 14.8395L13.432 17.1826C13.3044 17.3104 13.3044 17.5145 13.432 17.6423L15.7707 19.9854C15.8983 20.1132 16.102 20.1132 16.2296 19.9854L18.5682 17.6423C18.6958 17.5145 18.6958 17.3104 18.5682 17.1826L16.2296 14.8395Z" fill="#88F387"/>
<path d="M23.2626 7.33337H25V24.6642H21.0417V15.1641L19.7534 16.4549C19.6257 16.5827 19.4221 16.5827 19.2945 16.4549L16.9558 14.1118C16.8282 13.984 16.8282 13.7799 16.9558 13.652L23.2626 7.33337Z" fill="#88F387"/>
</svg>
