<svg width="16" height="16" viewBox="0 0 16 16" fill="none" xmlns="http://www.w3.org/2000/svg">
<path d="M14.0042 3.25H11.1052V2C11.1052 1.86739 11.0543 1.74021 10.9638 1.64645C10.8733 1.55268 10.7505 1.5 10.6224 1.5H4.82933C4.70129 1.5 4.5785 1.55268 4.48796 1.64645C4.39743 1.74021 4.34657 1.86739 4.34657 2V3.25H1.4476C1.31957 3.25 1.19678 3.30268 1.10624 3.39645C1.01571 3.49021 0.964844 3.61739 0.964844 3.75C0.964844 3.88261 1.01571 4.00979 1.10624 4.10355C1.19678 4.19732 1.31957 4.25 1.4476 4.25H1.95691L3.13243 14.1665C3.17197 14.5332 3.34061 14.8719 3.6061 15.1179C3.87158 15.3639 4.2153 15.4999 4.57153 15.5H10.8797C11.236 15.5 11.5798 15.3639 11.8454 15.1179C12.1109 14.8719 12.2797 14.5332 12.3193 14.1665L13.4948 4.25H14.0037C14.0671 4.25003 14.1298 4.23713 14.1884 4.21204C14.247 4.18694 14.3003 4.15014 14.3451 4.10373C14.39 4.05732 14.4255 4.00222 14.4498 3.94157C14.4741 3.88092 14.4866 3.81591 14.4867 3.75025C14.4867 3.68459 14.4742 3.61956 14.45 3.55889C14.4258 3.49821 14.3902 3.44308 14.3454 3.39662C14.3006 3.35017 14.2474 3.31331 14.1889 3.28816C14.1303 3.263 14.0675 3.25003 14.0042 3.25ZM5.31208 2.5H10.1397V3.25H5.31208V2.5ZM11.3601 14.0555C11.3469 14.1778 11.2907 14.2907 11.2021 14.3727C11.1136 14.4547 10.999 14.5 10.8802 14.5H4.57153C4.45276 14.5 4.33815 14.4547 4.24962 14.3727C4.16109 14.2907 4.10485 14.1778 4.09167 14.0555L2.92822 4.25H12.5235L11.3601 14.0555Z" fill="white"/>
<path d="M9.17309 12.841C9.30112 12.841 9.42391 12.7883 9.51445 12.6946C9.60498 12.6008 9.65585 12.4736 9.65585 12.341V6C9.65585 5.86739 9.60498 5.74021 9.51445 5.64645C9.42391 5.55268 9.30112 5.5 9.17309 5.5C9.04505 5.5 8.92226 5.55268 8.83172 5.64645C8.74119 5.74021 8.69033 5.86739 8.69033 6V12.341C8.69033 12.4736 8.74119 12.6008 8.83172 12.6946C8.92226 12.7883 9.04505 12.841 9.17309 12.841ZM6.51791 12.841C6.64595 12.841 6.76874 12.7883 6.85928 12.6946C6.94981 12.6008 7.00067 12.4736 7.00067 12.341V6C7.00067 5.86739 6.94981 5.74021 6.85928 5.64645C6.76874 5.55268 6.64595 5.5 6.51791 5.5C6.38988 5.5 6.26709 5.55268 6.17655 5.64645C6.08602 5.74021 6.03516 5.86739 6.03516 6V12.341C6.03516 12.4736 6.08602 12.6008 6.17655 12.6946C6.26709 12.7883 6.38988 12.841 6.51791 12.841Z" fill="white"/>
</svg>
