<svg width="60" height="60" viewBox="0 0 60 60" fill="none" xmlns="http://www.w3.org/2000/svg">
<path fill-rule="evenodd" clip-rule="evenodd" d="M14.9064 21.3917C13.2407 22.4148 11.6763 23.6188 10.244 24.9916C10.1674 25.067 10.1064 25.1568 10.0645 25.2558C10.0226 25.3549 10.0007 25.4612 10 25.5687C9.99931 25.6762 10.0198 25.7828 10.0604 25.8824C10.101 25.982 10.1608 26.0726 10.2364 26.149L13.1706 29.1111C13.4752 29.4157 13.9651 29.4182 14.2722 29.1187C15.7388 27.7246 17.3779 26.5524 19.1375 25.6228L14.9064 21.3917ZM22.0091 28.4944C20.1865 29.3039 18.4941 30.4147 17.0084 31.7966C16.9305 31.8719 16.8683 31.9621 16.8255 32.0617C16.7827 32.1614 16.7602 32.2685 16.7593 32.3769C16.7583 32.4854 16.779 32.5929 16.82 32.6933C16.861 32.7937 16.9216 32.8849 16.9982 32.9616L19.9274 35.9237C20.0728 36.0696 20.2696 36.1526 20.4756 36.155C20.6815 36.1574 20.8802 36.0789 21.0289 35.9364C22.6067 34.5074 24.5117 33.5175 26.5545 33.0399L22.0091 28.4944ZM38.1463 36.1463L28.9354 26.9355C29.0854 26.9317 29.2357 26.9299 29.3861 26.9299C33.9787 26.9299 38.4009 28.6687 41.7637 31.7966C41.8417 31.8719 41.9038 31.9621 41.9466 32.0617C41.9894 32.1614 42.0119 32.2685 42.0128 32.3769C42.0137 32.4854 41.9931 32.5929 41.9521 32.6933C41.9111 32.7936 41.8505 32.8848 41.7739 32.9616L38.8447 35.9262C38.6997 36.0725 38.503 36.156 38.2971 36.1588C38.2462 36.1595 38.1957 36.1553 38.1463 36.1463ZM30.1161 36.6014L34.1647 40.6501L29.9506 44.9021C29.877 44.9764 29.7894 45.0353 29.6929 45.0755C29.5964 45.1157 29.4929 45.1363 29.3884 45.1363C29.2838 45.1363 29.1803 45.1157 29.0839 45.0755C28.9874 45.0353 28.8998 44.9764 28.8262 44.9021L23.7548 39.7851C23.6772 39.709 23.6159 39.6179 23.5748 39.5173C23.5337 39.4167 23.5136 39.3088 23.5158 39.2002C23.5179 39.0915 23.5423 38.9845 23.5873 38.8856C23.6323 38.7867 23.6971 38.698 23.7776 38.6251C25.3458 37.2986 27.3332 36.5708 29.3871 36.5708C29.6312 36.5708 29.8744 36.5811 30.1161 36.6014ZM25.4401 23.4401L20.6994 18.6995C23.4763 17.7813 26.4052 17.3013 29.3822 17.3013C36.5146 17.3013 43.3712 20.0565 48.5205 24.9916C48.5971 25.067 48.6581 25.1568 48.7 25.2558C48.7418 25.3549 48.7637 25.4612 48.7645 25.5687C48.7652 25.6762 48.7446 25.7828 48.7041 25.8824C48.6635 25.982 48.6037 26.0726 48.5281 26.149L45.5939 29.1111C45.2918 29.4157 44.7994 29.4182 44.4923 29.1187C40.416 25.2436 35.0066 23.0828 29.3822 23.0828C28.0512 23.0829 26.7322 23.2039 25.4401 23.4401Z" fill="white"/>
<path d="M13.7578 16.0005L39.7578 42.0005" stroke="white" stroke-width="2" stroke-linecap="round"/>
</svg>
