<?xml version="1.0" encoding="utf-8"?>
<!-- Generator: Adobe Illustrator 27.2.0, SVG Export Plug-In . SVG Version: 6.00 Build 0)  -->
<svg version="1.1" id="Layer_1" xmlns="http://www.w3.org/2000/svg" xmlns:xlink="http://www.w3.org/1999/xlink" x="0px" y="0px"
	 width="16px" height="16px" viewBox="0 0 16 16" style="enable-background:new 0 0 16 16;" xml:space="preserve">
<g>
	<path fill = "#62D361" d="M9,12H7c-0.5522847,0-1-0.4477148-1-1V5c0-0.5522847,0.4477153-1,1-1h2c0.5522852,0,1,0.4477153,1,1v6
		C10,11.5522852,9.5522852,12,9,12z"/>
</g>
<g>
	<path fill="none" stroke="#808080" stroke-linecap="round" stroke-miterlimit="10" d="M1.5,6.5h2v-3c0-1.1045694,0.8954306-2,2-2h5c1.1045694,0,2,0.8954306,2,2v3h2"/>
</g>
<g>
	<path fill="none" stroke="#808080" stroke-linecap="round" stroke-miterlimit="10" d="M1.5,9.5h2v3c0,1.1045694,0.8954306,2,2,2h5c1.1045694,0,2-0.8954306,2-2v-3h2"/>
</g>
</svg>
