<svg width="16" height="16" viewBox="0 0 16 16" fill="none" xmlns="http://www.w3.org/2000/svg">
<g opacity="0.8">
<path d="M15.5 8C15.5 9.14611 14.7553 10.2594 13.3919 11.1115C12.0354 11.9593 10.1304 12.5 8 12.5C5.86958 12.5 3.96457 11.9593 2.60815 11.1115C1.24467 10.2594 0.5 9.14611 0.5 8C0.5 6.85389 1.24467 5.74064 2.60815 4.88847C3.96457 4.0407 5.86958 3.5 8 3.5C10.1304 3.5 12.0354 4.0407 13.3919 4.88847C14.7553 5.74064 15.5 6.85389 15.5 8Z" stroke="white"/>
<path d="M10.5 8C10.5 9.38071 9.38071 10.5 8 10.5C6.61929 10.5 5.5 9.38071 5.5 8C5.5 6.61929 6.61929 5.5 8 5.5C9.38071 5.5 10.5 6.61929 10.5 8Z" stroke="white"/>
</g>
</svg>
