<svg width="16" height="16" viewBox="0 0 16 16" fill="none" xmlns="http://www.w3.org/2000/svg">
<path fill-rule="evenodd" clip-rule="evenodd" d="M3 3V6H6V3H3ZM2.5 2C2.22386 2 2 2.22386 2 2.5V6.5C2 6.77614 2.22386 7 2.5 7H6.5C6.77614 7 7 6.77614 7 6.5V2.5C7 2.22386 6.77614 2 6.5 2H2.5Z" fill="white"/>
<path fill-rule="evenodd" clip-rule="evenodd" d="M3 10V13H6V10H3ZM2.5 9C2.22386 9 2 9.22386 2 9.5V13.5C2 13.7761 2.22386 14 2.5 14H6.5C6.77614 14 7 13.7761 7 13.5V9.5C7 9.22386 6.77614 9 6.5 9H2.5Z" fill="white"/>
<path fill-rule="evenodd" clip-rule="evenodd" d="M10 3V6H13V3H10ZM9.5 2C9.22386 2 9 2.22386 9 2.5V6.5C9 6.77614 9.22386 7 9.5 7H13.5C13.7761 7 14 6.77614 14 6.5V2.5C14 2.22386 13.7761 2 13.5 2H9.5Z" fill="white"/>
<path fill-rule="evenodd" clip-rule="evenodd" d="M10 10V13H13V10H10ZM9.5 9C9.22386 9 9 9.22386 9 9.5V13.5C9 13.7761 9.22386 14 9.5 14H13.5C13.7761 14 14 13.7761 14 13.5V9.5C14 9.22386 13.7761 9 13.5 9H9.5Z" fill="white"/>
</svg>
