<svg width="46" height="46" viewBox="0 0 46 46" fill="none" xmlns="http://www.w3.org/2000/svg">
<path fill-rule="evenodd" clip-rule="evenodd" d="M14.5 26.5V31.5H31.5V26.5H14.5ZM13.5 25C13.2239 25 13 25.2239 13 25.5V32.5C13 32.7761 13.2239 33 13.5 33H32.5C32.7761 33 33 32.7761 33 32.5V25.5C33 25.2239 32.7761 25 32.5 25H13.5Z" fill="#62D361"/>
<path fill-rule="evenodd" clip-rule="evenodd" d="M14.5 19.5V22.5H31.5V19.5H14.5ZM13.5 18C13.2239 18 13 18.2239 13 18.5V23.5C13 23.7761 13.2239 24 13.5 24H32.5C32.7761 24 33 23.7761 33 23.5V18.5C33 18.2239 32.7761 18 32.5 18H13.5Z" fill="#62D361"/>
<path fill-rule="evenodd" clip-rule="evenodd" d="M14.5 14.5V15.5H31.5V14.5H14.5ZM13.5 13C13.2239 13 13 13.2239 13 13.5V16.5C13 16.7761 13.2239 17 13.5 17H32.5C32.7761 17 33 16.7761 33 16.5V13.5C33 13.2239 32.7761 13 32.5 13H13.5Z" fill="#62D361"/>
</svg>
