<svg id="Layer_1" data-name="Layer 1" xmlns="http://www.w3.org/2000/svg" width="96" height="96" viewBox="0 0 96 96">
  <rect id="rect4805" x="11.7" y="81.8" width="73.6" height="9.6" style="fill: #c1be63"/>
  <polyline points="29.9 53.6 34.5 44.8 43.9 44.7 43.9 33.1 38.9 33.1 38.9 6.2 17 6.2 17 33.2 11.6 33.2 11.6 44.7 21 44.7 25.6 53.6" style="fill: #fff"/>
  <polyline points="68 73.2 73.3 63.3 84 63.2 84 50 78.3 50 78.3 19.7 53.3 19.7 53.3 50.2 47.1 50.2 47.1 63.2 57.9 63.2 63.1 73.2" style="fill: #62D361"/>
  <g>
    <path d="M32.3,62.6c4.5,5.9,10.4,7.8,18.5,8.4" style="fill: none;stroke: #fff;stroke-miterlimit: 10;stroke-width: 2.8346456692913384px"/>
    <polygon points="28.9 66.3 28.8 56.4 37.4 61.2 28.9 66.3" style="fill: #fff"/>
    <polygon points="49.2 75.8 57.9 71.2 49.6 65.9 49.2 75.8" style="fill: #fff"/>
  </g>
</svg>
