<svg id="Layer_1" data-name="Layer 1" xmlns="http://www.w3.org/2000/svg" width="96" height="96" viewBox="0 0 96 96">
  <rect id="rect4805" x="11.7" y="81.8" width="73.6" height="9.56" style="fill: #e2d243"/>
  <g>
    <path d="M38.1,25c-5.6,5.6-3.5,15.9,3.9,18.7.8.3.9.5-.7,1.9C26.6,58.2,29.4,62,21.5,51.7c-2.5-3.3,4-4.8,3-7.1a17,17,0,0,1-1.8-4.4c-.1-.4-.2-.5-.7-.5-2.6-.1-6.5,1.1-6.6-2.9a45.7,45.7,0,0,0,0-7.4c-.1-1.8.8-3.5,2.8-3.3s4.3,1,4.8-1.2a14,14,0,0,1,1.6-3.8,1,1,0,0,0-.3-1.4c-1.4-1.6-4.9-3.6-2.5-5.9l6.1-6.1a2.1,2.1,0,0,1,3.3,0c4.8,5.1,2.6,2.3,8.1,1.1,1.4-.3,1.3-.9,1.2-1.9a18.6,18.6,0,0,1-.4-3.4c.6-2.8,3.8-1.9,5.9-2h5.3c1.7,0,2.4.7,2.5,2.5s-.8,3.7,1.8,5,3.5,2.6,4.9.8S63.9,5.5,66,7.6l6.3,6.3c.5.4.4.8-.1,1.2L59,28.3c-.7.7-.9.2-1.2-.3C55,20.8,44.2,18.6,39,24.1" style="fill: #62D361"/>
    <path d="M78.9,18.8c1.7.1,8.5,7.4,10.1,9.2a1.7,1.7,0,0,1,0,2.4c-1.6,1.7-3.4,3.4-5.1,5.1a.7.7,0,0,1-1.1,0L72.5,25.2c-.4-.5-.3-.7.3-1.3s2.8-2.8,4.1-4.1A2.8,2.8,0,0,1,78.9,18.8Z" style="fill: #fff"/>
    <path d="M45.7,73.7h0c-1.6,1.2-3.5,1.2-5.3,1.7l-5.6,1.3c-2.1.4-2.9.3-3.7-1.4a1.3,1.3,0,0,1-.1-.6c.8-3.6,1.5-7.2,2.4-10.8.5-1.8,2.2-2.7,3.4-4s.6,0,.9.2L47.8,70.3a.8.8,0,0,1,.4.9" style="fill: #fff"/>
    <path d="M78.2,39.4a1.1,1.1,0,0,1,0,1.5c-7.9,8.5-16.6,16.5-24.7,24.9-.6.6-1,.7-1.6,0l-9.8-9.7a1.2,1.2,0,0,1,0-1.6c8.4-8.3,16.7-16.7,25-25,.4-.4.7-.5,1.2,0C71.5,32.8,74.9,36,78.2,39.4Z" style="fill: #fff"/>
  </g>
</svg>
