<?xml version="1.0" encoding="UTF-8" standalone="no"?>
<!-- Generator: Adobe Illustrator 18.0.0, SVG Export Plug-In . SVG Version: 6.00 Build 0)  -->

<svg
   version="1.1"
   id="Capa_1"
   x="0px"
   y="0px"
   viewBox="0 0 348.882 348.882"
   style="enable-background:new 0 0 348.882 348.882;"
   xml:space="preserve"
   sodipodi:docname="legend_retract.svg"
   inkscape:version="1.1 (c68e22c387, 2021-05-23)"
   xmlns:inkscape="http://www.inkscape.org/namespaces/inkscape"
   xmlns:sodipodi="http://sodipodi.sourceforge.net/DTD/sodipodi-0.dtd"
   xmlns="http://www.w3.org/2000/svg"
   xmlns:svg="http://www.w3.org/2000/svg"><defs
   id="defs209">
	
	
</defs><sodipodi:namedview
   id="namedview207"
   pagecolor="#505050"
   bordercolor="#eeeeee"
   borderopacity="1"
   inkscape:pageshadow="0"
   inkscape:pageopacity="0"
   inkscape:pagecheckerboard="0"
   showgrid="false"
   inkscape:zoom="1.6457448"
   inkscape:cx="174.08531"
   inkscape:cy="175.30057"
   inkscape:window-width="1920"
   inkscape:window-height="1001"
   inkscape:window-x="-9"
   inkscape:window-y="-9"
   inkscape:window-maximized="1"
   inkscape:current-layer="Capa_1" />

<g
   id="g176">
</g>
<g
   id="g178">
</g>
<g
   id="g180">
</g>
<g
   id="g182">
</g>
<g
   id="g184">
</g>
<g
   id="g186">
</g>
<g
   id="g188">
</g>
<g
   id="g190">
</g>
<g
   id="g192">
</g>
<g
   id="g194">
</g>
<g
   id="g196">
</g>
<g
   id="g198">
</g>
<g
   id="g200">
</g>
<g
   id="g202">
</g>
<g
   id="g204">
</g>
<g
   id="g5653"
   transform="matrix(1,0,0,-1,0,302.59856)"
   style="stroke:#62D361;stroke-opacity:1;fill:#62D361;fill-opacity:1;stroke-width:4;stroke-miterlimit:4;stroke-dasharray:none"><path
     d="m 168.35743,271.22732 a 7.3770678,7.3770678 0 0 0 2.35439,5.49356 7.5340268,7.5340268 0 0 0 10.98712,0 l 92.13487,-91.82095 a 7.5340268,7.5340268 0 0 0 0,-10.98712 7.5340268,7.5340268 0 0 0 -10.98712,0 l -92.13487,91.82095 a 7.3770678,7.3770678 0 0 0 -2.35439,5.49356 z"
     fill="#333333"
     id="path3790"
     style="fill:#62D361;fill-opacity:1;stroke-width:4;stroke:#62D361;stroke-opacity:1;stroke-miterlimit:4;stroke-dasharray:none" /><path
     d="m 76.222558,179.09246 a 7.3770678,7.3770678 0 0 0 2.354394,5.80747 l 92.134868,91.82095 a 7.5340268,7.5340268 0 0 0 10.98712,0 7.5340268,7.5340268 0 0 0 0,-10.98712 L 89.564071,173.59889 a 7.5340268,7.5340268 0 0 0 -10.987119,0 7.3770678,7.3770678 0 0 0 -2.354394,5.49357 z m 92.134872,18.20723 a 8.0049033,8.0049033 0 0 0 2.35439,5.65052 7.8479445,7.8479445 0 0 0 10.98712,0 l 92.13487,-92.29183 a 7.5340268,7.5340268 0 0 0 0,-10.987123 7.5340268,7.5340268 0 0 0 -10.98712,0 l -92.13487,92.134873 a 7.6909855,7.6909855 0 0 0 -2.35439,5.49356 z"
     fill="#333333"
     id="path3792"
     style="fill:#62D361;fill-opacity:1;stroke-width:4;stroke:#62D361;stroke-opacity:1;stroke-miterlimit:4;stroke-dasharray:none" /><path
     d="m 76.222558,105.16482 a 7.3770678,7.3770678 0 0 0 2.354394,5.49356 l 92.134868,92.29183 a 7.8479445,7.8479445 0 0 0 10.98712,0 7.8479445,7.8479445 0 0 0 0,-11.14408 L 89.564071,99.671257 a 7.8479445,7.8479445 0 0 0 -13.341513,5.493563 z m 92.134872,18.20723 a 8.0049033,8.0049033 0 0 0 2.35439,5.65052 7.8479445,7.8479445 0 0 0 10.98712,0 l 92.13487,-92.134866 a 7.8479445,7.8479445 0 0 0 0,-11.144082 7.8479445,7.8479445 0 0 0 -10.98712,0 l -92.13487,92.134868 a 7.8479445,7.8479445 0 0 0 -2.35439,5.49356 z"
     fill="#333333"
     id="path3794"
     style="fill:#62D361;fill-opacity:1;stroke-width:4;stroke:#62D361;stroke-opacity:1;stroke-miterlimit:4;stroke-dasharray:none" /><path
     d="m 76.222558,31.237177 a 8.0049033,8.0049033 0 0 0 2.354394,5.650527 l 92.134868,92.134866 a 7.8479445,7.8479445 0 0 0 10.98712,0 7.8479445,7.8479445 0 0 0 0,-11.14408 L 89.564071,25.743622 a 7.8479445,7.8479445 0 0 0 -13.341513,5.493555 z"
     fill="#333333"
     id="path3796"
     style="fill:#62D361;fill-opacity:1;stroke-width:4;stroke:#62D361;stroke-opacity:1;stroke-miterlimit:4;stroke-dasharray:none" /></g><rect
   style="fill:#cd22d6;fill-opacity:1"
   id="rect4805"
   width="280.72397"
   height="36.457657"
   x="34.634773"
   y="295.91464" /></svg>
