<svg width="46" height="46" viewBox="0 0 46 46" fill="none" xmlns="http://www.w3.org/2000/svg">
<path d="M33.3003 22.0245C32.8123 16.783 28.3669 12.6797 22.9986 12.6797C17.304 12.6797 12.6875 17.2968 12.6875 22.9922C12.6875 28.6875 17.304 33.3047 22.9986 33.3047C23.9323 33.3047 24.6889 32.5478 24.6889 31.6142C24.6889 30.9218 24.2709 30.3251 23.6747 30.0648C23.27 29.8058 22.9986 29.3551 22.9986 28.8415C22.9986 28.0419 23.6528 27.3877 24.4523 27.3877H28.653V27.3837C31.1177 27.3444 33.1281 25.4228 33.3003 22.9922C33.3003 22.9167 33.3019 22.8421 33.3003 22.7668C33.3012 22.7291 33.3003 22.692 33.3003 22.654C33.3003 22.4402 33.3277 22.2309 33.3003 22.0245V22.0245ZM16.7458 23.3303C15.7189 23.3303 14.8863 22.4977 14.8863 21.4706C14.8863 20.4435 15.7189 19.6109 16.7458 19.6109C17.7726 19.6109 18.605 20.4435 18.605 21.4706C18.605 22.4977 17.7726 23.3303 16.7458 23.3303ZM20.1266 18.5967C19.0997 18.5967 18.2671 17.7641 18.2671 16.737C18.2671 15.7099 19.0994 14.8773 20.1266 14.8773C21.1537 14.8773 21.986 15.7099 21.986 16.737C21.986 17.7641 21.1534 18.5967 20.1266 18.5967V18.5967ZM25.8737 18.5967C24.8468 18.5967 24.0142 17.7641 24.0142 16.737C24.0142 15.7099 24.8466 14.8773 25.8737 14.8773C26.9008 14.8773 27.7332 15.7099 27.7332 16.737C27.7332 17.7641 26.9006 18.5967 25.8737 18.5967ZM29.2543 23.3303C28.2274 23.3303 27.3948 22.4977 27.3948 21.4706C27.3948 20.4435 28.2272 19.6109 29.2543 19.6109C30.2814 19.6109 31.1138 20.4435 31.1138 21.4706C31.1138 22.4977 30.2812 23.3303 29.2543 23.3303Z" fill="#62D361"/>
</svg>
