<svg width="46" height="46" viewBox="0 0 46 46" fill="none" xmlns="http://www.w3.org/2000/svg">
<path d="M11.3536 23.3542C11.1583 23.1589 11.1583 22.8423 11.3536 22.6471L15.1464 18.8542C15.4614 18.5392 16 18.7623 16 19.2077L16 26.7935C16 27.239 15.4614 27.462 15.1464 27.1471L11.3536 23.3542Z" fill="#62D361"/>
<path d="M22.6464 11.3532C22.8417 11.1579 23.1583 11.1579 23.3536 11.3532L27.1464 15.1461C27.4614 15.4611 27.2383 15.9996 26.7929 15.9996H19.2071C18.7617 15.9996 18.5386 15.4611 18.8536 15.1461L22.6464 11.3532Z" fill="#62D361"/>
<path d="M34.6464 22.6461C34.8417 22.8413 34.8417 23.1579 34.6464 23.3532L30.8536 27.1461C30.5386 27.4611 30 27.238 30 26.7925L30 19.2067C30 18.7613 30.5386 18.5382 30.8536 18.8532L34.6464 22.6461Z" fill="#62D361"/>
<path d="M23.3536 34.6461C23.1583 34.8413 22.8417 34.8413 22.6464 34.6461L18.8536 30.8532C18.5386 30.5382 18.7617 29.9996 19.2071 29.9996L26.7929 29.9996C27.2383 29.9996 27.4614 30.5382 27.1464 30.8532L23.3536 34.6461Z" fill="#62D361"/>
<path d="M23 14.9996V29.9996" stroke="#62D361" stroke-width="1.5"/>
<path d="M31 22.9996L16 22.9996" stroke="#62D361" stroke-width="1.5"/>
</svg>
