<?xml version="1.0" encoding="UTF-8" standalone="no"?>
<svg
   xmlns:dc="http://purl.org/dc/elements/1.1/"
   xmlns:cc="http://creativecommons.org/ns#"
   xmlns:rdf="http://www.w3.org/1999/02/22-rdf-syntax-ns#"
   xmlns:svg="http://www.w3.org/2000/svg"
   xmlns="http://www.w3.org/2000/svg"
   xmlns:sodipodi="http://sodipodi.sourceforge.net/DTD/sodipodi-0.dtd"
   xmlns:inkscape="http://www.inkscape.org/namespaces/inkscape"
   version="1.1"
   id="Layer_1"
   x="0px"
   y="0px"
   viewBox="0 0 800 800"
   style="enable-background:new 0 0 800 800;"
   xml:space="preserve"
   sodipodi:docname="notification_play_hover.svg"
   inkscape:version="1.0 (4035a4fb49, 2020-05-01)"><metadata
   id="metadata15"><rdf:RDF><cc:Work
       rdf:about=""><dc:format>image/svg+xml</dc:format><dc:type
         rdf:resource="http://purl.org/dc/dcmitype/StillImage" /><dc:title></dc:title></cc:Work></rdf:RDF></metadata><defs
   id="defs13" /><sodipodi:namedview
   inkscape:document-rotation="0"
   pagecolor="#ffffff"
   bordercolor="#666666"
   borderopacity="1"
   objecttolerance="10"
   gridtolerance="10"
   guidetolerance="10"
   inkscape:pageopacity="0"
   inkscape:pageshadow="2"
   inkscape:window-width="2560"
   inkscape:window-height="1369"
   id="namedview11"
   showgrid="false"
   inkscape:zoom="0.89095455"
   inkscape:cx="422.22291"
   inkscape:cy="611.44958"
   inkscape:window-x="-8"
   inkscape:window-y="-8"
   inkscape:window-maximized="1"
   inkscape:current-layer="Layer_1" />
<style
   type="text/css"
   id="style2">
	.st0{fill:#62D361;}
</style>

<path
   style="stroke-width:0.9775"
   class="st0"
   d="M 511.41243,400.15312 332.8232,534.65714 v -268.8125 l 178.58923,134.3085 m 76.63599,0 c 0,-7.038 -3.128,-13.97825 -9.38399,-18.67025 L 314.73946,182.95262 c -15.4445,-11.63225 -37.43825,-0.5865 -37.43825,18.67025 v 397.15827 c 0,19.25675 21.99375,30.3025 37.43825,18.67025 L 578.66443,418.72564 c 6.256,-4.59425 9.384,-11.5345 9.38399,-18.5725 z"
   id="path6" />
<g
   id="g4"
   transform="matrix(1.124125,0,0,1.124125,1.6564125,1.6571725)">
	<path
   id="path2"
   class="st0"
   d="M 597.2,701.3 H 110.6 C 53.2,701.3 6.5,654.6 6.5,597.2 V 110.6 C 6.5,53.2 53.2,6.5 110.6,6.5 h 486.6 c 57.4,0 104.1,46.7 104.1,104.1 v 486.6 c 0,57.4 -46.7,104.1 -104.1,104.1 z M 110.6,52.4 c -32,0 -58.2,26 -58.2,58.2 v 486.6 c 0,32 26,58.2 58.2,58.2 h 486.6 c 32,0 58.2,-26 58.2,-58.2 V 110.6 c 0,-32 -26,-58.2 -58.2,-58.2 z" />
</g>
<path
   style="fill:#62D361;fill-opacity:1;stroke-width:0.77579"
   d="M 113.38564,788.89156 C 99.043182,787.28541 82.717759,782.05837 69.865945,774.95735 49.44819,763.67591 31.031768,744.26405 21.085096,723.53981 14.202277,709.19919 11.01082,696.68206 9.7898876,679.23893 9.2371746,671.34268 9.0533586,578.69885 9.2179926,391.03158 9.4429326,134.71928 9.5571736,113.94803 10.778267,107.45586 15.648402,81.562898 26.510428,60.742723 44.359325,43.088136 60.732967,26.892755 81.111795,16.145982 104.85191,11.187366 111.61267,9.7752352 120.95992,9.7290052 399.65349,9.7290052 h 287.81945 l 8.14584,1.7957248 c 24.50291,5.401642 42.43886,15.198492 59.75461,32.638725 16.88045,17.001847 26.67218,34.902931 31.92544,58.365595 l 1.80308,8.05311 v 288.59527 c 0,279.13094 -0.0483,288.82419 -1.45394,295.57737 -10.70179,51.3939 -51.96805,89.04853 -103.219,94.18535 -10.55582,1.058 -561.58037,1.01113 -571.04333,-0.0489 z m 577.54837,-52.48601 c 22.92898,-7.10511 39.89603,-24.63868 46.00129,-47.53728 l 1.74002,-6.52614 V 399.5653 116.78851 l -1.75458,-6.59421 c -6.51231,-24.475359 -24.62817,-42.432448 -48.53586,-48.110527 -6.48559,-1.54031 -8.8093,-1.55112 -291.1564,-1.352538 l -284.61863,0.2001 -5.43056,1.834595 c -20.768214,7.016081 -36.491221,22.125126 -43.115566,41.43196 -1.204763,3.51135 -2.554472,8.65343 -2.999361,11.42688 -0.550367,3.43115 -0.81075,94.20659 -0.814729,284.04875 -0.0046,250.86233 0.11753,279.66032 1.218034,285.49204 4.912478,26.03373 25.579979,46.99352 51.530072,52.25889 4.12675,0.83732 56.54428,1.00061 288.59524,0.89895 l 283.55258,-0.12419 z"
   id="path17" /><path
   style="fill:#62D361;fill-opacity:1;stroke-width:0.77579"
   d="m 280.30386,191.19243 c 2.37409,-4.75097 5.55479,-7.89928 10.82054,-10.7103 3.95194,-2.10968 14.74308,-2.06245 19.00695,0.0833 3.70763,1.86576 267.63214,200.29982 271.15865,203.87315 3.86132,3.91253 5.61571,8.05138 6.017,14.19473 0.31244,4.78285 0.0826,6.12851 -1.74087,10.19167 -1.15541,2.57469 -3.2054,5.71943 -4.55548,6.98834 -4.9287,4.63234 -267.11707,201.54691 -270.87758,203.44052 -5.35739,2.69772 -13.91787,2.74574 -19.00867,0.10672 -4.45609,-2.3101 -8.97619,-6.60503 -11.12083,-10.56691 l -1.6798,-3.10319 -0.19964,-204.86813 -0.19964,-204.8681 z M 332.8233,534.6697 c 1.15403,-0.0704 178.2386,-133.96091 178.2386,-134.76314 0,-0.81862 -177.12982,-134.37525 -178.2386,-134.39266 -0.32001,-0.005 -0.58185,60.56094 -0.58185,134.59104 0,74.03011 0.26184,134.58427 0.58185,134.56476 z"
   id="path19" /><path
   id="path6-2"
   d="M 511.41243,400.15311 332.8232,534.65713 v -268.8125 l 178.58923,134.3085 m 76.63599,0 c 0,-7.038 -3.128,-13.97825 -9.38399,-18.67025 L 314.73946,182.95261 c -15.4445,-11.63225 -37.43825,-0.5865 -37.43825,18.67025 v 397.15827 c 0,19.25675 21.99375,30.3025 37.43825,18.67025 L 578.66443,418.72563 c 6.256,-4.59425 9.384,-11.5345 9.38399,-18.5725 z"
   class="st0"
   style="fill:#62D361;stroke-width:0.9775" /><path
   id="path19-3"
   d="m 280.30386,191.19242 c 2.37409,-4.75097 5.55479,-7.89928 10.82054,-10.7103 3.95194,-2.10968 14.74308,-2.06245 19.00695,0.0833 3.70763,1.86576 267.63214,200.29982 271.15865,203.87315 3.86132,3.91253 5.61571,8.05138 6.017,14.19473 0.31244,4.78285 0.0826,6.12851 -1.74087,10.19167 -1.15541,2.57469 -3.2054,5.71943 -4.55548,6.98834 -4.9287,4.63234 -267.11707,201.54691 -270.87758,203.44052 -5.35739,2.69772 -13.91787,2.74574 -19.00867,0.10672 -4.45609,-2.3101 -8.97619,-6.60503 -11.12083,-10.56691 l -1.6798,-3.10319 -0.19964,-204.86813 -0.19964,-204.8681 z m 52.51944,343.47727 c 1.15403,-0.0704 178.2386,-133.96091 178.2386,-134.76314 0,-0.81862 -177.12982,-134.37525 -178.2386,-134.39266 -0.32001,-0.005 -0.58185,60.56094 -0.58185,134.59104 0,74.03011 0.26184,134.58427 0.58185,134.56476 z"
   style="fill:#62D361;fill-opacity:1;stroke-width:0.77579" /></svg>
