<?xml version="1.0" encoding="UTF-8" standalone="no"?>
<svg
   xmlns:dc="http://purl.org/dc/elements/1.1/"
   xmlns:cc="http://creativecommons.org/ns#"
   xmlns:rdf="http://www.w3.org/1999/02/22-rdf-syntax-ns#"
   xmlns:svg="http://www.w3.org/2000/svg"
   xmlns="http://www.w3.org/2000/svg"
   xmlns:sodipodi="http://sodipodi.sourceforge.net/DTD/sodipodi-0.dtd"
   xmlns:inkscape="http://www.inkscape.org/namespaces/inkscape"
   version="1.0"
   id="close_window"
   x="0px"
   y="0px"
   viewBox="0 0 100 100"
   enable-background="new 0 0 100 100"
   xml:space="preserve"
   sodipodi:docname="notification_open_hover.svg"
   inkscape:version="1.0 (4035a4fb49, 2020-05-01)"><metadata
   id="metadata19"><rdf:RDF><cc:Work
       rdf:about=""><dc:format>image/svg+xml</dc:format><dc:type
         rdf:resource="http://purl.org/dc/dcmitype/StillImage" /><dc:title></dc:title></cc:Work></rdf:RDF></metadata><defs
   id="defs17" /><sodipodi:namedview
   inkscape:document-rotation="0"
   pagecolor="#ffffff"
   bordercolor="#666666"
   borderopacity="1"
   objecttolerance="10"
   gridtolerance="10"
   guidetolerance="10"
   inkscape:pageopacity="0"
   inkscape:pageshadow="2"
   inkscape:window-width="2560"
   inkscape:window-height="1369"
   id="namedview15"
   showgrid="false"
   inkscape:zoom="10.08"
   inkscape:cx="50"
   inkscape:cy="50"
   inkscape:window-x="-8"
   inkscape:window-y="-8"
   inkscape:window-maximized="1"
   inkscape:current-layer="close_window" />
<g
   transform="matrix(1.15,0,0,1.15,-7.50075,-7.5)"
   id="g4">
	<path
   fill="#62D361"
   d="M 80,92.83 H 20 C 12.92,92.83 7.17,87.07 7.17,79.99 V 20 C 7.17,12.92 12.93,7.17 20,7.17 h 60 c 7.08,0 12.84,5.76 12.84,12.83 V 80 C 92.83,87.08 87.08,92.83 80,92.83 Z m -60,-80 c -3.95,0 -7.17,3.21 -7.17,7.17 v 60 c 0,3.95 3.21,7.17 7.17,7.17 h 60 c 3.95,0 7.17,-3.21 7.17,-7.17 V 20 c 0,-3.95 -3.21,-7.17 -7.17,-7.17 z"
   id="path2" />
</g>


<g
   id="open"
   transform="matrix(4.6575,0,0,4.6575,10.313937,10.113631)"
   style="fill:#62D361;fill-opacity:1"><path
     id="path2-7"
     d="M 1.22,14 V 3 c 0,0 0,-1 1,-1 1,0 4,0 5,0 1,0 1,2 2,2 1,0 4,0 4,0 0,0 1,0 1,1 v 2 h -1 c 0,0 0,0 0,-1 0,-1 -1,-1 -1,-1 h -3.5 c -1,0 -1,-2 -2,-2 -1,0 -3.5,0 -3.5,0 -1,0 -1,1 -1,1 v 9 1 h 1 v 1 c 0,0 0,0 -1,0 -1,0 -1,-1 -1,-1 z"
     fill="#808080"
     style="fill:#62D361;fill-opacity:1" /><path
     id="path4"
     d="M 5,6 C 4.45,6 3.86,6.43 3.68,6.95 l -2.37,7.1 C 1.14,14.57 1.45,15 2,15 h 10 c 0.55,0 1.14,-0.43 1.32,-0.95 l 2.37,-7.1 C 15.86,6.43 15.55,6 15,6 Z"
     fill="#62D361"
     style="fill:#62D361;fill-opacity:1" /></g></svg>
