<?xml version="1.0" encoding="UTF-8" standalone="no"?>
<svg
   xmlns:dc="http://purl.org/dc/elements/1.1/"
   xmlns:cc="http://creativecommons.org/ns#"
   xmlns:rdf="http://www.w3.org/1999/02/22-rdf-syntax-ns#"
   xmlns:svg="http://www.w3.org/2000/svg"
   xmlns="http://www.w3.org/2000/svg"
   xmlns:sodipodi="http://sodipodi.sourceforge.net/DTD/sodipodi-0.dtd"
   xmlns:inkscape="http://www.inkscape.org/namespaces/inkscape"
   version="1.1"
   id="Layer_1"
   x="0px"
   y="0px"
   viewBox="0 0 800 800"
   style="enable-background:new 0 0 800 800;"
   xml:space="preserve"
   sodipodi:docname="notification_pause_hover.svg"
   inkscape:version="1.0 (4035a4fb49, 2020-05-01)"><metadata
   id="metadata15"><rdf:RDF><cc:Work
       rdf:about=""><dc:format>image/svg+xml</dc:format><dc:type
         rdf:resource="http://purl.org/dc/dcmitype/StillImage" /><dc:title></dc:title></cc:Work></rdf:RDF></metadata><defs
   id="defs13" /><sodipodi:namedview
   inkscape:document-rotation="0"
   pagecolor="#ffffff"
   bordercolor="#666666"
   borderopacity="1"
   objecttolerance="10"
   gridtolerance="10"
   guidetolerance="10"
   inkscape:pageopacity="0"
   inkscape:pageshadow="2"
   inkscape:window-width="2560"
   inkscape:window-height="1369"
   id="namedview11"
   showgrid="false"
   inkscape:zoom="1.26"
   inkscape:cx="400"
   inkscape:cy="459.92063"
   inkscape:window-x="-8"
   inkscape:window-y="-8"
   inkscape:window-maximized="1"
   inkscape:current-layer="Layer_1" />
<style
   type="text/css"
   id="style2">
	.st0{fill:#62D361;}
</style>
<path
   style="stroke-width:0.9775"
   class="st0"
   d="M 322.50986,587.14728 H 252.61861 V 206.99753 h 69.89125 v 380.14975 m 55.42424,32.062 v -444.176 c 0,-12.903 -10.45925,-23.36225 -23.36225,-23.36225 H 220.55661 c -12.903,0 -23.36225,10.45925 -23.36225,23.36225 v 444.176 c 0,12.903 10.45925,23.36225 23.36225,23.36225 H 354.4741 c 12.90301,0 23.46,-10.45925 23.46,-23.36225 z"
   id="path4" />

<g
   id="g4"
   transform="matrix(1.124125,0,0,1.124125,1.6564125,1.6571625)">
	<path
   id="path2"
   class="st0"
   d="M 597.2,701.3 H 110.6 C 53.2,701.3 6.5,654.6 6.5,597.2 V 110.6 C 6.5,53.2 53.2,6.5 110.6,6.5 h 486.6 c 57.4,0 104.1,46.7 104.1,104.1 v 486.6 c 0,57.4 -46.7,104.1 -104.1,104.1 z M 110.6,52.4 c -32,0 -58.2,26 -58.2,58.2 v 486.6 c 0,32 26,58.2 58.2,58.2 h 486.6 c 32,0 58.2,-26 58.2,-58.2 V 110.6 c 0,-32 -26,-58.2 -58.2,-58.2 z" />
</g>
<path
   style="fill:#62D361;fill-opacity:1;stroke-width:0.775793"
   d="M 113.38564,788.89154 C 99.043181,787.28541 82.717758,782.05833 69.865944,774.95732 49.44821,763.67591 31.031774,744.26404 21.085102,723.5398 14.202281,709.19918 11.01084,696.68205 9.7898958,679.23893 9.2371943,671.34269 9.0533622,578.69885 9.2180135,391.03159 9.4428891,134.71928 9.5571749,113.94803 10.778267,107.45586 15.648402,81.5629 26.510428,60.742725 44.359337,43.088132 60.732966,26.892769 81.111783,16.146 104.85191,11.187372 111.61267,9.7752445 120.95992,9.7290042 399.65349,9.7290042 h 287.81945 l 8.14584,1.7957388 c 24.50291,5.401636 42.43886,15.198483 59.7546,32.638727 16.88044,17.001834 26.67218,34.902929 31.92543,58.36559 l 1.8031,8.05311 v 288.59525 c 0,279.13094 -0.0481,288.82421 -1.45392,295.57737 -10.70181,51.39389 -51.96808,89.04855 -103.21901,94.18532 -10.55583,1.05803 -561.58037,1.01116 -571.04334,-0.0489 z m 577.54838,-52.48599 c 22.92898,-7.10509 39.89603,-24.63867 46.00128,-47.53726 l 1.74002,-6.52619 V 399.5653 116.78853 l -1.75457,-6.59424 c -6.51231,-24.475359 -24.62817,-42.432448 -48.53586,-48.110516 -6.4856,-1.540321 -8.8093,-1.55112 -291.1564,-1.352549 l -284.61864,0.200157 -5.43056,1.834595 c -20.768215,7.01607 -36.491222,22.125115 -43.115567,41.431973 -1.204763,3.51133 -2.554472,8.65343 -2.99935,11.42688 -0.550378,3.43114 -0.81075,94.20657 -0.81474,284.04872 -0.0058,250.86235 0.117599,279.66034 1.218034,285.49207 4.912478,26.03372 25.579979,46.99351 51.530083,52.25887 4.12675,0.83733 56.54427,1.00061 288.59523,0.89897 l 283.55259,-0.12421 z"
   id="path17" /><path
   style="fill:#62D361;fill-opacity:1;stroke-width:0.775793"
   d="m 198.47436,169.38465 c 1.27074,-4.69513 3.80549,-8.66084 7.62593,-11.93098 6.23322,-5.33541 2.4228,-5.09896 82.03292,-5.09056 l 71.81666,0.008 3.95823,1.84308 c 4.6648,2.17209 8.92094,6.20736 11.35843,10.76902 l 1.7508,3.27652 v 228.85913 228.85912 l -1.7508,3.27652 c -2.43749,4.56165 -6.69363,8.59693 -11.35843,10.76902 l -3.95823,1.84307 -71.81666,0.008 c -80.25579,0.009 -75.87966,0.30074 -82.47968,-5.50883 -1.94717,-1.71396 -4.45314,-5.03271 -5.66755,-7.50572 l -2.17699,-4.4334 -0.14493,-225.75596 c -0.1135,-176.7213 0.0626,-226.52255 0.8103,-229.28538 z m 89.3267,418.19113 h 35.29861 V 397.11844 206.6611 h -35.29861 -35.29863 v 190.45734 190.45734 z"
   id="path21" /><path
   id="path4-3"
   d="M 538.3432,588.49623 H 468.45195 V 208.34648 h 69.89125 v 380.14975 m 55.42425,32.062 v -444.176 c 0,-12.903 -10.45925,-23.36225 -23.36225,-23.36225 H 436.38995 c -12.903,0 -23.36225,10.45925 -23.36225,23.36225 v 444.176 c 0,12.903 10.45925,23.36225 23.36225,23.36225 h 133.9175 c 12.903,0 23.46,-10.45925 23.46,-23.36225 z"
   class="st0"
   style="fill:#62D361;stroke-width:0.9775" /><path
   id="path21-9"
   d="m 414.3077,170.7336 c 1.27074,-4.69513 3.80549,-8.66084 7.62593,-11.93098 6.23322,-5.33541 2.4228,-5.09896 82.03292,-5.09056 l 71.81666,0.008 3.95823,1.84308 c 4.6648,2.17209 8.92094,6.20736 11.35843,10.76902 l 1.7508,3.27652 v 228.85913 228.85912 l -1.7508,3.27652 c -2.43749,4.56165 -6.69363,8.59693 -11.35843,10.76902 l -3.95823,1.84307 -71.81666,0.008 c -80.25579,0.009 -75.87966,0.30074 -82.47968,-5.50883 -1.94717,-1.71396 -4.45314,-5.03271 -5.66755,-7.50572 l -2.17699,-4.4334 -0.14493,-225.75596 c -0.1135,-176.7213 0.0626,-226.52255 0.8103,-229.28538 z m 89.3267,418.19113 h 35.29861 V 398.46739 208.01005 H 503.6344 468.33577 v 190.45734 190.45734 z"
   style="fill:#62D361;fill-opacity:1;stroke-width:0.775793" /></svg>
