<?xml version="1.0" encoding="UTF-8" standalone="no"?>
<svg
   xmlns:dc="http://purl.org/dc/elements/1.1/"
   xmlns:cc="http://creativecommons.org/ns#"
   xmlns:rdf="http://www.w3.org/1999/02/22-rdf-syntax-ns#"
   xmlns:svg="http://www.w3.org/2000/svg"
   xmlns="http://www.w3.org/2000/svg"
   xmlns:sodipodi="http://sodipodi.sourceforge.net/DTD/sodipodi-0.dtd"
   xmlns:inkscape="http://www.inkscape.org/namespaces/inkscape"
   inkscape:version="1.0 (4035a4fb49, 2020-05-01)"
   sodipodi:docname="notification_play.svg"
   xml:space="preserve"
   style="enable-background:new 0 0 800 800;"
   viewBox="0 0 800 800"
   y="0px"
   x="0px"
   id="Layer_1"
   version="1.1"><metadata
   id="metadata15"><rdf:RDF><cc:Work
       rdf:about=""><dc:format>image/svg+xml</dc:format><dc:type
         rdf:resource="http://purl.org/dc/dcmitype/StillImage" /><dc:title /></cc:Work></rdf:RDF></metadata><defs
   id="defs13" /><sodipodi:namedview
   inkscape:current-layer="Layer_1"
   inkscape:window-maximized="1"
   inkscape:window-y="-8"
   inkscape:window-x="-8"
   inkscape:cy="407.44757"
   inkscape:cx="291.98172"
   inkscape:zoom="1.7819091"
   showgrid="false"
   id="namedview11"
   inkscape:window-height="1369"
   inkscape:window-width="2560"
   inkscape:pageshadow="2"
   inkscape:pageopacity="0"
   guidetolerance="10"
   gridtolerance="10"
   objecttolerance="10"
   borderopacity="1"
   bordercolor="#666666"
   pagecolor="#ffffff"
   inkscape:document-rotation="0" />
<style
   id="style2"
   type="text/css">
	.st0{fill:#62D361;}
</style>

<path
   id="path6"
   d="M 501.14231,400.1595 345.84732,517.11951 v -233.75 l 155.29499,116.79 m 66.63999,0 c 0,-6.12 -2.72,-12.155 -8.15999,-16.235 L 330.12233,211.2895 c -13.43,-10.115 -32.555,-0.51 -32.555,16.235 v 345.35501 c 0,16.745 19.125,26.35 32.555,16.235 l 229.49998,-172.805 c 5.44,-3.995 8.16,-10.03 8.15999,-16.15 z"
   class="st0"
   style="stroke-width:0.85" />
<g
   transform="matrix(0.9775,0,0,0.9775,53.547,53.54776)"
   id="g4">
	<path
   d="M 597.2,701.3 H 110.6 C 53.2,701.3 6.5,654.6 6.5,597.2 V 110.6 C 6.5,53.2 53.2,6.5 110.6,6.5 h 486.6 c 57.4,0 104.1,46.7 104.1,104.1 v 486.6 c 0,57.4 -46.7,104.1 -104.1,104.1 z M 110.6,52.4 c -32,0 -58.2,26 -58.2,58.2 v 486.6 c 0,32 26,58.2 58.2,58.2 h 486.6 c 32,0 58.2,-26 58.2,-58.2 V 110.6 c 0,-32 -26,-58.2 -58.2,-58.2 z"
   class="st0"
   id="path2" />
</g>
<path
   id="path17"
   d="m 150.65676,738.13001 c -12.4717,-1.39665 -26.66772,-5.9419 -37.84321,-12.1167 C 95.05898,716.20336 79.0447,699.32348 70.39542,681.3024 64.41036,668.8323 61.63518,657.94784 60.5735,642.7799 c -0.48062,-6.86631 -0.64046,-87.42616 -0.4973,-250.61509 0.1956,-222.88026 0.29494,-240.94222 1.35676,-246.58758 4.2349,-22.51562 13.68014,-40.62012 29.20092,-55.971935 14.23795,-14.08294 31.95867,-23.42796 52.60225,-27.7398 5.87892,-1.22794 14.00696,-1.26814 256.3492,-1.26814 h 250.27778 l 7.08334,1.5615 c 21.30688,4.69708 36.90336,13.21608 51.96053,28.3815 14.67865,14.784215 23.1932,30.350375 27.76125,50.752695 l 1.5679,7.0027 v 250.95241 c 0,242.72256 -0.042,251.15147 -1.2643,257.0238 -9.3059,44.69035 -45.18961,77.4335 -89.75565,81.9003 -9.17897,0.92 -488.33076,0.87925 -496.55942,-0.0425 z M 652.87274,692.49 c 19.93824,-6.17835 34.6922,-21.42494 40.00112,-41.33676 l 1.51306,-5.67491 V 399.58544 153.69258 l -1.52572,-5.7341 c -5.66288,-21.28292 -21.4158,-36.89778 -42.2051,-41.83524 -5.63964,-1.3394 -7.66026,-1.3488 -253.17948,-1.17612 l -247.49446,0.174 -4.72222,1.5953 c -18.05932,6.10094 -31.7315,19.23924 -37.4918,36.02779 -1.04762,3.05335 -2.22128,7.52472 -2.60814,9.93642 -0.47858,2.98361 -0.705,81.91877 -0.70846,246.99891 -0.004,218.14116 0.1022,243.18289 1.05916,248.25395 4.27172,22.63803 22.24346,40.86393 44.80876,45.44251 3.58848,0.72811 49.16894,0.8701 250.95238,0.7817 l 246.56746,-0.10799 z"
   style="fill:#62D361;fill-opacity:1;stroke-width:0.6746" /><path
   id="path19"
   d="m 300.17824,218.44362 c 2.06443,-4.13128 4.83026,-6.86894 9.40917,-9.3133 3.43647,-1.83451 12.82007,-1.79344 16.52778,0.0724 3.22403,1.6224 232.7236,174.17375 235.79013,177.281 3.35767,3.4022 4.88323,7.0012 5.23218,12.34324 0.27168,4.159 0.0718,5.32914 -1.5138,8.86232 -1.00471,2.23886 -2.78731,4.97342 -3.96129,6.07682 -4.28583,4.02812 -232.27571,175.25818 -235.54572,176.9048 -4.6586,2.34584 -12.1025,2.3876 -16.52928,0.0928 -3.87486,-2.00878 -7.80538,-5.7435 -9.67029,-9.18862 l -1.46069,-2.69842 -0.1736,-178.1462 -0.1736,-178.14618 z m 45.66908,298.67589 c 1.00351,-0.0612 154.99009,-116.48775 154.99009,-117.18534 0,-0.71184 -154.02593,-116.84804 -154.99009,-116.86318 -0.27827,-0.004 -0.50595,52.66168 -0.50595,117.03568 0,64.37401 0.22768,117.0298 0.50595,117.01284 z"
   style="fill:#62D361;fill-opacity:1;stroke-width:0.6746" /><path
   style="fill:#62D361;stroke-width:0.85"
   class="st0"
   d="M 501.14231,400.15949 345.84732,517.1195 v -233.75 l 155.29499,116.79 m 66.63999,0 c 0,-6.12 -2.72,-12.155 -8.15999,-16.235 L 330.12233,211.28949 c -13.43,-10.115 -32.555,-0.51 -32.555,16.235 V 572.8795 c 0,16.745 19.125,26.35 32.555,16.235 l 229.49998,-172.805 c 5.44,-3.995 8.16,-10.03 8.15999,-16.15 z"
   id="path6-2" /><path
   style="fill:#62D361;fill-opacity:1;stroke-width:0.6746"
   d="m 300.17824,218.44361 c 2.06443,-4.13128 4.83026,-6.86894 9.40917,-9.3133 3.43647,-1.83451 12.82007,-1.79344 16.52778,0.0724 3.22403,1.6224 232.7236,174.17375 235.79013,177.281 3.35767,3.4022 4.88323,7.0012 5.23218,12.34324 0.27168,4.159 0.0718,5.32914 -1.5138,8.86232 -1.00471,2.23886 -2.78731,4.97342 -3.96129,6.07682 -4.28583,4.02812 -232.27571,175.25818 -235.54572,176.9048 -4.6586,2.34584 -12.1025,2.3876 -16.52928,0.0928 -3.87486,-2.00878 -7.80538,-5.7435 -9.67029,-9.18862 l -1.46069,-2.69842 -0.1736,-178.1462 -0.1736,-178.14618 z m 45.66908,298.67589 c 1.00351,-0.0612 154.99009,-116.48775 154.99009,-117.18534 0,-0.71184 -154.02593,-116.84804 -154.99009,-116.86318 -0.27827,-0.004 -0.50595,52.66168 -0.50595,117.03568 0,64.37401 0.22768,117.0298 0.50595,117.01284 z"
   id="path19-3" /></svg>
