<?xml version="1.0" encoding="UTF-8" standalone="no"?>
<svg
   xmlns:dc="http://purl.org/dc/elements/1.1/"
   xmlns:cc="http://creativecommons.org/ns#"
   xmlns:rdf="http://www.w3.org/1999/02/22-rdf-syntax-ns#"
   xmlns:svg="http://www.w3.org/2000/svg"
   xmlns="http://www.w3.org/2000/svg"
   xmlns:sodipodi="http://sodipodi.sourceforge.net/DTD/sodipodi-0.dtd"
   xmlns:inkscape="http://www.inkscape.org/namespaces/inkscape"
   inkscape:version="1.0 (4035a4fb49, 2020-05-01)"
   sodipodi:docname="notification_pause.svg"
   xml:space="preserve"
   style="enable-background:new 0 0 800 800;"
   viewBox="0 0 800 800"
   y="0px"
   x="0px"
   id="Layer_1"
   version="1.1"><metadata
   id="metadata15"><rdf:RDF><cc:Work
       rdf:about=""><dc:format>image/svg+xml</dc:format><dc:type
         rdf:resource="http://purl.org/dc/dcmitype/StillImage" /></cc:Work></rdf:RDF></metadata><defs
   id="defs13" /><sodipodi:namedview
   inkscape:current-layer="Layer_1"
   inkscape:window-maximized="1"
   inkscape:window-y="-8"
   inkscape:window-x="-8"
   inkscape:cy="459.92063"
   inkscape:cx="400"
   inkscape:zoom="1.26"
   showgrid="false"
   id="namedview11"
   inkscape:window-height="1369"
   inkscape:window-width="2560"
   inkscape:pageshadow="2"
   inkscape:pageopacity="0"
   guidetolerance="10"
   gridtolerance="10"
   objecttolerance="10"
   borderopacity="1"
   bordercolor="#666666"
   pagecolor="#ffffff"
   inkscape:document-rotation="0" />
<style
   id="style2"
   type="text/css">
	.st0{fill:#62D361;}
</style>
<path
   id="path4"
   d="m 317.95173,562.36128 h -60.775 v -330.565 h 60.775 v 330.565 m 48.195,27.88 v -386.24 c 0,-11.22 -9.095,-20.315 -20.315,-20.315 h -116.535 c -11.22,0 -20.315,9.095 -20.315,20.315 v 386.24 c 0,11.22 9.095,20.315 20.315,20.315 h 116.45 c 11.22,0 20.4,-9.095 20.4,-20.315 z"
   class="st0"
   style="stroke-width:0.85" />

<g
   transform="matrix(0.9775,0,0,0.9775,53.547,53.54775)"
   id="g4">
	<path
   d="M 597.2,701.3 H 110.6 C 53.2,701.3 6.5,654.6 6.5,597.2 V 110.6 C 6.5,53.2 53.2,6.5 110.6,6.5 h 486.6 c 57.4,0 104.1,46.7 104.1,104.1 v 486.6 c 0,57.4 -46.7,104.1 -104.1,104.1 z M 110.6,52.4 c -32,0 -58.2,26 -58.2,58.2 v 486.6 c 0,32 26,58.2 58.2,58.2 h 486.6 c 32,0 58.2,-26 58.2,-58.2 V 110.6 c 0,-32 -26,-58.2 -58.2,-58.2 z"
   class="st0"
   id="path2" />
</g>
<path
   id="path17"
   d="m 150.65676,738.12999 c -12.4717,-1.39663 -26.66772,-5.94192 -37.84321,-12.11671 -17.754551,-9.80992 -33.768844,-26.68981 -42.418124,-44.71089 -5.985061,-12.4701 -8.760227,-23.35456 -9.821918,-38.52249 -0.48061,-6.8663 -0.640464,-87.42616 -0.497289,-250.61508 0.195544,-222.88027 0.294923,-240.94223 1.356742,-246.58759 4.2349,-22.51562 13.68014,-40.62012 29.200931,-55.97194 14.237938,-14.082924 31.958648,-23.427941 52.602238,-27.739791 5.87892,-1.227937 14.00696,-1.268146 256.3492,-1.268146 h 250.27778 l 7.08334,1.561512 c 21.30688,4.697075 36.90336,13.216072 51.96052,28.381502 14.67865,14.784203 23.1932,30.350373 27.76125,50.752683 l 1.56791,7.00271 v 250.95239 c 0,242.72256 -0.0418,251.15149 -1.26428,257.0238 -9.30592,44.69034 -45.18963,77.43352 -89.75566,81.90028 -9.17898,0.92002 -488.33076,0.87927 -496.55943,-0.0425 z M 652.87275,692.49 c 19.93824,-6.17834 34.6922,-21.42493 40.00111,-41.33675 l 1.51306,-5.67494 V 399.58544 153.69259 l -1.52571,-5.73412 c -5.66288,-21.28292 -21.4158,-36.89778 -42.2051,-41.83523 -5.63965,-1.33941 -7.66026,-1.3488 -253.17948,-1.17613 l -247.49447,0.17405 -4.72222,1.5953 c -18.05932,6.10093 -31.7315,19.23923 -37.4918,36.0278 -1.04762,3.05333 -2.22128,7.52472 -2.60813,9.93642 -0.47859,2.9836 -0.705,81.91876 -0.70847,246.99889 -0.005,218.14117 0.10226,243.1829 1.05916,248.25397 4.27172,22.63802 22.24346,40.86392 44.80877,45.4425 3.58848,0.72811 49.16893,0.87009 250.95237,0.78171 l 246.56747,-0.10801 z"
   style="fill:#62D361;fill-opacity:1;stroke-width:0.674603" /><path
   id="path21"
   d="m 210.06357,199.0892 c 1.10499,-4.08272 3.30912,-7.53117 6.63124,-10.37477 5.42019,-4.63948 2.10678,-4.43387 71.33297,-4.42657 l 62.44927,0.007 3.44194,1.60268 c 4.05635,1.88877 7.75734,5.3977 9.8769,9.36436 l 1.52243,2.84915 v 199.00794 199.00793 l -1.52243,2.84915 c -2.11956,3.96665 -5.82055,7.47559 -9.8769,9.36436 l -3.44194,1.60267 -62.44927,0.007 c -69.78764,0.008 -65.98231,0.26152 -71.72146,-4.79028 -1.69319,-1.4904 -3.87229,-4.37627 -4.9283,-6.52672 l -1.89304,-3.85513 -0.12602,-196.30953 c -0.0987,-153.67069 0.0544,-196.97613 0.70461,-199.37859 z m 77.67539,363.64446 H 318.4334 V 397.11858 231.5035 H 287.73896 257.0445 v 165.61508 165.61508 z"
   style="fill:#62D361;fill-opacity:1;stroke-width:0.674603" /><path
   style="fill:#62D361;stroke-width:0.85"
   class="st0"
   d="m 533.78507,563.71023 h -60.775 v -330.565 h 60.775 v 330.565 m 48.195,27.88 v -386.24 c 0,-11.22 -9.095,-20.315 -20.315,-20.315 h -116.535 c -11.22,0 -20.315,9.095 -20.315,20.315 v 386.24 c 0,11.22 9.095,20.315 20.315,20.315 h 116.45 c 11.22,0 20.4,-9.095 20.4,-20.315 z"
   id="path4-3" /><path
   style="fill:#62D361;fill-opacity:1;stroke-width:0.674603"
   d="m 425.89691,200.43815 c 1.10499,-4.08272 3.30912,-7.53117 6.63124,-10.37477 5.42019,-4.63948 2.10678,-4.43387 71.33297,-4.42657 l 62.44927,0.007 3.44194,1.60268 c 4.05635,1.88877 7.75734,5.3977 9.8769,9.36436 l 1.52243,2.84915 v 199.00794 199.00793 l -1.52243,2.84915 c -2.11956,3.96665 -5.82055,7.47559 -9.8769,9.36436 l -3.44194,1.60267 -62.44927,0.007 c -69.78764,0.008 -65.98231,0.26152 -71.72146,-4.79028 -1.69319,-1.4904 -3.87229,-4.37627 -4.9283,-6.52672 l -1.89304,-3.85513 -0.12602,-196.30953 c -0.0987,-153.67069 0.0544,-196.97613 0.70461,-199.37859 z m 77.67539,363.64446 h 30.69444 V 398.46753 232.85245 H 503.5723 472.87784 v 165.61508 165.61508 z"
   id="path21-9" /></svg>
