<svg width="16" height="16" viewBox="0 0 16 16" fill="none" xmlns="http://www.w3.org/2000/svg">
<path fill-rule="evenodd" clip-rule="evenodd" d="M15 8.00624C15 7.38186 14.8603 6.58945 14.8538 6.55531C14.7716 6.0974 14.5072 5.80228 14.1792 5.80386H14.1076C13.1641 5.80386 12.3949 4.98886 12.3949 3.98955C12.3949 3.66502 12.5426 3.30163 12.5441 3.29848C12.7134 2.89413 12.5827 2.39999 12.2407 2.1474L10.4844 1.1108C10.3492 1.04884 10.2245 1.02311 10.0938 1.02311C9.82487 1.02311 9.56095 1.13706 9.38668 1.32768C9.19688 1.53615 8.53935 2.12955 8.03455 2.12955C7.52425 2.12955 6.86371 1.52303 6.67241 1.3114C6.49814 1.11553 6.23272 1 5.96029 1C5.8331 1 5.7119 1.02416 5.59973 1.07509L3.77937 2.12955C3.41429 2.39684 3.28359 2.89256 3.45285 3.2948C3.45436 3.29848 3.60209 3.66029 3.60209 3.98797C3.60209 4.98834 2.83438 5.80228 1.8889 5.80228H1.8298C1.49127 5.80228 1.22836 6.0974 1.14623 6.55531C1.14022 6.5884 1 7.38344 1 8.00624C1 8.62694 1.13972 9.4225 1.14623 9.45664C1.22836 9.91507 1.49277 10.2102 1.81929 10.2102H1.8909C2.83588 10.2102 3.60359 11.0252 3.60359 12.0245C3.60359 12.3485 3.45586 12.7124 3.45436 12.7156C3.37297 12.9148 3.35847 13.1371 3.41324 13.3461C3.468 13.5551 3.58879 13.7385 3.75583 13.8661L5.47854 14.8885C5.61375 14.9516 5.73694 14.9778 5.86715 14.9778C6.13908 14.9778 6.4065 14.8591 6.57927 14.6601C6.82165 14.3813 7.47768 13.8078 7.96244 13.8078C8.48827 13.8078 9.16133 14.4516 9.35563 14.6764C9.48998 14.8275 9.66498 14.9321 9.85739 14.9763C10.0498 15.0206 10.2505 15.0025 10.4328 14.9243L12.2201 13.8808C12.5842 13.6135 12.7149 13.1199 12.5456 12.7171C12.5441 12.714 12.3964 12.3469 12.3964 12.0245C12.3964 11.0236 13.1641 10.2102 14.1096 10.2102H14.1687C14.5072 10.2102 14.7716 9.9135 14.8538 9.45664C14.8558 9.44876 15 8.64322 15 8.00624ZM8 11C9.65685 11 11 9.65685 11 8C11 6.34315 9.65685 5 8 5C6.34315 5 5 6.34315 5 8C5 9.65685 6.34315 11 8 11Z" fill="#A9AAAB"/>
</svg>
