<svg width="16" height="16" viewBox="0 0 16 16" fill="none" xmlns="http://www.w3.org/2000/svg">
<path fill-rule="evenodd" clip-rule="evenodd" d="M7.893 2.03035C4.82203 2.03035 2.3332 4.51856 2.3332 7.58826C2.3332 7.80917 2.15412 7.98826 1.9332 7.98826C1.71229 7.98826 1.5332 7.80917 1.5332 7.58826C1.5332 4.0765 4.38044 1.23035 7.893 1.23035C8.62072 1.23035 9.32068 1.35267 9.97293 1.57819C10.1817 1.65038 10.2924 1.87816 10.2203 2.08694C10.1481 2.29573 9.92028 2.40646 9.7115 2.33427C9.14223 2.13743 8.53056 2.03035 7.893 2.03035ZM12.2054 3.45635C12.3747 3.31441 12.627 3.33656 12.7689 3.50583C13.6949 4.6101 14.2528 6.03451 14.2528 7.58826C14.2528 7.80917 14.0737 7.98826 13.8528 7.98826C13.6319 7.98826 13.4528 7.80917 13.4528 7.58826C13.4528 6.22941 12.9656 4.98547 12.1559 4.01987C12.014 3.8506 12.0361 3.5983 12.2054 3.45635Z" fill="#A9AAAB"/>
<path fill-rule="evenodd" clip-rule="evenodd" d="M11.4689 2.87323C11.5707 2.48628 11.0884 2.15082 10.7702 2.45466L9.06709 3.82065L6.1908 8.22057L6.18939 8.22273C6.06867 8.41003 6.10474 8.61073 6.13249 8.71069C6.16465 8.82655 6.22126 8.93578 6.27636 9.02449C6.38026 9.19175 6.54007 9.38216 6.69202 9.48003C6.77997 9.53669 6.89251 9.57832 6.98592 9.60711C7.08823 9.63865 7.20534 9.66609 7.32159 9.68363C7.43425 9.70063 7.56528 9.71131 7.68872 9.69863C7.78001 9.68926 8.01173 9.65463 8.14566 9.44786L11.0546 4.99874L11.4689 2.87323Z" fill="#A9AAAB"/>
<path d="M5.34576 10.1639C4.83644 10.1639 4.43515 10.2488 4.14191 10.434C3.79465 10.6347 3.57857 10.9588 3.49368 11.3987L4.3657 11.4681C4.412 11.2597 4.52776 11.1054 4.69753 11.0051C4.84415 10.9125 5.03708 10.8739 5.28402 10.8739C5.85507 10.8739 6.1406 11.1286 6.1406 11.6533V11.8077L5.26859 11.8308C4.6821 11.8462 4.2268 11.9697 3.90268 12.2012C3.5477 12.4404 3.37793 12.7877 3.37793 13.2353C3.37793 13.5671 3.5014 13.8372 3.74834 14.0533C3.98757 14.2616 4.31168 14.3697 4.7284 14.3697C5.07566 14.3697 5.37662 14.3079 5.63128 14.1922C5.85507 14.0842 6.048 13.9375 6.20234 13.7369V14.2616H7.02034V11.715C7.02034 11.2289 6.89686 10.8585 6.64992 10.6038C6.37211 10.3106 5.93224 10.1639 5.34576 10.1639ZM6.1406 12.4404V12.6411C6.1406 12.9498 6.01713 13.2044 5.78562 13.4051C5.55411 13.598 5.26859 13.6983 4.92904 13.6983C4.73612 13.6983 4.58178 13.6443 4.4583 13.5517C4.33483 13.4591 4.28081 13.3433 4.28081 13.2044C4.28081 12.726 4.62808 12.479 5.33032 12.4636L6.1406 12.4404Z" fill="#A9AAAB"/>
<path d="M9.46104 10.3184V11.9004H7.87134V12.6258H9.46104V14.2154H10.1864V12.6258H11.7684V11.9004H10.1864V10.3184H9.46104Z" fill="#A9AAAB"/>
</svg>
