<svg width="16" height="16" viewBox="0 0 16 16" fill="none" xmlns="http://www.w3.org/2000/svg">
<path fill-rule="evenodd" clip-rule="evenodd" d="M5.17529 11.0924C5.1075 11.0924 5.04285 11.0789 4.9839 11.0544C4.86168 11.0037 4.76392 10.906 4.71323 10.7838C4.68879 10.7248 4.67529 10.6602 4.67529 10.5924V2.5C4.67529 2.4322 4.68879 2.36756 4.71323 2.3086C4.76392 2.18638 4.86168 2.08862 4.9839 2.03794C5.04285 2.01349 5.1075 2 5.17529 2H13.2677C13.3355 2 13.4001 2.01349 13.4591 2.03794C13.5813 2.08862 13.6791 2.18638 13.7298 2.3086C13.7542 2.36756 13.7677 2.4322 13.7677 2.5V10.5924C13.7677 10.6602 13.7542 10.7248 13.7298 10.7838C13.6791 10.906 13.5813 11.0037 13.4591 11.0544C13.4001 11.0789 13.3355 11.0924 13.2677 11.0924H5.17529ZM12.7677 10.0924V3H5.67529V10.0924H12.7677Z" fill="#A9AAAB"/>
<path d="M2 4.95752C2 4.68137 2.22386 4.45752 2.5 4.45752H10.5924C10.8685 4.45752 11.0924 4.68137 11.0924 4.95752V13.0499C11.0924 13.3261 10.8685 13.5499 10.5924 13.5499H2.5C2.22386 13.5499 2 13.3261 2 13.0499V4.95752Z" fill="#A9AAAB"/>
<path fill-rule="evenodd" clip-rule="evenodd" d="M3 5.45752V12.5499H10.0924V5.45752H3ZM2.5 4.45752C2.22386 4.45752 2 4.68137 2 4.95752V13.0499C2 13.3261 2.22386 13.5499 2.5 13.5499H10.5924C10.8685 13.5499 11.0924 13.3261 11.0924 13.0499V4.95752C11.0924 4.68137 10.8685 4.45752 10.5924 4.45752H2.5Z" fill="#A9AAAB"/>
</svg>
