<svg width="16" height="16" viewBox="0 0 16 16" fill="none" xmlns="http://www.w3.org/2000/svg">
<path d="M4.46295 8.65282C4.26819 8.84524 3.9549 8.84524 3.76014 8.65282L1.14903 6.07311C1.05395 5.97917 1.00043 5.85108 1.00043 5.71742L1.00043 2.5C1.00043 2.22386 1.22429 2 1.50043 2L6.72266 2C6.9988 2 7.22266 2.22386 7.22266 2.5L7.22266 5.71742C7.22266 5.85108 7.16914 5.97917 7.07406 6.07311L4.46295 8.65282Z" fill="#A9AAAB"/>
<path d="M12.2403 8.65282C12.0455 8.84524 11.7322 8.84524 11.5375 8.65282L8.92637 6.07311C8.83129 5.97917 8.77778 5.85108 8.77778 5.71742L8.77778 2.5C8.77778 2.22386 9.00164 2 9.27778 2L14.5 2C14.7761 2 15 2.22386 15 2.5L15 5.71742C15 5.85108 14.9465 5.97917 14.8514 6.07311L12.2403 8.65282Z" fill="#A9AAAB"/>
<path d="M4.11133 10.5557V11.6668C4.11133 12.7713 3.2159 13.6668 2.11133 13.6668H1.00022" stroke="#A9AAAB" stroke-linecap="square"/>
<path d="M11.8887 10.5557V11.6668C11.8887 12.7713 10.9932 13.6668 9.88867 13.6668H8.77756" stroke="#A9AAAB" stroke-linecap="square"/>
</svg>
