<svg width="16" height="16" viewBox="0 0 16 16" fill="none" xmlns="http://www.w3.org/2000/svg">
<path d="M8 14.9531C7.06094 14.9531 6.15156 14.7688 5.29375 14.4062C4.46562 14.0562 3.72187 13.5547 3.08437 12.9156C2.44687 12.2766 1.94531 11.5344 1.59375 10.7063C1.23125 9.84844 1.04688 8.93906 1.04688 8C1.04688 7.06094 1.23125 6.15156 1.59375 5.29375C1.94375 4.46562 2.44531 3.72187 3.08437 3.08437C3.72344 2.44687 4.46562 1.94531 5.29375 1.59375C6.15156 1.23125 7.06094 1.04688 8 1.04688C8.93906 1.04688 9.84844 1.23125 10.7063 1.59375C11.5344 1.94375 12.2781 2.44531 12.9156 3.08437C13.5547 3.72344 14.0547 4.46562 14.4062 5.29375C14.7688 6.15156 14.9531 7.0625 14.9531 8C14.9531 8.9375 14.7688 9.84844 14.4062 10.7063C14.0562 11.5344 13.5547 12.2781 12.9156 12.9156C12.2766 13.5547 11.5344 14.0547 10.7063 14.4062C9.84844 14.7688 8.93906 14.9531 8 14.9531ZM8 2.17188C4.78594 2.17188 2.17188 4.78594 2.17188 8C2.17188 11.2141 4.78594 13.8281 8 13.8281C11.2141 13.8281 13.8281 11.2141 13.8281 8C13.8281 4.78594 11.2141 2.17188 8 2.17188Z" fill="#A9AAAB"/>
<path d="M12.3738 8.5624C12.0629 8.5624 11.8113 8.31084 11.8113 7.9999C11.8113 5.89834 10.102 4.18896 8.00039 4.18896C5.89883 4.18896 4.18945 5.89834 4.18945 7.9999C4.18945 8.31084 3.93789 8.5624 3.62695 8.5624C3.31602 8.5624 3.06445 8.31084 3.06445 7.9999C3.06445 6.68115 3.57852 5.44209 4.50977 4.50928C5.44258 3.57646 6.68164 3.06396 8.00039 3.06396C9.31914 3.06396 10.5582 3.57803 11.491 4.50928C12.4238 5.44209 12.9363 6.68115 12.9363 7.9999C12.9363 8.31084 12.6848 8.5624 12.3738 8.5624Z" fill="#A9AAAB"/>
<path d="M8.00097 10.3701C7.9541 10.3701 7.90722 10.3639 7.85879 10.3514C7.55879 10.2732 7.37754 9.96699 7.45566 9.66543L8.34472 6.23574C8.42285 5.93574 8.7291 5.75449 9.03066 5.83261C9.33066 5.91074 9.51191 6.21699 9.43379 6.51855L8.54629 9.94824C8.48066 10.2014 8.25097 10.3701 8.00097 10.3701Z" fill="#A9AAAB"/>
<path d="M1 15H15" stroke="#A9AAAB"/>
</svg>
