<svg width="16" height="16" viewBox="0 0 16 16" fill="none" xmlns="http://www.w3.org/2000/svg">
<path fill-rule="evenodd" clip-rule="evenodd" d="M10.8755 3.73041C10.8874 3.81858 10.8935 3.90857 10.8935 4V5.69491C10.8935 6.0348 10.9801 6.36908 11.1452 6.6662L13.5688 11.0287C14.3094 12.3618 13.3455 14 11.8205 14H4.20405C2.67908 14 1.71514 12.3618 2.45573 11.0287L4.87936 6.6662C5.04442 6.36908 5.13104 6.0348 5.13104 5.69491V4C5.13104 3.90857 5.13718 3.81858 5.14906 3.73041H4.26788C3.79004 3.73041 3.40268 3.34304 3.40268 2.8652C3.40268 2.38737 3.79004 2 4.26788 2H7.13104H8.89352H12.0547C12.5326 2 12.9199 2.38737 12.9199 2.8652C12.9199 3.34304 12.5326 3.73041 12.0547 3.73041H10.8755ZM5.44 10.4123C5.52905 10.3232 5.79631 10.1344 6.21405 9.96731C6.62197 9.80414 7.14422 9.6738 7.72972 9.6738C8.21444 9.6738 8.67506 9.85255 9.24872 10.0752L9.25371 10.0771C9.80492 10.291 10.45 10.539 11.1905 10.539C11.4295 10.539 11.6231 10.3453 11.6231 10.1064C11.6231 9.86748 11.4295 9.6738 11.1905 9.6738C10.6333 9.6738 10.1303 9.4892 9.56672 9.2705L9.49732 9.24352C8.97494 9.0403 8.37934 8.80859 7.72972 8.80859C7.01741 8.80859 6.38605 8.96665 5.89272 9.16399C5.40921 9.35739 5.02757 9.60115 4.82821 9.8005C4.65927 9.96945 4.65927 10.2434 4.82821 10.4123C4.99715 10.5812 5.27106 10.5812 5.44 10.4123Z" fill="#A9AAAB"/>
</svg>
