<svg width="16" height="16" viewBox="0 0 16 16" fill="none" xmlns="http://www.w3.org/2000/svg">
<path d="M8.16262 10.377C7.97388 10.5427 7.69148 10.5427 7.50275 10.377L3.16942 6.57147C3.06132 6.47654 2.99935 6.33965 2.99935 6.19578L2.99935 1.50008C2.99935 1.22394 3.22321 1.00008 3.49935 1.00008L12.166 1.00008C12.4422 1.00008 12.666 1.22394 12.666 1.50008L12.666 6.19578C12.666 6.33965 12.604 6.47654 12.4959 6.57147L8.16262 10.377Z" fill="#A9AAAB"/>
<path d="M8.01857 12H4.25C3.55964 12 3 12.5596 3 13.25V13.25C3 13.9404 3.55965 14.5 4.25 14.5H12.6667" stroke="#A9AAAB" stroke-linecap="round"/>
</svg>
