<svg width="16" height="16" viewBox="0 0 16 16" fill="none" xmlns="http://www.w3.org/2000/svg">
<g clip-path="url(#clip0_11467_662)">
<mask id="mask0_11467_662" style="mask-type:luminance" maskUnits="userSpaceOnUse" x="0" y="0" width="16" height="16">
<path d="M0 0L0 16H16V0L0 0Z" fill="white"/>
</mask>
<g mask="url(#mask0_11467_662)">
<path d="M12.6337 8C12.6337 7.77376 12.6165 7.55123 12.5827 7.3345C12.5627 7.20605 12.6214 7.07647 12.7364 7.01213L13.8456 6.392C13.9936 6.30928 14.0441 6.12389 13.958 5.97971L12.7846 4.01396C12.7 3.87226 12.5151 3.82363 12.3697 3.90486L11.2474 4.5316C11.1348 4.59454 10.9944 4.58009 10.8926 4.50128C10.5321 4.22225 10.1279 3.99452 9.69034 3.82827C9.56772 3.78168 9.48324 3.66801 9.48324 3.53897V2.3C9.48324 2.13431 9.34637 2 9.17752 2H6.82249C6.65364 2 6.51677 2.13431 6.51677 2.3V3.53858C6.51677 3.66781 6.43204 3.78159 6.30921 3.82817C5.87274 3.99369 5.46787 4.22217 5.10738 4.50127C5.00558 4.58009 4.86529 4.59454 4.75259 4.5316L3.63039 3.90486C3.48494 3.82363 3.29996 3.87226 3.21538 4.01396L2.04198 5.97971C1.95591 6.12389 2.00648 6.30928 2.15444 6.392L3.26499 7.0129C3.37939 7.07686 3.4382 7.20538 3.41839 7.33312C3.38461 7.55074 3.36627 7.77304 3.36627 8C3.36627 8.22624 3.38353 8.44877 3.41734 8.6655C3.43737 8.79396 3.37868 8.92353 3.26361 8.98787L2.15444 9.608C2.00648 9.69072 1.95591 9.87611 2.04198 10.0203L3.21538 11.986C3.29996 12.1277 3.48494 12.1764 3.63039 12.0951L4.75259 11.4684C4.86529 11.4055 5.00558 11.4199 5.10739 11.4987C5.46786 11.7777 5.87213 12.0055 6.30966 12.1717C6.43229 12.2183 6.51677 12.332 6.51677 12.461V13.7C6.51677 13.8657 6.65364 14 6.82249 14H9.17752C9.34637 14 9.48324 13.8657 9.48324 13.7V12.4614C9.48324 12.3322 9.56796 12.2184 9.6908 12.1718C10.1273 12.0063 10.5321 11.7778 10.8926 11.4987C10.9944 11.4199 11.1348 11.4055 11.2474 11.4684L12.3697 12.0951C12.5151 12.1764 12.7 12.1277 12.7846 11.986L13.958 10.0203C14.0441 9.87611 13.9936 9.69072 13.8456 9.608L12.7364 8.98787C12.6214 8.92353 12.5627 8.79396 12.5827 8.6655C12.6165 8.44877 12.6337 8.22624 12.6337 8Z" stroke="#A9AAAB" stroke-miterlimit="10"/>
<path d="M6.89738 10.4624L6.90053 10.4642C7.26562 10.6761 7.67351 10.78 8.118 10.78C8.48526 10.78 8.82382 10.7121 9.12898 10.5709C9.3862 10.4519 9.59949 10.2998 9.75615 10.1083C9.83775 10.0086 9.868 9.88955 9.868 9.78357V8.466C9.868 8.16224 9.62176 7.916 9.318 7.916H8.394C8.12338 7.916 7.904 8.13538 7.904 8.406C7.904 8.67662 8.12338 8.896 8.394 8.896H8.784C8.81161 8.896 8.834 8.91839 8.834 8.946V9.58254C8.834 9.58806 8.83331 9.59207 8.83269 9.59454C8.68373 9.71446 8.46664 9.788 8.154 9.788C7.87859 9.788 7.64715 9.72403 7.45122 9.60321C7.25385 9.4815 7.09908 9.31031 6.98659 9.08219C6.87381 8.84951 6.814 8.57608 6.814 8.256C6.814 7.93808 6.87051 7.6698 6.97594 7.44501C7.08631 7.21422 7.23336 7.04337 7.41497 6.92314C7.59921 6.80378 7.81094 6.742 8.058 6.742C8.27655 6.742 8.45575 6.78945 8.60403 6.87594L8.60743 6.87789C8.69471 6.92699 8.76652 6.98341 8.82503 7.04631C8.9761 7.20871 9.2601 7.3242 9.51769 7.17394C9.73178 7.04905 9.85894 6.74575 9.68079 6.4935C9.53735 6.2904 9.34863 6.12721 9.12019 6.00278C8.81096 5.83218 8.46268 5.75 8.082 5.75C7.65073 5.75 7.25211 5.85728 6.89178 6.07339C6.53443 6.28608 6.25359 6.58664 6.04955 6.96809L6.04905 6.96903C5.84739 7.34995 5.75 7.78113 5.75 8.256C5.75 8.73459 5.84726 9.17087 6.04795 9.55886L6.04955 9.56191C6.25387 9.94389 6.53681 10.246 6.89738 10.4624Z" fill="#A9AAAB"/>
</g>
</g>
<defs>
<clipPath id="clip0_11467_662">
<rect width="14" height="14" fill="white" transform="translate(1 1)"/>
</clipPath>
</defs>
</svg>
