<svg width="16" height="16" viewBox="0 0 16 16" fill="none" xmlns="http://www.w3.org/2000/svg">
<path fill-rule="evenodd" clip-rule="evenodd" d="M12.5412 3.07935C12.5412 3.01212 12.4898 2.97299 12.4424 2.97453C10.6177 3.034 7.93007 3.37983 6.09734 4.23065C4.35429 5.03983 2.81745 6.904 1.57516 8.94782C1.56292 8.96797 1.56013 8.98385 1.56021 8.99635C1.5603 9.01037 1.56424 9.02652 1.57349 9.04251C1.59161 9.07386 1.62325 9.09531 1.66839 9.09531H12.4269C12.49 9.09531 12.5412 9.04414 12.5412 8.98102V3.07935ZM12.4126 2.06073C12.9961 2.04172 13.4555 2.5154 13.4555 3.07935V8.98102C13.4555 9.54909 12.995 10.0096 12.4269 10.0096H1.66839C0.89012 10.0096 0.37433 9.16317 0.793876 8.47294C2.05596 6.39658 3.711 4.33047 5.71236 3.40137C7.71273 2.47272 10.5475 2.12152 12.4126 2.06073Z" fill="#A9AAAB"/>
<path fill-rule="evenodd" clip-rule="evenodd" d="M10.5463 4.99476C10.5308 4.97964 10.5136 4.97322 10.4928 4.97461C9.7334 5.02548 8.79173 5.17917 8.14003 5.48171C7.57887 5.74221 7.04555 6.29848 6.56976 6.99181C6.55797 7.009 6.55669 7.01985 6.55655 7.02566C6.55637 7.03333 6.55829 7.04441 6.56557 7.05726C6.58005 7.0828 6.60923 7.10514 6.65559 7.10514H10.4616C10.5248 7.10514 10.5759 7.05398 10.5759 6.99086V5.0695C10.5759 5.03673 10.563 5.01103 10.5463 4.99476ZM10.4317 4.06237C11.0297 4.02232 11.4902 4.50897 11.4902 5.0695V6.99086C11.4902 7.55893 11.0297 8.01943 10.4616 8.01943H6.65559C5.89204 8.01943 5.33797 7.17095 5.8159 6.47448C6.32411 5.73392 6.97158 5.01613 7.75506 4.65242C8.55955 4.27895 9.63458 4.11576 10.4317 4.06237Z" fill="#A9AAAB"/>
<path fill-rule="evenodd" clip-rule="evenodd" d="M14.9467 3.61521C14.8285 3.60608 14.6196 3.6167 14.2981 3.70356C14.1144 3.7532 13.9234 3.92814 13.7523 4.22711C13.5876 4.51498 13.4865 4.84126 13.4466 5.04388C13.3979 5.2916 13.1576 5.45293 12.9098 5.4042C12.6621 5.35546 12.5008 5.11513 12.5494 4.86741C12.6048 4.58621 12.736 4.16253 12.9588 3.77305C13.1753 3.39466 13.527 2.96481 14.0596 2.82093C14.4544 2.71426 14.7702 2.68456 15.0172 2.70365C15.1406 2.71319 15.2526 2.7354 15.3506 2.77014C15.441 2.80217 15.5491 2.85533 15.636 2.94606C15.8106 3.1284 15.8044 3.41777 15.622 3.5924C15.4579 3.74959 15.207 3.76022 15.0312 3.62778C15.0155 3.62378 14.9881 3.61841 14.9467 3.61521Z" fill="#A9AAAB"/>
<rect y="11" width="14" height="1.5" fill="#A9AAAB"/>
</svg>
