<svg width="16" height="16" viewBox="0 0 16 16" fill="none" xmlns="http://www.w3.org/2000/svg">
<rect x="2.5" y="2.5" width="11" height="11" rx="0.5" stroke="#A9AAAB"/>
<path d="M5.19922 11.1167L5.19922 11.8667C5.19922 11.94 5.25922 12 5.33255 12H6.13255C6.15006 12 6.1674 11.9966 6.18358 11.9899C6.19975 11.9832 6.21445 11.9733 6.22683 11.9609C6.23921 11.9486 6.24904 11.9339 6.25574 11.9177C6.26244 11.9015 6.26589 11.8842 6.26589 11.8667V11.1167C5.91889 11.227 5.54621 11.227 5.19922 11.1167ZM6.26589 7.81667V4.13333C6.26589 4.11582 6.26244 4.09849 6.25574 4.08231C6.24904 4.06613 6.23921 4.05143 6.22683 4.03905C6.21445 4.02667 6.19975 4.01685 6.18358 4.01015C6.1674 4.00345 6.15006 4 6.13255 4H5.33255C5.31504 4 5.2977 4.00345 5.28153 4.01015C5.26535 4.01685 5.25065 4.02667 5.23827 4.03905C5.22589 4.05143 5.21607 4.06613 5.20937 4.08231C5.20267 4.09849 5.19922 4.11582 5.19922 4.13333V7.81667C5.54621 7.70633 5.91889 7.70633 6.26589 7.81667Z" fill="#A9AAAB"/>
<path d="M5.2 11.1167C5.547 11.227 5.91968 11.227 6.26667 11.1167C6.65956 10.9896 6.99418 10.7265 7.2103 10.3746C7.42642 10.0228 7.50983 9.60534 7.44552 9.19746C7.38121 8.78958 7.1734 8.41806 6.85951 8.14978C6.54561 7.8815 6.14626 7.73409 5.73334 7.73409C5.32042 7.73409 4.92106 7.8815 4.60717 8.14978C4.29328 8.41806 4.08547 8.78958 4.02116 9.19746C3.95684 9.60534 4.04026 10.0228 4.25637 10.3746C4.47249 10.7265 4.80712 10.9896 5.2 11.1167ZM5.20134 9.18867L5.21867 9.15867V9.15667L5.23867 9.12667L5.24334 9.11867C5.24867 9.11 5.25534 9.10333 5.26 9.09467C5.262 9.09333 5.26334 9.09 5.26534 9.088L5.288 9.06133L5.32 9.03L5.34667 9.00667C5.35582 8.99903 5.36539 8.99191 5.37534 8.98533L5.38334 8.98C5.392 8.97467 5.398 8.968 5.40667 8.96333C5.40667 8.96333 5.412 8.96 5.41334 8.958C5.42334 8.95133 5.43334 8.94667 5.44534 8.94C5.44534 8.94 5.45 8.93867 5.452 8.93667C5.46 8.93133 5.468 8.928 5.47867 8.92333L5.488 8.918L5.52134 8.90467C5.53334 8.9 5.54467 8.89667 5.55667 8.89333C5.56 8.892 5.56334 8.892 5.56667 8.89C5.57602 8.88698 5.58561 8.88475 5.59534 8.88333C5.59867 8.88333 5.6 8.88133 5.60334 8.88133C5.61534 8.878 5.628 8.87667 5.64 8.87467C5.64334 8.87467 5.64534 8.87467 5.64867 8.87333C5.658 8.872 5.66867 8.872 5.67867 8.87H5.688L5.72667 8.86867C5.74 8.86867 5.75134 8.86867 5.76467 8.87H5.77467C5.78534 8.87 5.79467 8.872 5.80534 8.87333C5.80867 8.87333 5.81 8.87333 5.81334 8.87467C5.82534 8.87667 5.83867 8.878 5.85 8.88133C5.85334 8.88133 5.85467 8.88333 5.858 8.88333C5.86867 8.88467 5.878 8.888 5.88667 8.89C5.89 8.89133 5.89334 8.89133 5.89667 8.89333C5.90867 8.89667 5.92 8.9 5.932 8.90533C5.94334 8.90867 5.95334 8.91333 5.96534 8.91867L5.97467 8.92333C5.98388 8.9271 5.99279 8.93156 6.00134 8.93667C6.00334 8.938 6.00667 8.938 6.008 8.94C6.01902 8.94536 6.0297 8.95137 6.04 8.958C6.04134 8.96 6.04467 8.96133 6.04667 8.96333C6.0551 8.96792 6.06293 8.97352 6.07 8.98C6.07334 8.98133 6.07467 8.98333 6.078 8.98533C6.08867 8.992 6.098 9 6.10667 9.00667C6.11597 9.01397 6.12487 9.02176 6.13334 9.03L6.16534 9.062C6.17335 9.07049 6.18092 9.07939 6.188 9.08867C6.19 9.09 6.19134 9.09333 6.19334 9.09533C6.2 9.102 6.20534 9.11 6.21 9.118C6.21134 9.122 6.21334 9.12333 6.21534 9.12667L6.23534 9.15667L6.23667 9.158C6.28921 9.24626 6.31833 9.34649 6.32124 9.44917C6.32416 9.55185 6.30079 9.65356 6.25334 9.74467C6.24867 9.75533 6.24134 9.76467 6.23667 9.77533C6.23667 9.77533 6.23667 9.77667 6.23467 9.77667L6.21467 9.80667L6.21 9.81467C6.20467 9.82333 6.198 9.83 6.19334 9.83867L6.188 9.84533L6.16534 9.872L6.13334 9.90333C6.12534 9.91133 6.11667 9.918 6.10667 9.92667C6.09754 9.93453 6.08797 9.94188 6.078 9.94867L6.07 9.95333C6.06134 9.95867 6.05467 9.96533 6.04667 9.97C6.04467 9.97133 6.04134 9.97333 6.04 9.97533C6.03 9.982 6.02 9.98667 6.008 9.99333C6.008 9.99333 6.00334 9.99467 6.00134 9.99667L5.97467 10.01L5.96534 10.0153L5.932 10.0287C5.92 10.0333 5.908 10.0367 5.89667 10.04C5.89334 10.0413 5.89 10.0413 5.88667 10.0433C5.87732 10.0464 5.86773 10.0486 5.858 10.05L5.85 10.0513C5.838 10.0547 5.82467 10.0567 5.81334 10.058C5.81 10.058 5.80867 10.058 5.80534 10.06C5.79467 10.062 5.78534 10.062 5.77467 10.0633H5.76534L5.72667 10.0647C5.71334 10.0647 5.702 10.0647 5.688 10.0633H5.67867C5.6686 10.063 5.65856 10.0619 5.64867 10.06C5.64534 10.06 5.64334 10.06 5.64 10.0587L5.60334 10.052C5.6 10.052 5.598 10.05 5.59534 10.05L5.56667 10.0433C5.56334 10.042 5.56 10.042 5.55667 10.04C5.54467 10.0367 5.53334 10.0333 5.52134 10.028C5.51 10.0247 5.5 10.02 5.488 10.0147L5.47867 10.01C5.46946 10.0062 5.46055 10.0018 5.452 9.99667C5.45 9.99467 5.44534 9.99333 5.44534 9.99333C5.43432 9.98797 5.42364 9.98196 5.41334 9.97533C5.412 9.97333 5.40667 9.97 5.40667 9.97C5.39824 9.96541 5.39041 9.95982 5.38334 9.95333L5.37534 9.94867C5.36467 9.942 5.35534 9.93333 5.34667 9.92667C5.33737 9.91937 5.32847 9.91158 5.32 9.90333L5.288 9.872C5.27999 9.86351 5.27242 9.85461 5.26534 9.84533C5.26334 9.84333 5.262 9.84 5.26 9.83867C5.25348 9.83139 5.24788 9.82333 5.24334 9.81467L5.23867 9.80667L5.21867 9.77667V9.77467C5.212 9.76533 5.20667 9.75467 5.20134 9.74467C5.15658 9.65871 5.13322 9.56324 5.13322 9.46633C5.13322 9.36943 5.15658 9.27462 5.20134 9.18867ZM9.86667 8.71667V11.8667C9.86667 11.94 9.92667 12 10 12H10.8C10.8175 12 10.8349 11.9966 10.851 11.9899C10.8672 11.9832 10.8819 11.9733 10.8943 11.9609C10.9067 11.9486 10.9165 11.9339 10.9232 11.9177C10.9299 11.9015 10.9333 11.8842 10.9333 11.8667V8.71667C10.5863 8.827 10.2137 8.827 9.86667 8.71667ZM10.9333 5.41667V4.13333C10.9333 4.11582 10.9299 4.09849 10.9232 4.08231C10.9165 4.06613 10.9067 4.05143 10.8943 4.03905C10.8819 4.02667 10.8672 4.01685 10.851 4.01015C10.8349 4.00345 10.8175 4 10.8 4H10C9.98249 4 9.96516 4.00345 9.94898 4.01015C9.9328 4.01685 9.9181 4.02667 9.90572 4.03905C9.89334 4.05143 9.88352 4.06613 9.87682 4.08231C9.87012 4.09849 9.86667 4.11582 9.86667 4.13333V5.41667C10.2137 5.30633 10.5863 5.30633 10.9333 5.41667Z" fill="#A9AAAB"/>
<path d="M9.86602 8.71656C10.213 8.8269 10.5857 8.8269 10.9327 8.71656C11.3256 8.58951 11.6602 8.32637 11.8763 7.97452C12.0924 7.62268 12.1758 7.20524 12.1115 6.79736C12.0472 6.38948 11.8394 6.01795 11.5255 5.74967C11.2116 5.48139 10.8123 5.33398 10.3994 5.33398C9.98643 5.33398 9.58708 5.48139 9.27318 5.74967C8.95929 6.01795 8.75148 6.38948 8.68717 6.79736C8.62286 7.20524 8.70627 7.62268 8.92239 7.97452C9.13851 8.32637 9.47313 8.58951 9.86602 8.71656ZM9.86802 6.78789L9.88402 6.75856V6.75656L9.90402 6.72656L9.90935 6.71856C9.91469 6.70989 9.92135 6.70323 9.92602 6.69456C9.92802 6.69323 9.92935 6.68989 9.93135 6.68789L9.95402 6.66123L9.98602 6.62989C9.99402 6.62189 10.0027 6.61523 10.0127 6.60656C10.0218 6.59869 10.0314 6.59135 10.0414 6.58456L10.0494 6.57989C10.058 6.57456 10.0647 6.56789 10.0727 6.56323C10.074 6.56189 10.078 6.55989 10.0794 6.55789C10.0894 6.55123 10.0994 6.54656 10.1114 6.53989C10.1127 6.53856 10.116 6.53856 10.118 6.53656L10.1447 6.52323L10.154 6.51789L10.1874 6.50456C10.1994 6.49989 10.2107 6.49656 10.2227 6.49323C10.226 6.49189 10.2294 6.49189 10.2327 6.48989C10.242 6.48687 10.2516 6.48464 10.2614 6.48323L10.2694 6.48189C10.2814 6.47856 10.294 6.47656 10.306 6.47523C10.3094 6.47523 10.3114 6.47523 10.3147 6.47323C10.324 6.47123 10.3347 6.47123 10.3447 6.46989H10.354L10.3927 6.46856C10.406 6.46856 10.4174 6.46856 10.4307 6.46989H10.4407C10.4537 6.47029 10.4667 6.47208 10.4794 6.47523C10.4914 6.47656 10.5047 6.47856 10.516 6.48189L10.524 6.48323L10.5527 6.48989C10.556 6.49123 10.5594 6.49123 10.5627 6.49323C10.5747 6.49656 10.586 6.49989 10.598 6.50523C10.6094 6.50856 10.6194 6.51323 10.6314 6.51856L10.6407 6.52323C10.6499 6.527 10.6588 6.53145 10.6674 6.53656C10.6694 6.53856 10.6727 6.53856 10.674 6.53989C10.685 6.54525 10.6957 6.55127 10.706 6.55789C10.7074 6.55989 10.7107 6.56189 10.7127 6.56323C10.7207 6.56856 10.7294 6.57323 10.736 6.57989L10.744 6.58456C10.754 6.59123 10.764 6.59989 10.7727 6.60656C10.782 6.61386 10.7909 6.62165 10.7994 6.62989L10.8307 6.66123C10.8392 6.66968 10.8472 6.67858 10.8547 6.68789L10.8594 6.69456C10.866 6.70123 10.8707 6.70989 10.876 6.71856L10.8814 6.72656L10.9014 6.75656V6.75856C10.908 6.76789 10.9127 6.77856 10.9174 6.78856C10.9621 6.87451 10.9855 6.96999 10.9855 7.06689C10.9855 7.1638 10.9621 7.25928 10.9174 7.34523L10.9014 7.37456V7.37656L10.8814 7.40656L10.876 7.41456L10.8594 7.43856C10.8574 7.43989 10.856 7.44323 10.854 7.44523L10.8314 7.47189L10.7994 7.50323L10.7727 7.52656C10.7635 7.5342 10.754 7.54132 10.744 7.54789L10.736 7.55323C10.728 7.55856 10.7214 7.56523 10.7127 7.56989C10.7107 7.57123 10.7074 7.57323 10.706 7.57523C10.696 7.58189 10.686 7.58656 10.674 7.59323C10.6727 7.59456 10.6694 7.59456 10.6674 7.59656C10.6594 7.60189 10.6514 7.60523 10.6407 7.60989L10.6314 7.61523L10.598 7.62856C10.586 7.63323 10.574 7.63656 10.5627 7.63989C10.5594 7.64123 10.556 7.64123 10.5527 7.64323C10.5433 7.64625 10.5337 7.64848 10.524 7.64989C10.5207 7.64989 10.5194 7.65189 10.516 7.65189C10.504 7.65523 10.4907 7.65656 10.4794 7.65856C10.476 7.65856 10.4747 7.65856 10.4714 7.65989C10.4607 7.66123 10.4514 7.66123 10.4407 7.66323H10.4314L10.3927 7.66456C10.3794 7.66456 10.368 7.66456 10.354 7.66323H10.3447C10.3347 7.66323 10.3247 7.66123 10.3147 7.65989C10.3114 7.65989 10.3094 7.65989 10.306 7.65856C10.294 7.65656 10.2814 7.65523 10.2694 7.65189C10.266 7.65189 10.264 7.64989 10.2614 7.64989C10.2514 7.64856 10.2414 7.64523 10.2327 7.64323C10.2294 7.64189 10.226 7.64189 10.2227 7.63989C10.2107 7.63656 10.1994 7.63323 10.1874 7.62789C10.176 7.62456 10.166 7.61989 10.154 7.61456L10.1447 7.60989C10.1355 7.60612 10.1266 7.60167 10.118 7.59656C10.116 7.59523 10.1127 7.59523 10.1114 7.59323C10.1003 7.58787 10.0897 7.58186 10.0794 7.57523C10.078 7.57323 10.074 7.57189 10.0727 7.56989C10.0647 7.56456 10.056 7.55989 10.0494 7.55323C10.046 7.55189 10.044 7.54989 10.0414 7.54789L10.0127 7.52656C10.0034 7.51926 9.99449 7.51147 9.98602 7.50323L9.95402 7.47123C9.94577 7.46276 9.93799 7.45386 9.93069 7.44456L9.92602 7.43789C9.91935 7.43123 9.91469 7.42323 9.90935 7.41523L9.90402 7.40656L9.88402 7.37656V7.37523C9.83148 7.28696 9.80236 7.18674 9.79945 7.08406C9.79653 6.98138 9.81991 6.87966 9.86735 6.78856L9.86802 6.78789Z" fill="#A9AAAB"/>
</svg>
