<svg width="16" height="16" viewBox="0 0 16 16" fill="none" xmlns="http://www.w3.org/2000/svg">
<mask id="path-1-inside-1_11444_5545" fill="white">
<path fill-rule="evenodd" clip-rule="evenodd" d="M2.08363 3.05963C2.5314 2.85083 3.48806 2.48474 4.70485 2.48474C5.15317 2.48474 5.67853 2.58582 6.21804 2.72389C6.75098 2.86029 7.32615 3.04059 7.8909 3.21762L7.92522 3.22837C8.50591 3.41038 9.07515 3.58816 9.60043 3.72091C10.1295 3.85464 10.587 3.93538 10.9468 3.93538C11.7707 3.93538 12.5426 3.7212 13.0838 3.51974C13.6688 3.30199 14.3993 3.70609 14.3993 4.40105V12.9382C14.4107 13.1153 14.3054 13.225 14.2729 13.2553C14.2316 13.2939 14.1919 13.3142 14.1779 13.3211C14.1155 13.3521 12.9934 13.8935 10.7858 13.8935C9.64939 13.8935 8.37233 13.5748 7.22193 13.2734C7.14394 13.253 7.06666 13.2327 6.99011 13.2126C5.90128 12.9265 4.9613 12.6795 4.27411 12.6795C3.83159 12.6795 3.47182 12.7356 3.18708 12.8116C2.83858 12.9045 2.45627 12.8056 2.17505 12.6379C1.89947 12.4736 1.6001 12.1662 1.6001 11.7416V3.83548C1.6001 3.52134 1.76802 3.2068 2.08363 3.05963Z"/>
</mask>
<path d="M2.08363 3.05963L2.71756 4.41909L2.71756 4.41909L2.08363 3.05963ZM6.21804 2.72389L6.58996 1.27073L6.58993 1.27072L6.21804 2.72389ZM7.8909 3.21762L7.44223 4.64895L7.44253 4.64904L7.8909 3.21762ZM7.92522 3.22837L8.37385 1.79703L8.37359 1.79695L7.92522 3.22837ZM9.60043 3.72091L9.96798 2.26664L9.96796 2.26663L9.60043 3.72091ZM13.0838 3.51974L12.5605 2.11397L12.5605 2.11398L13.0838 3.51974ZM14.3993 12.9382H12.8993V12.9864L12.9024 13.0345L14.3993 12.9382ZM14.2729 13.2553L13.25 12.1581L13.2487 12.1594L14.2729 13.2553ZM14.1779 13.3211L13.5148 11.9756L13.5105 11.9777L14.1779 13.3211ZM7.22193 13.2734L7.60209 11.8223L7.60152 11.8222L7.22193 13.2734ZM6.99011 13.2126L6.60891 14.6633L6.60916 14.6634L6.99011 13.2126ZM3.18708 12.8116L3.57344 14.261L3.5739 14.2608L3.18708 12.8116ZM2.17505 12.6379L2.94331 11.3496L2.9432 11.3495L2.17505 12.6379ZM2.71756 4.41909C3.04559 4.26613 3.77996 3.98474 4.70485 3.98474V0.984741C3.19616 0.984741 2.01721 1.43554 1.4497 1.70017L2.71756 4.41909ZM4.70485 3.98474C4.95979 3.98474 5.33739 4.04686 5.84615 4.17706L6.58993 1.27072C6.01967 1.12478 5.34655 0.984741 4.70485 0.984741V3.98474ZM5.84612 4.17705C6.33316 4.30171 6.8687 4.46916 7.44223 4.64895L8.33957 1.7863C7.7836 1.61202 7.1688 1.41888 6.58996 1.27073L5.84612 4.17705ZM7.44253 4.64904L7.47685 4.65979L8.37359 1.79695L8.33927 1.7862L7.44253 4.64904ZM7.47658 4.65971C8.04902 4.83913 8.65943 5.03026 9.2329 5.17519L9.96796 2.26663C9.49087 2.14606 8.9628 1.98163 8.37385 1.79703L7.47658 4.65971ZM9.23288 5.17518C9.79546 5.31737 10.3976 5.43538 10.9468 5.43538V2.43538C10.7765 2.43538 10.4636 2.39191 9.96798 2.26664L9.23288 5.17518ZM10.9468 5.43538C12.0136 5.43538 12.9717 5.16203 13.6071 4.9255L12.5605 2.11398C12.1135 2.28037 11.5278 2.43538 10.9468 2.43538V5.43538ZM13.6071 4.92551C13.4264 4.99275 13.2692 4.95501 13.163 4.88827C13.0333 4.80679 12.8993 4.62746 12.8993 4.40105H15.8993C15.8993 2.50073 13.9711 1.58891 12.5605 2.11397L13.6071 4.92551ZM12.8993 4.40105V12.9382H15.8993V4.40105H12.8993ZM12.9024 13.0345C12.8701 12.5332 13.1705 12.2323 13.25 12.1581L15.2958 14.3524C15.4403 14.2177 15.9513 13.6974 15.8962 12.8418L12.9024 13.0345ZM13.2487 12.1594C13.3616 12.0539 13.4701 11.9976 13.5148 11.9756L14.841 14.6665C14.9137 14.6307 15.1016 14.5339 15.2971 14.3511L13.2487 12.1594ZM13.5105 11.9777C13.6341 11.9163 12.7391 12.3935 10.7858 12.3935V15.3935C13.2477 15.3935 14.5969 14.7878 14.8453 14.6644L13.5105 11.9777ZM10.7858 12.3935C9.87403 12.3935 8.7825 12.1316 7.60209 11.8223L6.84177 14.7244C7.96216 15.0179 9.42475 15.3935 10.7858 15.3935V12.3935ZM7.60152 11.8222C7.52436 11.802 7.44787 11.7819 7.37106 11.7618L6.60916 14.6634C6.68544 14.6834 6.76351 14.7039 6.84234 14.7245L7.60152 11.8222ZM7.37131 11.7618C6.36773 11.4981 5.20249 11.1795 4.27411 11.1795V14.1795C4.72011 14.1795 5.43482 14.3548 6.60891 14.6633L7.37131 11.7618ZM4.27411 11.1795C3.70314 11.1795 3.21324 11.2521 2.80026 11.3623L3.5739 14.2608C3.7304 14.2191 3.96004 14.1795 4.27411 14.1795V11.1795ZM2.80071 11.3622C2.88556 11.3396 2.93772 11.3492 2.94364 11.3503C2.94856 11.3513 2.94887 11.3517 2.946 11.3506C2.94307 11.3495 2.94174 11.3486 2.94331 11.3496L1.40679 13.9262C1.92737 14.2366 2.72729 14.4865 3.57344 14.261L2.80071 11.3622ZM2.9432 11.3495C2.94699 11.3517 2.95126 11.3546 2.95758 11.3601C2.96386 11.3656 2.97895 11.3798 2.99786 11.4058C3.03948 11.4631 3.1001 11.5821 3.1001 11.7416H0.100098C0.100098 12.9256 0.919184 13.6355 1.4069 13.9263L2.9432 11.3495ZM3.1001 11.7416V3.83548H0.100098V11.7416H3.1001ZM3.1001 3.83548C3.1001 4.03474 2.99054 4.2918 2.71756 4.41909L1.4497 1.70017C0.545508 2.1218 0.100098 3.00795 0.100098 3.83548H3.1001Z" fill="#A9AAAB" mask="url(#path-1-inside-1_11444_5545)"/>
<path fill-rule="evenodd" clip-rule="evenodd" d="M4.15249 6.57145L4.09839 6.17513C3.87951 6.205 3.72629 6.40666 3.75616 6.62555C3.78604 6.84443 3.9877 6.99765 4.20658 6.96778M4.15249 6.57145L4.20658 6.96778L4.21044 6.96728L4.22887 6.96505C4.24586 6.96307 4.27203 6.9602 4.3064 6.95695C4.3752 6.95045 4.4765 6.94249 4.60243 6.93715C4.8551 6.92646 5.20256 6.92657 5.58295 6.96899C5.93946 7.00874 6.39433 7.14765 6.77881 7.28702C6.96697 7.35523 7.13093 7.42081 7.24767 7.46927C7.30595 7.49346 7.35223 7.51329 7.38361 7.52692L7.41906 7.54246L7.42769 7.5463L7.4296 7.54716C7.4296 7.54715 7.42961 7.54716 7.4296 7.54716C7.63099 7.63786 7.86814 7.54832 7.9589 7.34695C8.04967 7.14554 7.95997 6.90869 7.75857 6.81792L7.60716 7.15388C7.75857 6.81792 7.75861 6.81794 7.75857 6.81792L7.75716 6.81729L7.75407 6.81591L7.74303 6.811L7.70238 6.79318C7.66741 6.77798 7.61709 6.75643 7.55438 6.7304C7.42915 6.67841 7.25357 6.60818 7.05145 6.53491C6.65538 6.39134 6.12677 6.22467 5.67161 6.17392C5.24033 6.12582 4.85039 6.12594 4.56859 6.13787C4.42727 6.14385 4.31207 6.15285 4.23116 6.1605C4.19068 6.16432 4.15871 6.16781 4.13626 6.17043L4.10983 6.17363L4.10219 6.17462L4.09981 6.17494L4.09839 6.17513C4.09833 6.17514 4.09839 6.17513 4.15249 6.57145ZM7.4296 7.54716C7.4296 7.54715 7.42961 7.54716 7.4296 7.54716L7.59323 7.18479C7.42987 7.54728 7.42958 7.54714 7.4296 7.54716Z" fill="#A9AAAB"/>
<path fill-rule="evenodd" clip-rule="evenodd" d="M5.97573 8.63513C6.0465 8.42585 6.27352 8.31358 6.48279 8.38435L6.35465 8.76327C6.48279 8.38435 6.4828 8.38435 6.48279 8.38435L6.48655 8.38561L6.49887 8.38974L6.5475 8.40587C6.59002 8.41988 6.65193 8.44008 6.72875 8.46458C6.88255 8.51362 7.0953 8.57964 7.3313 8.64762C7.81457 8.78683 8.35722 8.92286 8.69836 8.95268C9.06454 8.9847 9.35754 8.98451 9.55627 8.97669C9.65561 8.97279 9.73127 8.96698 9.78062 8.96236C9.80529 8.96005 9.82336 8.95804 9.83452 8.95672L9.84601 8.95529L9.90291 9.34744C9.84685 8.95519 9.84594 8.9553 9.84601 8.95529C10.0647 8.92403 10.2682 9.07587 10.2994 9.29457C10.3307 9.51326 10.1787 9.71588 9.96004 9.74714L9.90344 9.35116C9.96004 9.74714 9.96012 9.74713 9.96004 9.74714L9.95855 9.74735L9.95637 9.74765L9.94994 9.74851L9.92893 9.75113C9.91134 9.75322 9.88664 9.75594 9.85517 9.75888C9.79225 9.76477 9.70218 9.77158 9.58771 9.77608C9.35882 9.78508 9.03186 9.78489 8.62869 9.74964C8.20048 9.71221 7.58869 9.55429 7.10986 9.41636C6.86481 9.34578 6.6446 9.27744 6.48569 9.22676C6.40616 9.2014 6.34179 9.1804 6.29711 9.16567L6.24539 9.14852L6.23163 9.14391L6.22696 9.14234C6.22692 9.14233 6.22651 9.14219 6.35465 8.76327L6.22696 9.14234C6.01769 9.07157 5.90496 8.8444 5.97573 8.63513Z" fill="#A9AAAB"/>
</svg>
