<svg width="16" height="16" viewBox="0 0 16 16" fill="none" xmlns="http://www.w3.org/2000/svg">
<path fill-rule="evenodd" clip-rule="evenodd" d="M10.8755 3.73041C10.8874 3.81858 10.8935 3.90857 10.8935 4V5.69491C10.8935 6.0348 10.9801 6.36908 11.1452 6.6662L13.5688 11.0287C14.3094 12.3618 13.3455 14 11.8205 14H4.20405C2.67908 14 1.71514 12.3618 2.45573 11.0287L4.87936 6.6662C5.04442 6.36908 5.13104 6.0348 5.13104 5.69491V4C5.13104 3.90857 5.13718 3.81858 5.14906 3.73041H4.26676C3.78893 3.73041 3.40156 3.34304 3.40156 2.8652C3.40156 2.38737 3.78893 2 4.26676 2H7.13104H8.89352H12.0536C12.5314 2 12.9188 2.38737 12.9188 2.8652C12.9188 3.34304 12.5314 3.73041 12.0536 3.73041H10.8755ZM5.43936 10.4125C5.52841 10.3235 5.79567 10.1346 6.21341 9.96752C6.62133 9.80435 7.14358 9.67401 7.72908 9.67401C8.2138 9.67401 8.67442 9.85276 9.24808 10.0754L9.25306 10.0773C9.80427 10.2912 10.4493 10.5392 11.1899 10.5392C11.4288 10.5392 11.6225 10.3455 11.6225 10.1066C11.6225 9.86769 11.4288 9.67401 11.1899 9.67401C10.6327 9.67401 10.1296 9.48941 9.56607 9.27071L9.49668 9.24373C8.9743 9.04051 8.3787 8.8088 7.72908 8.8088C7.01677 8.8088 6.38541 8.96686 5.89208 9.1642C5.40856 9.3576 5.02692 9.60136 4.82757 9.80071C4.65863 9.96966 4.65863 10.2436 4.82757 10.4125C4.99651 10.5814 5.27042 10.5814 5.43936 10.4125Z" fill="#A9AAAB"/>
</svg>
