<svg width="16" height="16" viewBox="0 0 16 16" fill="none" xmlns="http://www.w3.org/2000/svg">
<rect x="1.5" y="1.5" width="13" height="13" rx="0.5" stroke="#A9AAAB"/>
<path d="M7.30565 9.06547H12V9.90893H7.30565V9.06547ZM7.30565 5.77036H12V6.61382H7.30565V5.77036ZM5.3418 8.32814C5.11256 8.32814 4.88847 8.39612 4.69787 8.52348C4.50726 8.65084 4.3587 8.83186 4.27098 9.04365C4.18325 9.25543 4.1603 9.48848 4.20502 9.71332C4.24974 9.93815 4.36013 10.1447 4.52223 10.3068C4.68432 10.4689 4.89085 10.5793 5.11568 10.624C5.34052 10.6687 5.57356 10.6457 5.78535 10.558C5.99714 10.4703 6.17816 10.3217 6.30552 10.1311C6.43288 9.94053 6.50085 9.71643 6.50085 9.4872C6.50048 9.17991 6.37825 8.88532 6.16096 8.66803C5.94368 8.45075 5.64909 8.32852 5.3418 8.32814ZM5.3418 9.8042C5.27938 9.8042 5.21837 9.78569 5.16647 9.75101C5.11457 9.71633 5.07412 9.66704 5.05023 9.60937C5.02634 9.55171 5.02009 9.48825 5.03227 9.42703C5.04445 9.36581 5.07451 9.30958 5.11864 9.26544C5.16278 9.22131 5.21901 9.19125 5.28023 9.17907C5.34145 9.16689 5.40491 9.17314 5.46257 9.19703C5.52024 9.22092 5.56953 9.26137 5.60421 9.31327C5.63889 9.36517 5.6574 9.42618 5.6574 9.4886C5.65684 9.572 5.62337 9.65181 5.56426 9.71065C5.50516 9.76949 5.4252 9.80261 5.3418 9.80279V9.8042ZM5.08244 5.9756L4.58128 5.49975L4 6.11126L5.14148 7.1951L6.56552 5.55246L5.928 5L5.08244 5.9756Z" fill="#A9AAAB"/>
</svg>
