<svg width="16" height="16" viewBox="0 0 16 16" fill="none" xmlns="http://www.w3.org/2000/svg">
<path d="M2.28931 10.9354V2.3446H13.7109V10.9354H2.28931Z" stroke="#A9AAAB"/>
<path d="M14.0508 11.7212L13.3326 12.2718C12.9258 12.5837 12.3581 12.575 11.9609 12.251C11.577 11.9376 11.0317 11.9181 10.6263 12.2029L10.4282 12.3421C10.034 12.6192 9.50827 12.6192 9.114 12.3421L8.81978 12.1354C8.45968 11.8823 7.98624 11.8584 7.60257 12.0742L6.93249 12.4509C6.54882 12.6667 6.07538 12.6428 5.71528 12.3898L5.42106 12.183C5.02679 11.9059 4.50107 11.9059 4.10681 12.183L3.92551 12.3104C3.50947 12.6028 2.95031 12.5851 2.55355 12.2671L1.87256 11.7212" stroke="#A9AAAB" stroke-width="0.5" stroke-linecap="round" stroke-linejoin="round"/>
<path d="M14.2109 13.0896H1.78931V14.1555H14.2109V13.0896Z" fill="#A9AAAB" stroke="#A9AAAB" stroke-width="0.5"/>
</svg>
