<svg width="16" height="16" viewBox="0 0 16 16" fill="none" xmlns="http://www.w3.org/2000/svg">
<path fill-rule="evenodd" clip-rule="evenodd" d="M13.186 4.67868C13.2181 4.66033 13.2464 4.63786 13.2706 4.6123C13.2707 4.61844 13.2708 4.62458 13.2708 4.63073V9.48615C13.2708 9.79512 13.1052 10.0804 12.8369 10.2337L8.57504 12.6691C8.55429 12.6809 8.53316 12.6919 8.51172 12.7019L8.51172 8.51053C8.51172 7.79284 8.89627 7.13017 9.51938 6.77407L13.186 4.67868Z" fill="#A9AAAB"/>
<path fill-rule="evenodd" clip-rule="evenodd" d="M6.76666 6.73604C7.39201 7.09152 7.77831 7.75544 7.77831 8.47477V12.6986C7.75829 12.6891 7.73856 12.6788 7.71914 12.6677L3.45726 10.2324C3.18899 10.0791 3.02344 9.79379 3.02344 9.48482V4.6294C3.02344 4.62239 3.02352 4.61539 3.02369 4.6084L3.026 4.60972L6.76666 6.73604Z" fill="#A9AAAB"/>
<path fill-rule="evenodd" clip-rule="evenodd" d="M7.71915 1.44718C7.98385 1.29593 8.3088 1.29593 8.57349 1.44718L12.8354 3.88255C12.8913 3.91449 12.9427 3.95216 12.9891 3.99458C12.932 3.99669 12.8745 4.01226 12.8214 4.04261L9.16682 6.13108C8.55334 6.48167 7.80041 6.48253 7.18613 6.13336L3.38768 3.97418C3.37521 3.96709 3.3625 3.96082 3.34961 3.95534C3.38331 3.92863 3.41926 3.90426 3.45726 3.88255L7.71915 1.44718Z" fill="#A9AAAB"/>
<path fill-rule="evenodd" clip-rule="evenodd" d="M3.01953 10.8906V14.4896C3.01953 14.7401 3.22262 14.9432 3.47314 14.9432C3.72367 14.9432 3.92676 14.7401 3.92676 14.4896V11.3952L3.01953 10.8906Z" fill="#A9AAAB"/>
<path fill-rule="evenodd" clip-rule="evenodd" d="M5.35547 12.1892V14.4914C5.35547 14.7419 5.55856 14.945 5.80908 14.945C6.0596 14.945 6.26269 14.7419 6.26269 14.4914L6.26269 12.6938L5.35547 12.1892Z" fill="#A9AAAB"/>
<path fill-rule="evenodd" clip-rule="evenodd" d="M7.69141 13.489V14.498C7.69141 14.7486 7.8945 14.9517 8.14502 14.9517C8.39554 14.9517 8.59863 14.7486 8.59863 14.498V13.4954L8.15088 13.7446L7.69141 13.489Z" fill="#A9AAAB"/>
<path fill-rule="evenodd" clip-rule="evenodd" d="M10.0293 12.6994V14.4904C10.0293 14.7409 10.2324 14.944 10.4829 14.944C10.7334 14.944 10.9365 14.7409 10.9365 14.4904V12.1946L10.0293 12.6994Z" fill="#A9AAAB"/>
<path fill-rule="evenodd" clip-rule="evenodd" d="M12.3652 11.4013V14.4922C12.3652 14.7428 12.5683 14.9459 12.8188 14.9459C13.0694 14.9459 13.2725 14.7428 13.2725 14.4922L13.2725 10.8965L12.3652 11.4013Z" fill="#A9AAAB"/>
</svg>
