<svg width="16" height="16" viewBox="0 0 16 16" fill="none" xmlns="http://www.w3.org/2000/svg">
<path d="M12.7875 14.0002C13.9923 12.7283 14.7379 10.9686 14.7379 9.0245C14.7379 5.14498 11.7688 2 8.10628 2C4.44371 2 1.47461 5.14498 1.47461 9.0245C1.47461 10.9686 2.22023 12.7283 3.4251 14.0002" stroke="#A9AAAB" stroke-linecap="round"/>
<path d="M9.77356 6.571C9.77356 6.571 9.51213 9.87286 9.14506 10.5351C9.05972 10.6962 8.94312 10.8387 8.80208 10.9542C8.66104 11.0697 8.4984 11.1559 8.32365 11.2079C8.1489 11.2598 7.96555 11.2764 7.78432 11.2566C7.6031 11.2369 7.42762 11.1812 7.26815 11.0928C7.10869 11.0045 6.96843 10.8853 6.85558 10.7421C6.74273 10.5989 6.65954 10.4347 6.61089 10.259C6.56224 10.0833 6.54909 9.89969 6.57222 9.71886C6.59535 9.53804 6.65429 9.36363 6.7456 9.20585C7.11249 8.54292 9.77356 6.571 9.77356 6.571Z" fill="#A9AAAB" stroke="#A9AAAB" stroke-width="1.5" stroke-linejoin="round"/>
</svg>
