<svg width="16" height="16" viewBox="0 0 16 16" fill="none" xmlns="http://www.w3.org/2000/svg">
<path fill-rule="evenodd" clip-rule="evenodd" d="M13.185 4.67868C13.2172 4.66033 13.2454 4.63786 13.2696 4.6123C13.2697 4.61844 13.2698 4.62458 13.2698 4.63073V9.48615C13.2698 9.79512 13.1042 10.0804 12.836 10.2337L8.57407 12.6691C8.55331 12.6809 8.53218 12.6919 8.51074 12.7019L8.51074 8.51053C8.51074 7.79284 8.89529 7.13017 9.5184 6.77407L13.185 4.67868Z" fill="#A9AAAB"/>
<path fill-rule="evenodd" clip-rule="evenodd" d="M6.7669 6.73617C7.39226 7.09164 7.77855 7.75556 7.77855 8.47489V12.6987C7.75854 12.6892 7.7388 12.6789 7.71939 12.6679L3.4575 10.2325C3.18924 10.0792 3.02368 9.79391 3.02368 9.48494V4.62952C3.02368 4.62251 3.02377 4.61551 3.02394 4.60852L3.02625 4.60985L6.7669 6.73617Z" fill="#A9AAAB"/>
<path fill-rule="evenodd" clip-rule="evenodd" d="M7.71964 1.44718C7.98434 1.29593 8.30928 1.29593 8.57398 1.44718L12.8359 3.88255C12.8918 3.91449 12.9432 3.95216 12.9896 3.99458C12.9325 3.99669 12.8749 4.01226 12.8218 4.04261L9.16731 6.13108C8.55383 6.48167 7.80089 6.48253 7.18662 6.13336L3.38817 3.97418C3.3757 3.96709 3.36299 3.96082 3.3501 3.95534C3.3838 3.92863 3.41975 3.90426 3.45775 3.88255L7.71964 1.44718Z" fill="#A9AAAB"/>
<path fill-rule="evenodd" clip-rule="evenodd" d="M3.01929 10.8905V14.4895C3.01929 14.74 3.22238 14.9431 3.4729 14.9431C3.72342 14.9431 3.92651 14.74 3.92651 14.4895V11.3951L3.01929 10.8905Z" fill="#A9AAAB"/>
<path fill-rule="evenodd" clip-rule="evenodd" d="M5.35474 12.1892V14.4914C5.35474 14.7419 5.55783 14.945 5.80835 14.945C6.05887 14.945 6.26196 14.7419 6.26196 14.4914L6.26196 12.6938L5.35474 12.1892Z" fill="#A9AAAB"/>
<path fill-rule="evenodd" clip-rule="evenodd" d="M7.69214 13.489V14.498C7.69214 14.7486 7.89523 14.9517 8.14575 14.9517C8.39627 14.9517 8.59936 14.7486 8.59936 14.498V13.4954L8.15161 13.7446L7.69214 13.489Z" fill="#A9AAAB"/>
<path fill-rule="evenodd" clip-rule="evenodd" d="M10.0295 12.6994V14.4904C10.0295 14.7409 10.2326 14.944 10.4832 14.944C10.7337 14.944 10.9368 14.7409 10.9368 14.4904V12.1946L10.0295 12.6994Z" fill="#A9AAAB"/>
<path fill-rule="evenodd" clip-rule="evenodd" d="M12.365 11.4013V14.4922C12.365 14.7428 12.5681 14.9459 12.8186 14.9459C13.0691 14.9459 13.2722 14.7428 13.2722 14.4922L13.2722 10.8965L12.365 11.4013Z" fill="#A9AAAB"/>
</svg>
