<svg width="16" height="16" viewBox="0 0 16 16" fill="none" xmlns="http://www.w3.org/2000/svg">
<path fill-rule="evenodd" clip-rule="evenodd" d="M10.9743 1.34192C11.0442 1.55139 11.1226 1.81152 11.2003 2.10326L10.2339 2.36057C10.161 2.08674 10.0884 1.84638 10.0257 1.65815L10.9743 1.34192ZM11.3841 2.8711C11.4907 3.37208 11.5806 3.92087 11.6184 4.4502L10.621 4.52141C10.5874 4.05136 10.5062 3.55023 10.406 3.07914L11.3841 2.8711ZM11.6288 5.27824C11.6112 5.58341 11.5654 5.885 11.4743 6.15815C11.3272 6.59963 10.9425 6.87069 10.5797 7.05052L10.1356 6.15456C10.4306 6.00834 10.5083 5.89407 10.5257 5.84192C10.5803 5.67799 10.6161 5.46953 10.6304 5.22068L11.6288 5.27824ZM8.56953 7.68935C8.34085 7.7477 8.11179 7.80613 7.89235 7.86541L7.63157 6.90001C7.88375 6.83189 8.12553 6.77034 8.35781 6.7112C8.71555 6.62012 9.05075 6.53478 9.36669 6.44004L9.65394 7.39789C9.32338 7.49703 8.94695 7.59306 8.56953 7.68935ZM7.05318 8.1148C6.45986 8.31297 5.95673 8.54226 5.59593 8.83171L4.97016 8.0517C5.46814 7.65219 6.10313 7.37781 6.73639 7.1663L7.05318 8.1148ZM5.14819 9.35639C5.05533 9.53622 5 9.74574 5 10C5 10.2638 5.01282 10.5169 5.03614 10.7588L4.04075 10.8548C4.0144 10.5813 4 10.2962 4 10C4 9.5919 4.09094 9.22432 4.25966 8.89758L5.14819 9.35639ZM5.1463 11.5075C5.25696 12.0619 5.4197 12.5419 5.59651 12.9401L4.68257 13.346C4.47731 12.8837 4.29142 12.3334 4.16564 11.7032L5.1463 11.5075ZM5.93959 13.596C6.1033 13.862 6.25207 14.045 6.35355 14.1465L5.64645 14.8536C5.47723 14.6844 5.28202 14.4355 5.08798 14.1202L5.93959 13.596Z" fill="#A9AAAB"/>
<rect x="1.75" y="1.75" width="12.5" height="12.5" rx="1.25" stroke="#A9AAAB" stroke-width="1.5"/>
</svg>
