<svg width="16" height="16" viewBox="0 0 16 16" fill="none" xmlns="http://www.w3.org/2000/svg">
<rect x="1.5" y="1.5" width="13" height="13" rx="0.5" stroke="#A9AAAB"/>
<path d="M8.30437 9.15565V6.47329C8.30437 6.31022 8.17157 6.17742 8.0085 6.17742H7.98507C7.8259 6.17742 7.69799 6.30632 7.69799 6.46451V9.15565C7.25662 9.28357 6.93341 9.67806 6.93341 10.1487C6.93341 10.7239 7.41091 11.1896 8.00167 11.1896C8.59145 11.1896 9.06895 10.7229 9.06895 10.1487C9.06797 9.67806 8.74476 9.28454 8.30437 9.15565ZM9.87551 7.96729C9.80911 7.91261 9.77005 7.83839 9.77005 7.76223V4.72932C9.77005 3.77531 8.97618 3 8.00069 3C7.0252 3 6.23133 3.77531 6.23133 4.72932V7.6763C6.23133 7.80422 6.1786 7.92237 6.08779 7.99951C5.44821 8.5395 5.08203 9.3236 5.08203 10.1497C5.08203 11.7208 6.39147 13 8.00167 13C9.61186 13 10.9213 11.7218 10.9213 10.1497C10.9203 9.30407 10.5395 8.50825 9.87551 7.96729ZM8.00069 12.0948C6.89728 12.0948 6.00089 11.2219 6.00089 10.1487C6.00089 9.47984 6.35046 8.86466 6.93537 8.50435L7.07695 8.41744C7.12285 8.38912 7.15116 8.33835 7.15116 8.28464V4.72932C7.15116 4.27429 7.53296 3.90421 8.00167 3.90421C8.47037 3.90421 8.85217 4.27429 8.85217 4.72932V8.28464C8.85217 8.33835 8.88049 8.38912 8.92638 8.41744L9.06797 8.50435C9.65287 8.86466 10.0015 9.47886 10.0015 10.1487C10.0005 11.2219 9.10312 12.0948 8.00069 12.0948Z" fill="#A9AAAB"/>
</svg>
