<svg width="16" height="16" viewBox="0 0 16 16" fill="none" xmlns="http://www.w3.org/2000/svg">
<path d="M1.94434 2.74182C1.94434 2.46568 2.16819 2.24182 2.44434 2.24182H13.5559C13.8321 2.24182 14.0559 2.46568 14.0559 2.74182V4.91809C14.0559 5.19423 13.8321 5.41809 13.5559 5.41809H2.44434C2.16819 5.41809 1.94434 5.19423 1.94434 4.91809V2.74182Z" fill="#A9AAAB"/>
<path fill-rule="evenodd" clip-rule="evenodd" d="M2.74434 3.04182V4.61809H13.2559V3.04182H2.74434ZM2.44434 2.24182C2.16819 2.24182 1.94434 2.46568 1.94434 2.74182V4.91809C1.94434 5.19423 2.16819 5.41809 2.44434 5.41809H13.5559C13.8321 5.41809 14.0559 5.19423 14.0559 4.91809V2.74182C14.0559 2.46568 13.8321 2.24182 13.5559 2.24182H2.44434Z" fill="#A9AAAB"/>
<path d="M1.94434 10.9285C1.94434 10.6523 2.16819 10.4285 2.44434 10.4285H13.5559C13.8321 10.4285 14.0559 10.6523 14.0559 10.9285V13.1047C14.0559 13.3809 13.8321 13.6047 13.5559 13.6047H2.44434C2.16819 13.6047 1.94434 13.3809 1.94434 13.1047V10.9285Z" fill="#A9AAAB"/>
<path fill-rule="evenodd" clip-rule="evenodd" d="M2.74434 11.2285V12.8047H13.2559V11.2285H2.74434ZM2.44434 10.4285C2.16819 10.4285 1.94434 10.6523 1.94434 10.9285V13.1047C1.94434 13.3809 2.16819 13.6047 2.44434 13.6047H13.5559C13.8321 13.6047 14.0559 13.3809 14.0559 13.1047V10.9285C14.0559 10.6523 13.8321 10.4285 13.5559 10.4285H2.44434Z" fill="#A9AAAB"/>
<path fill-rule="evenodd" clip-rule="evenodd" d="M2.34409 3.83337C2.565 3.83337 2.74409 4.01245 2.74409 4.23337V11.6165C2.74409 11.8374 2.565 12.0165 2.34409 12.0165C2.12318 12.0165 1.94409 11.8374 1.94409 11.6165L1.94409 4.23337C1.94409 4.01245 2.12318 3.83337 2.34409 3.83337Z" fill="#A9AAAB"/>
<path fill-rule="evenodd" clip-rule="evenodd" d="M13.661 3.8335C13.8819 3.8335 14.061 4.01258 14.061 4.2335V11.6166C14.061 11.8375 13.8819 12.0166 13.661 12.0166C13.4401 12.0166 13.261 11.8375 13.261 11.6166V4.2335C13.261 4.01258 13.4401 3.8335 13.661 3.8335Z" fill="#A9AAAB"/>
</svg>
