<svg width="48" height="48" viewBox="0 0 48 48" fill="none" xmlns="http://www.w3.org/2000/svg">
<path fill-rule="evenodd" clip-rule="evenodd" d="M23.9955 9.45093L7.43164 17.1789L14.4585 20.6798L7.43311 23.9575L14.5407 27.4986L7.43311 30.8147L23.9706 39.0538L40.5079 30.8148L33.4113 27.4932L40.5079 23.9577L33.4927 20.6741L31.2073 21.8127L35.9101 24.0138L23.9706 29.9621L12.0368 24.0166L16.7461 21.8195L23.9691 25.418L40.5065 17.179L23.9955 9.45093ZM23.9942 11.6585L12.0353 17.238L23.9691 23.1836L35.9086 17.2352L23.9942 11.6585ZM12.0368 30.8738L16.8283 28.6383L23.9706 32.1966L31.126 28.6318L35.9101 30.871L23.9706 36.8193L12.0368 30.8738Z" fill="white"/>
</svg>
