<svg width="46" height="46" viewBox="0 0 46 46" fill="none" xmlns="http://www.w3.org/2000/svg">
<path d="M20.1599 34.6283C21.0703 34.8502 22.0214 34.9678 23 34.9678C29.6015 34.9678 34.9531 29.6162 34.9531 23.0146C34.9531 18.7031 32.6704 14.9247 29.2475 12.8222L28.699 14.1385C31.6153 16.0148 33.5469 19.2892 33.5469 23.0146C33.5469 28.8395 28.8249 33.5615 23 33.5615C22.2131 33.5615 21.4463 33.4753 20.7086 33.3119L20.1599 34.6283Z" fill="#62D361"/>
<path d="M25.2338 12.7048C24.5138 12.5495 23.7665 12.4678 23 12.4678C17.1751 12.4678 12.4531 17.1898 12.4531 23.0146C12.4531 26.719 14.3629 29.9773 17.2515 31.8587L16.7025 33.1762C13.3074 31.0677 11.0469 27.3052 11.0469 23.0146C11.0469 16.4131 16.3985 11.0615 23 11.0615C23.9582 11.0615 24.89 11.1743 25.7829 11.3872L25.2338 12.7048Z" fill="#62D361"/>
<circle cx="23" cy="23.0183" r="1.875" fill="#62D361"/>
<path d="M28.2059 12.8775C28.1658 12.5543 28.4405 12.2796 28.7637 12.3197L33.5993 12.9195C34.0124 12.9708 34.1857 13.4749 33.8913 13.7693L29.6555 18.0051C29.3612 18.2995 28.857 18.1262 28.8058 17.7131L28.2059 12.8775Z" fill="#62D361"/>
<path d="M17.9113 33.3386C17.9513 33.6618 17.6767 33.9364 17.3535 33.8964L12.5179 33.2965C12.1047 33.2453 11.9315 32.7411 12.2259 32.4468L16.4617 28.211C16.756 27.9166 17.2602 28.0899 17.3114 28.503L17.9113 33.3386Z" fill="#62D361"/>
</svg>
