<svg width="16" height="16" viewBox="0 0 16 16" fill="none" xmlns="http://www.w3.org/2000/svg">
<path d="M13.1422 1C13.3697 1 13.5879 1.09137 13.7488 1.25401C13.9096 1.41665 14 1.63724 14 1.86725V14.1331C13.9999 14.3631 13.9095 14.5836 13.7486 14.7461C13.5878 14.9087 13.3697 15 13.1422 15H2.85775C2.63032 15 2.4122 14.9087 2.25136 14.7461C2.09051 14.5836 2.0001 14.3631 2 14.1331V1.86725C2 1.63725 2.09037 1.41666 2.25123 1.25402C2.41208 1.09138 2.63026 1 2.85775 1H13.1422ZM5.00053 6.19949C4.88796 6.19969 4.77645 6.17743 4.67239 6.13401C4.56833 6.09058 4.47376 6.02684 4.39409 5.94643C4.31442 5.86601 4.25122 5.7705 4.20809 5.66536C4.16497 5.56022 4.14277 5.44752 4.14277 5.3337V1.86688H2.85775V14.1331H13.1444V1.86725H11.8587V5.33226C11.8587 5.56227 11.7683 5.78285 11.6074 5.94549C11.4466 6.10813 11.2284 6.19949 11.0009 6.19949H5.00053ZM5.00053 5.3337H11.0005V1.86688H5.00053V5.3337ZM10.9991 8.79906C11.0568 8.7966 11.1143 8.80595 11.1683 8.82654C11.2223 8.84713 11.2717 8.87854 11.3133 8.91889C11.355 8.95923 11.3882 9.00768 11.4109 9.06132C11.4337 9.11496 11.4454 9.17269 11.4455 9.23103C11.4456 9.28938 11.434 9.34715 11.4115 9.40087C11.389 9.45458 11.3559 9.50314 11.3144 9.54362C11.2728 9.58411 11.2236 9.61569 11.1697 9.63646C11.1157 9.65723 11.0582 9.66677 11.0005 9.6645H5.00053C4.88702 9.6645 4.77816 9.61891 4.6979 9.53776C4.61764 9.45661 4.57255 9.34655 4.57255 9.23178C4.57255 9.11702 4.61764 9.00696 4.6979 8.9258C4.77816 8.84465 4.88702 8.79906 5.00053 8.79906H10.9991Z" fill="white"/>
</svg>
