<svg width="46" height="46" viewBox="0 0 46 46" fill="none" xmlns="http://www.w3.org/2000/svg">
<path fill-rule="evenodd" clip-rule="evenodd" d="M16.5664 14.3472H12.6875H11.9375V15.0972V33.6118V34.3618H12.6875H27.896H28.646V33.6118V31.0147H27.146V32.8618H13.4375V15.8472H16.5664V14.3472Z" fill="#62D361"/>
<path d="M17.3164 30.2647H32.5249V15.5265L28.7483 11.75H17.3164V30.2647Z" stroke="#62D361" stroke-width="1.5"/>
<path d="M28.6135 20.709V21.3379C28.6135 22.0853 28.5201 22.7552 28.3332 23.3477C28.1464 23.9401 27.8775 24.4437 27.5266 24.8584C27.1757 25.2731 26.7541 25.5898 26.262 25.8086C25.7743 26.0273 25.2275 26.1367 24.6213 26.1367C24.0334 26.1367 23.4934 26.0273 23.0012 25.8086C22.5136 25.5898 22.0898 25.2731 21.7297 24.8584C21.3743 24.4437 21.0985 23.9401 20.9026 23.3477C20.7066 22.7552 20.6086 22.0853 20.6086 21.3379V20.709C20.6086 19.9616 20.7043 19.2939 20.8957 18.7061C21.0917 18.1136 21.3674 17.61 21.7229 17.1953C22.0784 16.776 22.4999 16.457 22.9875 16.2383C23.4797 16.0195 24.0198 15.9102 24.6077 15.9102C25.2138 15.9102 25.7607 16.0195 26.2483 16.2383C26.7405 16.457 27.162 16.776 27.5129 17.1953C27.8684 17.61 28.1396 18.1136 28.3264 18.7061C28.5178 19.2939 28.6135 19.9616 28.6135 20.709ZM27.3079 21.3379V20.6953C27.3079 20.1029 27.2463 19.5788 27.1233 19.123C27.0048 18.6673 26.8293 18.2845 26.5969 17.9746C26.3645 17.6647 26.0797 17.43 25.7424 17.2705C25.4097 17.111 25.0315 17.0312 24.6077 17.0312C24.1975 17.0312 23.8261 17.111 23.4934 17.2705C23.1653 17.43 22.8827 17.6647 22.6457 17.9746C22.4133 18.2845 22.2333 18.6673 22.1057 19.123C21.9781 19.5788 21.9143 20.1029 21.9143 20.6953V21.3379C21.9143 21.9349 21.9781 22.4635 22.1057 22.9238C22.2333 23.3796 22.4156 23.7646 22.6526 24.0791C22.8941 24.389 23.1789 24.6237 23.5071 24.7832C23.8398 24.9427 24.2112 25.0225 24.6213 25.0225C25.0497 25.0225 25.4303 24.9427 25.7629 24.7832C26.0956 24.6237 26.3759 24.389 26.6038 24.0791C26.8362 23.7646 27.0116 23.3796 27.1301 22.9238C27.2486 22.4635 27.3079 21.9349 27.3079 21.3379Z" fill="#62D361"/>
</svg>
