<svg width="46" height="46" viewBox="0 0 46 46" fill="none" xmlns="http://www.w3.org/2000/svg">
<path fill-rule="evenodd" clip-rule="evenodd" d="M16.5664 14.3472H12.6875H11.9375V15.0972V33.6118V34.3618H12.6875H27.896H28.646V33.6118V31.0147H27.146V32.8618H13.4375V15.8472H16.5664V14.3472Z" fill="#62D361"/>
<path d="M17.3164 30.2647H32.5249V15.5265L28.7483 11.75H17.3164V30.2647Z" stroke="#62D361" stroke-width="1.5"/>
<path d="M24.8899 22.8975H22.2307V21.8242H24.8899C25.4049 21.8242 25.8219 21.7422 26.1409 21.5781C26.4599 21.4141 26.6923 21.1862 26.8381 20.8945C26.9885 20.6029 27.0637 20.2702 27.0637 19.8965C27.0637 19.5547 26.9885 19.2334 26.8381 18.9326C26.6923 18.6318 26.4599 18.3903 26.1409 18.208C25.8219 18.0212 25.4049 17.9277 24.8899 17.9277H22.5383V26.8008H21.219V16.8477H24.8899C25.6418 16.8477 26.2776 16.9775 26.7971 17.2373C27.3166 17.4971 27.7108 17.8571 27.9797 18.3174C28.2486 18.7731 28.383 19.2949 28.383 19.8828C28.383 20.5208 28.2486 21.0654 27.9797 21.5166C27.7108 21.9678 27.3166 22.3118 26.7971 22.5488C26.2776 22.7812 25.6418 22.8975 24.8899 22.8975Z" fill="#62D361"/>
</svg>
