<svg width="46" height="46" viewBox="0 0 46 46" fill="none" xmlns="http://www.w3.org/2000/svg">
<path fill-rule="evenodd" clip-rule="evenodd" d="M30.2774 22.7917C29.7646 22.7917 29.132 22.8598 28.3759 23.0101L28.3746 23.0104C27.7488 23.1329 27.242 23.2857 26.852 23.46V24.6995C27.8087 24.2066 28.8218 23.9569 29.8895 23.9569C30.5392 23.9569 31.1041 24.0978 31.5178 24.4406C31.9368 24.7878 32.1344 25.2866 32.1677 25.8687L32.1679 25.8713C32.1833 26.18 31.9336 26.4261 31.6406 26.4659L31.6371 26.4663L28.992 26.8044L28.9912 26.8045C27.8731 26.952 27.0935 27.2773 26.5953 27.7391C26.106 28.1925 25.842 28.8201 25.842 29.6709C25.842 30.4896 26.0999 31.0927 26.5866 31.5301L26.5878 31.5311C27.0749 31.9721 27.7417 32.2083 28.627 32.2083C29.8205 32.2083 30.7074 31.7352 31.3313 30.7489L31.4537 30.5554H32.1503V31.9728H34.158V26.4894C34.158 25.1855 33.8154 24.2798 33.2041 23.6979C32.5937 23.117 31.6449 22.7917 30.2774 22.7917ZM28.2024 22.2354C28.9971 22.0774 29.69 22 30.2774 22C31.7775 22 32.9796 22.3578 33.8032 23.1416C34.6257 23.9246 35 25.0657 35 26.4894V32.1759C35 32.498 34.7253 32.7645 34.3761 32.7645H31.9322C31.583 32.7645 31.3082 32.498 31.3082 32.1759V32.0458C30.5994 32.6791 29.6991 33 28.627 33C27.5736 33 26.6805 32.7139 26.0044 32.1019C25.319 31.4859 25 30.659 25 29.6709C25 28.6549 25.3222 27.8074 26.0042 27.1753C26.6771 26.5517 27.6535 26.1813 28.8752 26.0204L28.8769 26.0201L31.3057 25.7097C31.2544 25.3851 31.1285 25.1733 30.9611 25.0346C30.7559 24.8646 30.4213 24.7486 29.8895 24.7486C28.8504 24.7486 27.8678 25.0208 26.93 25.5743L26.9284 25.5753C26.5215 25.813 26.01 25.5266 26.01 25.0893V23.3251C26.01 23.1252 26.1219 22.9268 26.3246 22.8231L26.33 22.8204C26.8268 22.5751 27.4579 22.3812 28.2024 22.2354ZM32.1728 27.2723V28.4163C32.1728 29.1164 31.9426 29.724 31.4683 30.2153C30.989 30.7119 30.3739 30.9618 29.646 30.9618C29.1284 30.9618 28.6617 30.8301 28.3038 30.5253C27.9445 30.2193 27.7731 29.8127 27.7731 29.3498C27.7731 28.8608 27.9448 28.4341 28.3164 28.1157C28.6744 27.809 29.1749 27.6401 29.7612 27.5658L29.7633 27.5656L32.1728 27.2723ZM29.8736 28.3505L29.8725 28.3506C29.3772 28.4134 29.0665 28.5442 28.8835 28.701C28.714 28.8461 28.6151 29.0467 28.6151 29.3498C28.6151 29.6149 28.7053 29.7991 28.869 29.9384C29.0342 30.0791 29.2799 30.1701 29.646 30.1701C30.1447 30.1701 30.5306 30.0088 30.8449 29.6833C31.1642 29.3525 31.3308 28.9408 31.3308 28.4163V28.1731L29.8736 28.3505Z" fill="#62D361"/>
<path fill-rule="evenodd" clip-rule="evenodd" d="M18 17.0833V31.5H21V17.0833H26.5V14.5H12.5V17.0833H18ZM11.5 18.5833C11.2239 18.5833 11 18.3595 11 18.0833V13.5C11 13.2239 11.2239 13 11.5 13H27.5C27.7761 13 28 13.2239 28 13.5V18.0833C28 18.3595 27.7761 18.5833 27.5 18.5833H22.5V32.4983C22.5 32.7744 22.2761 33 22 33H17C16.7239 33 16.5 32.7761 16.5 32.5V18.5833H11.5Z" fill="#62D361"/>
</svg>
