<svg width="16" height="16" viewBox="0 0 16 16" fill="none" xmlns="http://www.w3.org/2000/svg">
<g opacity="0.6">
<path d="M7.99922 1.70833L7.86099 1.71009C5.45079 1.78249 3.49687 3.80491 3.50523 6.21839C3.5096 7.37002 3.95024 8.46374 4.74593 9.29807L4.97155 9.53157C5.55568 10.1324 5.75235 10.3352 5.75235 11.1458V11.5952H10.2468V11.1458C10.2468 10.3747 10.4614 10.1469 10.9802 9.59564C11.1026 9.46485 11.2361 9.32309 11.3791 9.16071C12.098 8.34171 12.4939 7.29147 12.4939 6.20257C12.4939 3.72373 10.4776 1.70833 7.99922 1.70833V1.70833ZM10.7041 8.56732C10.5681 8.72137 10.4417 8.85611 10.3258 8.97942C9.85842 9.47625 9.47521 9.88353 9.37385 10.6964H6.6279C6.5327 9.84798 6.15259 9.45695 5.61583 8.90525L5.39638 8.67747C4.76 8.01035 4.40757 7.13565 4.40403 6.21529C4.39748 4.28461 5.96037 2.66642 7.88816 2.60851L7.9992 2.60675C9.98213 2.60675 11.5951 4.21967 11.5951 6.20257C11.5953 7.07289 11.2786 7.9135 10.7041 8.56732V8.56732ZM5.75235 12.0451H10.2468V12.9435H5.75235V12.0451ZM6.65119 13.3929H9.34793V14.2922H6.65119V13.3929Z" fill="white" fill-opacity="0.5"/>
<path d="M5.30208 6.20219H6.20094C6.20094 5.21031 7.00718 4.4045 7.99886 4.4045V3.50521C6.51168 3.50521 5.30208 4.71523 5.30208 6.20219Z" fill="white" fill-opacity="0.5"/>
</g>
</svg>
