<svg width="16" height="16" viewBox="0 0 16 16" fill="none" xmlns="http://www.w3.org/2000/svg">
<g opacity="0.6">
<path d="M7.99889 1.70801L7.86067 1.70977C5.45047 1.78217 3.49655 3.80458 3.50491 6.21806C3.50927 7.36969 3.94992 8.46341 4.7456 9.29774L4.97122 9.53125C5.55535 10.1321 5.75202 10.3348 5.75202 11.1455V11.5949H10.2465V11.1455C10.2465 10.3743 10.4611 10.1466 10.9799 9.59532C11.1023 9.46452 11.2357 9.32277 11.3788 9.16038C12.0977 8.34139 12.4936 7.29114 12.4936 6.20225C12.4936 3.72341 10.4773 1.70801 7.99889 1.70801ZM10.7038 8.56699C10.5677 8.72105 10.4414 8.85579 10.3255 8.9791C9.85809 9.47593 9.47488 9.8832 9.37353 10.696H6.62757C6.53237 9.84766 6.15226 9.45663 5.61551 8.90492L5.39606 8.67714C4.75967 8.01003 4.40724 7.13533 4.40371 6.21496C4.39715 4.28429 5.96004 2.66609 7.88783 2.60818L7.99888 2.60642C9.9818 2.60642 11.5948 4.21934 11.5948 6.20225C11.595 7.07257 11.2782 7.91318 10.7038 8.56699ZM5.75202 12.0448H10.2465V12.9432H5.75202V12.0448ZM6.65087 13.3926H9.34761V14.2919H6.65087V13.3926Z" fill="white"/>
<path d="M5.30176 6.20187H6.20062C6.20062 5.20998 7.00685 4.40418 7.99853 4.40418V3.50488C6.51135 3.50488 5.30176 4.71491 5.30176 6.20187Z" fill="white"/>
</g>
</svg>
