<svg width="16" height="16" viewBox="0 0 16 16" fill="none" xmlns="http://www.w3.org/2000/svg">
<path d="M7.99987 1.70801L7.86164 1.70977C5.45144 1.78217 3.49752 3.80458 3.50589 6.21806C3.51025 7.36969 3.9509 8.46341 4.74658 9.29774L4.9722 9.53125C5.55633 10.1321 5.753 10.3348 5.753 11.1455V11.5949H10.2474V11.1455C10.2474 10.3743 10.4621 10.1466 10.9808 9.59532C11.1033 9.46452 11.2367 9.32277 11.3798 9.16038C12.0987 8.34139 12.4945 7.29114 12.4945 6.20225C12.4945 3.72341 10.4783 1.70801 7.99987 1.70801ZM5.753 12.0448H10.2474V12.9432H5.753V12.0448ZM6.65184 13.3926H9.34858V14.2919H6.65184V13.3926Z" fill="#62D361"/>
<path d="M5.30371 6.20187H6.20257C6.20257 5.20998 7.00881 4.40418 8.00048 4.40418V3.50488C6.5133 3.50488 5.30371 4.71491 5.30371 6.20187Z" fill="white"/>
</svg>
