<svg width="889" height="889" viewBox="0 0 889 889" fill="none" xmlns="http://www.w3.org/2000/svg">
<g clip-path="url(#clip0_10921_1773)">
<path d="M887.471 0.71875H0.71875V887.471H887.471V0.71875Z" fill="#1A1B1D" stroke="#505050" stroke-width="2"/>
<path d="M31.1924 0V888.189Z" fill="#333333"/>
<path d="M31.1924 0V888.189" stroke="#333333"/>
<path d="M90.1787 0V888.189Z" fill="#333333"/>
<path d="M90.1787 0V888.189" stroke="#333333"/>
<path d="M149.164 0V888.189Z" fill="#333333"/>
<path d="M149.164 0V888.189" stroke="#333333"/>
<path d="M208.15 0V888.189Z" fill="#333333"/>
<path d="M208.15 0V888.189" stroke="#333333"/>
<path d="M267.137 0V888.189Z" fill="#333333"/>
<path d="M267.137 0V888.189" stroke="#333333"/>
<path d="M60.6855 0V888.189Z" fill="#333333"/>
<path d="M60.6855 0V888.189" stroke="#333333"/>
<path d="M119.671 0V888.189Z" fill="#333333"/>
<path d="M119.671 0V888.189" stroke="#333333"/>
<path d="M237.644 0V888.189Z" fill="#333333"/>
<path d="M237.644 0V888.189" stroke="#333333"/>
<path d="M296.63 0V888.124Z" fill="#333333"/>
<path d="M296.63 0V888.124" stroke="#333333"/>
<path d="M326.122 0V887.621Z" fill="#333333"/>
<path d="M326.122 0V887.621" stroke="#333333"/>
<path d="M385.108 0V887.263Z" fill="#333333"/>
<path d="M385.108 0V887.263" stroke="#333333"/>
<path d="M414.602 0V887.938Z" fill="#333333"/>
<path d="M414.602 0V887.938" stroke="#333333"/>
<path d="M444.095 0.404297V888.594Z" fill="#333333"/>
<path d="M444.095 0.404297V888.594" stroke="#333333"/>
<path d="M473.588 0V888.19Z" fill="#333333"/>
<path d="M473.588 0V888.19" stroke="#333333"/>
<path d="M503.08 0V888.19Z" fill="#333333"/>
<path d="M503.08 0V888.19" stroke="#333333"/>
<path d="M562.066 0V888.19Z" fill="#333333"/>
<path d="M562.066 0V888.19" stroke="#333333"/>
<path d="M591.56 0V888.19Z" fill="#333333"/>
<path d="M591.56 0V888.19" stroke="#333333"/>
<path d="M621.053 0V888.189Z" fill="#333333"/>
<path d="M621.053 0V888.189" stroke="#333333"/>
<path d="M650.546 0V888.189Z" fill="#333333"/>
<path d="M650.546 0V888.189" stroke="#333333"/>
<path d="M680.039 0V888.189Z" fill="#333333"/>
<path d="M680.039 0V888.189" stroke="#333333"/>
<path d="M739.024 0V888.189Z" fill="#333333"/>
<path d="M739.024 0V888.189" stroke="#333333"/>
<path d="M768.518 0V888.189Z" fill="#333333"/>
<path d="M768.518 0V888.189" stroke="#333333"/>
<path d="M798.011 0V888.189Z" fill="#333333"/>
<path d="M798.011 0V888.189" stroke="#333333"/>
<path d="M827.504 0V888.189Z" fill="#333333"/>
<path d="M827.504 0V888.189" stroke="#333333"/>
<path d="M856.997 0V888.189Z" fill="#333333"/>
<path d="M856.997 0V888.189" stroke="#333333"/>
<path d="M888.189 31.1924H0.000452042Z" fill="#333333"/>
<path d="M888.189 31.1924H0.000452042" stroke="#333333"/>
<path d="M888.189 90.1787H0.000452042Z" fill="#333333"/>
<path d="M888.189 90.1787H0.000452042" stroke="#333333"/>
<path d="M888.189 149.164H0.000452042Z" fill="#333333"/>
<path d="M888.189 149.164H0.000452042" stroke="#333333"/>
<path d="M888.189 208.15H0.000452042Z" fill="#333333"/>
<path d="M888.189 208.15H0.000452042" stroke="#333333"/>
<path d="M888.189 267.137H0.000452042Z" fill="#333333"/>
<path d="M888.189 267.137H0.000452042" stroke="#333333"/>
<path d="M888.189 60.6855H0.000452042Z" fill="#333333"/>
<path d="M888.189 60.6855H0.000452042" stroke="#333333"/>
<path d="M888.189 119.671H0.000452042Z" fill="#333333"/>
<path d="M888.189 119.671H0.000452042" stroke="#333333"/>
<path d="M888.189 237.644H0.000452042Z" fill="#333333"/>
<path d="M888.189 237.644H0.000452042" stroke="#333333"/>
<path d="M888.189 296.63H0.000452042Z" fill="#333333"/>
<path d="M888.189 296.63H0.000452042" stroke="#333333"/>
<path d="M888.189 326.122H0.000452042Z" fill="#333333"/>
<path d="M888.189 326.122H0.000452042" stroke="#333333"/>
<path d="M888.189 385.108H0.000452042Z" fill="#333333"/>
<path d="M888.189 385.108H0.000452042" stroke="#333333"/>
<path d="M887.031 414.602H263.255Z" fill="#333333"/>
<path d="M887.031 414.602H263.255" stroke="#333333"/>
<path d="M887.357 444.095H613.067Z" fill="#333333"/>
<path d="M887.357 444.095H613.067" stroke="#333333"/>
<path d="M885.924 473.588H262.407Z" fill="#333333"/>
<path d="M885.924 473.588H262.407" stroke="#333333"/>
<path d="M888.189 503.08H0.000452042Z" fill="#333333"/>
<path d="M888.189 503.08H0.000452042" stroke="#333333"/>
<path d="M888.189 562.066H0.000452042Z" fill="#333333"/>
<path d="M888.189 562.066H0.000452042" stroke="#333333"/>
<path d="M888.189 591.56H0.000452042Z" fill="#333333"/>
<path d="M888.189 591.56H0.000452042" stroke="#333333"/>
<path d="M888.189 621.053H0.000452042Z" fill="#333333"/>
<path d="M888.189 621.053H0.000452042" stroke="#333333"/>
<path d="M888.189 650.546H0.000452042Z" fill="#333333"/>
<path d="M888.189 650.546H0.000452042" stroke="#333333"/>
<path d="M888.189 680.039H0.000452042Z" fill="#333333"/>
<path d="M888.189 680.039H0.000452042" stroke="#333333"/>
<path d="M888.189 739.024H0.000452042Z" fill="#333333"/>
<path d="M888.189 739.024H0.000452042" stroke="#333333"/>
<path d="M888.189 768.518H0.000452042Z" fill="#333333"/>
<path d="M888.189 768.518H0.000452042" stroke="#333333"/>
<path d="M888.189 798.011H0.000452042Z" fill="#333333"/>
<path d="M888.189 798.011H0.000452042" stroke="#333333"/>
<path d="M888.189 827.504H0.000452042Z" fill="#333333"/>
<path d="M888.189 827.504H0.000452042" stroke="#333333"/>
<path d="M888.189 856.997H0.000452042Z" fill="#333333"/>
<path d="M888.189 856.997H0.000452042" stroke="#333333"/>
<path d="M294.395 414.602H0.983251Z" fill="#333333"/>
<path d="M294.395 414.602H0.983251" stroke="#333333"/>
<path d="M623.455 444.095H0.951111Z" fill="#333333"/>
<path d="M623.455 444.095H0.951111" stroke="#333333"/>
<path d="M272.945 473.588H1.40213Z" fill="#333333"/>
<path d="M272.945 473.588H1.40213" stroke="#333333"/>
<path d="M176.432 0V888.189" stroke="#494949" stroke-width="2"/>
<path d="M354.069 0V887.553" stroke="#494949" stroke-width="2"/>
<path d="M531.707 0V887.823" stroke="#494949" stroke-width="2"/>
<path d="M709.345 0V888.189" stroke="#494949" stroke-width="2"/>
<path d="M888.189 177.638L0.000452042 177.638" stroke="#494949" stroke-width="2"/>
<path d="M888.189 355.275L0.000452042 355.275" stroke="#494949" stroke-width="2"/>
<path d="M888.189 532.913H0.000452042" stroke="#494949" stroke-width="2"/>
<path d="M888.189 710.551H0.000452042" stroke="#494949" stroke-width="2"/>
<path d="M887.471 0.71875H0.71875V887.471H887.471V0.71875Z" stroke="#505050" stroke-width="2"/>
<rect x="26" y="814" width="349" height="48" fill="#1A1B1D"/>
<path d="M35.0021 852.83C35.093 852.588 41.8108 834.123 43.9014 828.369C44.8138 825.857 45.6305 823.623 45.7162 823.404L45.8722 823.005H53.2025L53.4185 823.621C53.6847 824.382 63.8939 852.406 64.0327 852.758C64.1265 852.995 63.898 853.011 60.4328 853.011H56.733L55.7666 850.112L54.8003 847.213H44.2908L43.3076 850.112L42.3244 853.011H38.6295C35.7339 853.011 34.9489 852.972 35.0021 852.83ZM52.5259 842.049L53.0542 841.962L51.3663 836.908C50.4379 834.129 49.6456 831.853 49.6056 831.852C49.5319 831.849 46.2986 841.211 46.1651 841.813L46.093 842.14L49.0453 842.138C50.669 842.137 52.2356 842.097 52.5259 842.049ZM66.856 841.995V830.978H73.8137V833.871L74.8998 833.134C76.5059 832.045 77.8136 831.658 79.902 831.654C81.3453 831.651 81.7247 831.704 82.7287 832.048C85.0504 832.844 86.9818 834.541 88.0263 836.702C89.0073 838.733 89.0297 838.948 89.0321 846.383L89.0338 853.017L82.1482 852.939L82.1222 847.213C82.1092 844.064 82.0628 841.183 82.0217 840.81C81.8135 838.923 80.255 837.426 78.3171 837.252C76.6451 837.102 75.244 837.868 74.401 839.394L73.8853 840.328L73.8433 846.67L73.8011 853.012H66.8546L66.856 841.995ZM91.7886 838.006V823L98.8189 823.078L98.964 838.853L100.72 836.691C101.686 835.502 103.081 833.779 103.82 832.862C104.56 831.945 105.208 831.146 105.261 831.086C105.397 830.933 112.584 830.917 112.615 831.07C112.628 831.139 110.752 833.536 108.445 836.396C105.704 839.793 104.294 841.653 104.376 841.76C104.445 841.849 106.469 844.39 108.872 847.405C111.276 850.421 113.242 852.916 113.242 852.95C113.242 852.984 111.464 853.011 109.292 853.011L105.342 853.011L98.9638 845.061L98.9253 849.036L98.8867 853.012H91.7883L91.7886 838.006ZM120.418 852.774C118.144 852.296 115.506 850.588 114.108 848.689C112.544 846.566 111.888 844.582 111.892 841.995C111.894 840.059 112.128 839.012 112.942 837.283C114.291 834.418 116.643 832.372 119.693 831.411C121.251 830.921 123.821 830.847 125.423 831.248C126.91 831.619 128.678 832.474 129.8 833.362C132.71 835.669 134.374 839.742 133.879 843.35L133.787 844.022L118.158 844.097L118.609 845C119.101 845.985 119.856 846.721 120.905 847.238C121.453 847.509 121.818 847.57 122.882 847.572C124.414 847.575 125.163 847.299 126.185 846.356L126.828 845.764H133.266L133.17 846.09C132.977 846.748 131.87 848.54 131.178 849.317C129.7 850.976 127.37 852.364 125.346 852.792C124.071 853.062 121.744 853.054 120.418 852.774ZM127.228 839.091C125.776 836.226 121.958 835.524 119.638 837.695C119.09 838.208 118.316 839.341 118.316 839.631C118.316 839.783 119.238 839.82 122.957 839.82H127.598L127.228 839.091ZM136.725 841.997V830.978H143.539L143.557 832.319C143.567 833.056 143.567 833.709 143.557 833.768C143.525 833.963 143.692 833.885 144.237 833.451C146.125 831.946 148.805 831.027 150.423 831.331L150.932 831.426V834.536C150.932 836.247 150.884 837.644 150.823 837.641C150.764 837.638 150.323 837.541 149.845 837.426C147.181 836.783 145.069 837.538 144.106 839.479L143.757 840.183L143.612 852.939L136.726 853.017L136.725 841.997ZM153.685 838.008V823.005H156.662L162.291 828.641C167.173 833.529 167.901 834.313 167.772 834.548C167.69 834.697 166.646 835.787 165.451 836.969C163.6 838.802 163.24 839.098 163.012 838.973C162.865 838.892 162.29 838.365 161.735 837.801C161.179 837.237 160.689 836.776 160.647 836.776C160.605 836.776 160.588 840.282 160.609 844.567C160.63 848.853 160.612 852.505 160.57 852.685L160.493 853.011H153.686L153.685 838.008ZM178.038 844.894C178.038 840.429 177.988 836.776 177.926 836.776C177.864 836.776 177.328 837.266 176.734 837.863C176.103 838.499 175.532 838.951 175.362 838.951C174.965 838.951 170.79 834.782 170.79 834.386C170.79 834.194 172.703 832.181 176.336 828.549L181.881 823.005H184.851V853.012H178.038L178.038 844.894ZM195.749 852.717C192.098 851.761 189.209 848.901 188.137 845.184C186.961 841.106 187.998 836.842 190.867 833.956C192.832 831.98 194.671 831.133 197.254 831.014C199.378 830.917 200.987 831.372 202.429 832.478C202.808 832.769 203.151 833.007 203.19 833.007C203.229 833.007 203.261 832.518 203.261 831.92V830.833H210.074V853.012H203.261V850.952L202.748 851.402C201.119 852.833 198.249 853.372 195.749 852.717ZM200.319 846.193C201.303 845.71 202.04 844.956 202.561 843.899C202.826 843.361 202.892 842.982 202.894 841.995C202.896 840.52 202.564 839.656 201.623 838.685C200.686 837.718 199.788 837.319 198.377 837.241C197.291 837.181 197.112 837.213 196.275 837.605C193.418 838.947 192.533 842.36 194.4 844.836C194.991 845.619 196.17 846.403 197.087 846.622C198.053 846.853 199.312 846.686 200.319 846.193ZM212.828 838.008V823.005H219.936L219.897 830.964C219.876 835.341 219.895 838.9 219.94 838.872C219.985 838.844 221.481 837.026 223.265 834.832L226.507 830.843L230.099 830.843C232.075 830.844 233.722 830.894 233.76 830.955C233.798 831.016 233.583 831.356 233.283 831.71C232.984 832.065 231.062 834.434 229.013 836.975C226.553 840.024 225.331 841.65 225.415 841.758C225.486 841.848 227.465 844.336 229.813 847.286C232.161 850.235 234.131 852.731 234.191 852.83C234.276 852.973 233.468 853.011 230.34 853.01L226.381 853.008L223.192 849.034L220.003 845.061L219.965 849.036L219.926 853.012H212.828L212.828 838.008ZM241.312 852.737C239.191 852.162 237.593 851.222 236.071 849.654C234.05 847.572 232.98 844.958 232.978 842.097C232.976 839.139 233.952 836.62 235.915 834.517C238.275 831.991 241.156 830.838 244.67 831.014C247.542 831.159 249.954 832.284 251.98 834.424C253.965 836.522 254.868 838.612 254.98 841.369C255.016 842.261 255.001 843.223 254.949 843.507L254.852 844.024H247.104C241.868 844.024 239.355 844.073 239.355 844.174C239.355 844.512 240.088 845.728 240.609 846.255C240.916 846.565 241.526 846.988 241.964 847.197C242.643 847.519 242.956 847.575 244.066 847.573C245.203 847.571 245.468 847.519 246.127 847.174C246.543 846.956 247.111 846.55 247.39 846.271L247.898 845.764H254.416L254.266 846.192C254.035 846.855 253.08 848.368 252.381 849.179C251.05 850.723 249.378 851.85 247.448 852.505C246.406 852.859 245.972 852.922 244.283 852.963C242.705 853.002 242.13 852.958 241.312 852.737ZM248.631 839.712C248.629 839.652 248.44 839.272 248.208 838.867C246.335 835.601 241.653 835.601 239.78 838.867C239.548 839.272 239.357 839.652 239.357 839.712C239.355 839.771 241.443 839.821 243.994 839.821C246.545 839.821 248.632 839.772 248.631 839.712Z" fill="#464646"/>
<path d="M169.311 835.94L173.969 840.598L169.311 845.255L164.654 840.598L169.311 835.94Z" fill="#464646"/>
<path d="M361.404 834.727H353.793C353.739 834.097 353.595 833.526 353.362 833.013C353.137 832.5 352.822 832.059 352.417 831.691C352.021 831.313 351.54 831.025 350.973 830.827C350.406 830.62 349.763 830.517 349.043 830.517C347.784 830.517 346.718 830.822 345.845 831.434C344.982 832.046 344.325 832.923 343.875 834.066C343.434 835.208 343.214 836.58 343.214 838.181C343.214 839.873 343.439 841.29 343.889 842.432C344.347 843.566 345.009 844.42 345.872 844.996C346.736 845.563 347.775 845.846 348.989 845.846C349.682 845.846 350.303 845.761 350.852 845.59C351.4 845.41 351.877 845.153 352.282 844.821C352.687 844.488 353.015 844.087 353.267 843.62C353.528 843.143 353.703 842.608 353.793 842.014L361.404 842.068C361.314 843.237 360.986 844.429 360.419 845.644C359.852 846.849 359.047 847.965 358.004 848.99C356.969 850.007 355.687 850.826 354.158 851.446C352.628 852.067 350.852 852.377 348.828 852.377C346.291 852.377 344.015 851.833 341.999 850.745C339.993 849.656 338.405 848.055 337.236 845.941C336.075 843.826 335.495 841.24 335.495 838.181C335.495 835.105 336.089 832.514 337.276 830.409C338.464 828.295 340.065 826.698 342.08 825.618C344.095 824.53 346.345 823.985 348.828 823.985C350.573 823.985 352.179 824.224 353.645 824.701C355.111 825.177 356.398 825.875 357.504 826.792C358.611 827.701 359.502 828.821 360.176 830.152C360.851 831.484 361.26 833.009 361.404 834.727Z" fill="#464646"/>
<path d="M321.303 852.377C319.18 852.377 317.295 852.004 315.649 851.257C314.012 850.502 312.721 849.463 311.776 848.14C310.84 846.818 310.364 845.297 310.346 843.579H317.633C317.66 844.533 318.028 845.293 318.739 845.86C319.459 846.426 320.314 846.71 321.303 846.71C322.068 846.71 322.742 846.548 323.327 846.224C323.912 845.891 324.371 845.423 324.704 844.821C325.037 844.218 325.198 843.516 325.189 842.716C325.198 841.906 325.037 841.204 324.704 840.61C324.371 840.008 323.912 839.544 323.327 839.221C322.742 838.888 322.068 838.721 321.303 838.721C320.511 838.721 319.778 838.915 319.104 839.301C318.438 839.679 317.948 840.206 317.633 840.88L311.047 839.585L312.127 824.363H330.695V830.355H318.28L317.741 836.454H317.903C318.334 835.618 319.081 834.925 320.143 834.376C321.204 833.818 322.437 833.539 323.84 833.539C325.486 833.539 326.953 833.922 328.239 834.686C329.535 835.451 330.556 836.508 331.302 837.858C332.058 839.198 332.431 840.745 332.422 842.5C332.431 844.425 331.973 846.134 331.046 847.627C330.128 849.112 328.837 850.277 327.173 851.123C325.509 851.959 323.552 852.377 321.303 852.377Z" fill="#464646"/>
<path d="M274.781 824.363H284.119L290.543 840.017H290.866L297.29 824.363H306.628V852H299.287V836.022H299.071L292.918 851.784H288.491L282.338 835.914H282.122V852H274.781V824.363Z" fill="#464646"/>
</g>
<defs>
<clipPath id="clip0_10921_1773">
<rect width="888.189" height="888.189" fill="white"/>
</clipPath>
</defs>
</svg>
